G04*
G04 #@! TF.GenerationSoftware,Altium Limited,Altium Designer,21.9.2 (33)*
G04*
G04 Layer_Color=16711935*
%FSLAX25Y25*%
%MOIN*%
G70*
G04*
G04 #@! TF.SameCoordinates,B4EE9FE0-2F64-4693-93D6-35106772D84E*
G04*
G04*
G04 #@! TF.FilePolarity,Negative*
G04*
G01*
G75*
%ADD18R,0.05131X0.04737*%
%ADD19R,0.04540X0.04934*%
%ADD21R,0.04737X0.05131*%
%ADD41R,0.05512X0.05512*%
%ADD42C,0.05512*%
%ADD43C,0.05524*%
%ADD44C,0.03162*%
%ADD45C,0.03753*%
%ADD46C,0.04737*%
%ADD47C,0.06312*%
%ADD48C,0.03950*%
%ADD49C,0.06706*%
%ADD50C,0.10249*%
%ADD77R,0.06700X0.04950*%
%ADD81R,0.04950X0.06700*%
%ADD82R,0.02900X0.02200*%
G04:AMPARAMS|DCode=84|XSize=73.79mil|YSize=24.1mil|CornerRadius=12.05mil|HoleSize=0mil|Usage=FLASHONLY|Rotation=90.000|XOffset=0mil|YOffset=0mil|HoleType=Round|Shape=RoundedRectangle|*
%AMROUNDEDRECTD84*
21,1,0.07379,0.00000,0,0,90.0*
21,1,0.04969,0.02410,0,0,90.0*
1,1,0.02410,0.00000,0.02485*
1,1,0.02410,0.00000,-0.02485*
1,1,0.02410,0.00000,-0.02485*
1,1,0.02410,0.00000,0.02485*
%
%ADD84ROUNDEDRECTD84*%
%ADD85R,0.02410X0.07379*%
%ADD88R,0.08600X0.05118*%
%ADD89R,0.08600X0.05906*%
%ADD90R,0.08500X0.06300*%
%ADD95R,0.03162X0.06902*%
%ADD96R,0.05524X0.07887*%
G04:AMPARAMS|DCode=97|XSize=68mil|YSize=126.11mil|CornerRadius=19mil|HoleSize=0mil|Usage=FLASHONLY|Rotation=0.000|XOffset=0mil|YOffset=0mil|HoleType=Round|Shape=RoundedRectangle|*
%AMROUNDEDRECTD97*
21,1,0.06800,0.08811,0,0,0.0*
21,1,0.03000,0.12611,0,0,0.0*
1,1,0.03800,0.01500,-0.04406*
1,1,0.03800,-0.01500,-0.04406*
1,1,0.03800,-0.01500,0.04406*
1,1,0.03800,0.01500,0.04406*
%
%ADD97ROUNDEDRECTD97*%
G04:AMPARAMS|DCode=98|XSize=86.74mil|YSize=165.48mil|CornerRadius=23.68mil|HoleSize=0mil|Usage=FLASHONLY|Rotation=0.000|XOffset=0mil|YOffset=0mil|HoleType=Round|Shape=RoundedRectangle|*
%AMROUNDEDRECTD98*
21,1,0.08674,0.11811,0,0,0.0*
21,1,0.03937,0.16548,0,0,0.0*
1,1,0.04737,0.01968,-0.05906*
1,1,0.04737,-0.01968,-0.05906*
1,1,0.04737,-0.01968,0.05906*
1,1,0.04737,0.01968,0.05906*
%
%ADD98ROUNDEDRECTD98*%
%ADD99R,0.06706X0.08280*%
G04:AMPARAMS|DCode=100|XSize=39.5mil|YSize=59.18mil|CornerRadius=11.87mil|HoleSize=0mil|Usage=FLASHONLY|Rotation=0.000|XOffset=0mil|YOffset=0mil|HoleType=Round|Shape=RoundedRectangle|*
%AMROUNDEDRECTD100*
21,1,0.03950,0.03543,0,0,0.0*
21,1,0.01575,0.05918,0,0,0.0*
1,1,0.02375,0.00787,-0.01772*
1,1,0.02375,-0.00787,-0.01772*
1,1,0.02375,-0.00787,0.01772*
1,1,0.02375,0.00787,0.01772*
%
%ADD100ROUNDEDRECTD100*%
D18*
X53500Y108244D02*
D03*
Y113756D02*
D03*
Y102256D02*
D03*
Y96744D02*
D03*
X57500Y-83244D02*
D03*
Y-88756D02*
D03*
X42000Y-84244D02*
D03*
Y-89756D02*
D03*
X76500Y-84244D02*
D03*
Y-89756D02*
D03*
X93000Y-83244D02*
D03*
Y-88756D02*
D03*
D19*
X76646Y-53000D02*
D03*
X82354D02*
D03*
Y-59000D02*
D03*
X76646D02*
D03*
D21*
X56744Y-4500D02*
D03*
X62256D02*
D03*
X33756Y51000D02*
D03*
X28244D02*
D03*
X-3756Y3500D02*
D03*
X1756D02*
D03*
D41*
X25421Y-21216D02*
D03*
D42*
X15579D02*
D03*
D43*
X76181Y-95949D02*
D03*
X40748Y-77051D02*
D03*
X57677D02*
D03*
Y-95949D02*
D03*
X40748D02*
D03*
X76181Y-77051D02*
D03*
X93110D02*
D03*
Y-95949D02*
D03*
D44*
X6000Y-27500D02*
D03*
X-45500Y-13000D02*
D03*
X-36500Y-5000D02*
D03*
X51000Y53000D02*
D03*
X42000Y49500D02*
D03*
X71000Y43500D02*
D03*
Y47500D02*
D03*
X73937Y113500D02*
D03*
X70000Y106146D02*
D03*
X77874Y113500D02*
D03*
X46000Y101500D02*
D03*
X52500Y11000D02*
D03*
X56744Y-4500D02*
D03*
X47500Y-65000D02*
D03*
X46854Y15000D02*
D03*
X-16000Y87500D02*
D03*
X33776Y36676D02*
D03*
X46000Y48000D02*
D03*
X50631Y47500D02*
D03*
X54000Y45000D02*
D03*
X50000Y41000D02*
D03*
X46000Y39500D02*
D03*
X54000Y41000D02*
D03*
X-28000Y54500D02*
D03*
Y51000D02*
D03*
Y47500D02*
D03*
Y44000D02*
D03*
Y40500D02*
D03*
Y37000D02*
D03*
X-29500Y77500D02*
D03*
X-34500D02*
D03*
X0Y-9000D02*
D03*
X-19325Y-8429D02*
D03*
X-12000Y-8500D02*
D03*
X-46500Y13500D02*
D03*
X-41000Y1000D02*
D03*
X-99354Y12000D02*
D03*
X-99256Y18000D02*
D03*
X-68500Y46000D02*
D03*
X69500Y1500D02*
D03*
X72500Y5500D02*
D03*
X71000Y15000D02*
D03*
X67500D02*
D03*
X64000D02*
D03*
X-11500Y87500D02*
D03*
X0Y96000D02*
D03*
X-3000Y99500D02*
D03*
X24500Y67354D02*
D03*
X58000Y58000D02*
D03*
X33500Y50500D02*
D03*
X-32000Y-1500D02*
D03*
X74500Y-30000D02*
D03*
X87000Y-31000D02*
D03*
Y-35000D02*
D03*
X76652Y-53000D02*
D03*
X72000Y57500D02*
D03*
X68500D02*
D03*
X65000D02*
D03*
X61500D02*
D03*
X45000Y-41500D02*
D03*
X50000D02*
D03*
X50068Y-53702D02*
D03*
X50000Y-48244D02*
D03*
X66500Y-72000D02*
D03*
X80756Y-35000D02*
D03*
X71500Y-72000D02*
D03*
X46000Y-75000D02*
D03*
X49213Y-97327D02*
D03*
X15000Y54000D02*
D03*
X60500Y15000D02*
D03*
X53500D02*
D03*
X57000D02*
D03*
X94646Y-3500D02*
D03*
X-62000Y14000D02*
D03*
X41146Y34500D02*
D03*
X46854Y21000D02*
D03*
X-68366Y42000D02*
D03*
X-75500Y7500D02*
D03*
X-87000D02*
D03*
X-12646Y1500D02*
D03*
X-29000Y97500D02*
D03*
X-25000D02*
D03*
Y89500D02*
D03*
X-29000D02*
D03*
X90250Y-48000D02*
D03*
Y-52000D02*
D03*
Y-44000D02*
D03*
X94000Y-52000D02*
D03*
X86500Y-48000D02*
D03*
X94000D02*
D03*
Y-44000D02*
D03*
X86500Y-52000D02*
D03*
Y-44000D02*
D03*
X54500Y58000D02*
D03*
X-10000Y11146D02*
D03*
X-54880Y44120D02*
D03*
X-59760Y54000D02*
D03*
X-64760D02*
D03*
X-69760D02*
D03*
X23881Y21000D02*
D03*
X16379Y29545D02*
D03*
X69854Y-111000D02*
D03*
X7500Y38000D02*
D03*
Y34075D02*
D03*
X18000Y35000D02*
D03*
X22065Y29125D02*
D03*
X-73000Y38000D02*
D03*
X14000Y39000D02*
D03*
Y35000D02*
D03*
X-28500Y30000D02*
D03*
X-4500Y45500D02*
D03*
X-7500Y42500D02*
D03*
X-10500Y39500D02*
D03*
X-34500Y11000D02*
D03*
X-22500D02*
D03*
X-28500D02*
D03*
X-47000Y91000D02*
D03*
X-47244Y97500D02*
D03*
X-47500Y30000D02*
D03*
X-38000D02*
D03*
X-57000D02*
D03*
X-99000Y24000D02*
D03*
X-73000Y33500D02*
D03*
X-70000Y73500D02*
D03*
Y77500D02*
D03*
Y96854D02*
D03*
X-99098Y29902D02*
D03*
X-81500Y25854D02*
D03*
X-93390Y29902D02*
D03*
X-88724Y85469D02*
D03*
X-29165Y-12697D02*
D03*
X9000Y3500D02*
D03*
X89000Y71854D02*
D03*
X57500Y-82500D02*
D03*
X76500Y-90500D02*
D03*
X93131Y-82500D02*
D03*
X42000Y-90000D02*
D03*
X64146Y-99000D02*
D03*
X52500Y-75000D02*
D03*
X84646Y-75673D02*
D03*
Y-97327D02*
D03*
X44000Y-48000D02*
D03*
Y-54000D02*
D03*
X64000Y-44500D02*
D03*
Y-50500D02*
D03*
X6646Y21000D02*
D03*
X-11000Y22646D02*
D03*
X49787Y-28500D02*
D03*
Y-33000D02*
D03*
X58287D02*
D03*
X54000D02*
D03*
X58287Y-28500D02*
D03*
X49787Y-24000D02*
D03*
X58287D02*
D03*
X54000D02*
D03*
Y-28500D02*
D03*
X6016Y15150D02*
D03*
X23256Y-10000D02*
D03*
X22000Y35000D02*
D03*
X35354Y21000D02*
D03*
Y15000D02*
D03*
Y27000D02*
D03*
X-4854Y22500D02*
D03*
X-4500Y16854D02*
D03*
X-16500Y11146D02*
D03*
X-77500Y90854D02*
D03*
X-81500Y20146D02*
D03*
D45*
X21000Y50000D02*
D03*
X25000D02*
D03*
X29000D02*
D03*
D46*
X-30150Y-7047D02*
D03*
X5500Y-5000D02*
D03*
D47*
X-29500Y109500D02*
D03*
X-30000Y5000D02*
D03*
D48*
X-2000Y-3500D02*
D03*
D49*
X100394Y66071D02*
D03*
Y26357D02*
D03*
Y16429D02*
D03*
Y36286D02*
D03*
Y6500D02*
D03*
Y46214D02*
D03*
Y76000D02*
D03*
Y56143D02*
D03*
D50*
Y-21500D02*
D03*
X-100394D02*
D03*
Y104500D02*
D03*
X100394D02*
D03*
D77*
X-42000Y-13125D02*
D03*
Y-3875D02*
D03*
D81*
X-10875Y-6500D02*
D03*
X-20125D02*
D03*
D82*
X64600Y1750D02*
D03*
Y9250D02*
D03*
X72400Y5500D02*
D03*
X60400Y9250D02*
D03*
Y1750D02*
D03*
X52600Y5500D02*
D03*
D84*
X42260Y108863D02*
D03*
X38520Y101500D02*
D03*
D85*
X46000D02*
D03*
D88*
X13800Y23000D02*
D03*
D89*
X27200D02*
D03*
D90*
X13900Y9500D02*
D03*
X27100D02*
D03*
D95*
X66063Y113500D02*
D03*
X70000D02*
D03*
X73937D02*
D03*
X77874D02*
D03*
D96*
X82992Y98244D02*
D03*
X60945D02*
D03*
D97*
X13500Y56500D02*
D03*
X21500Y65000D02*
D03*
X30500D02*
D03*
X39000D02*
D03*
D98*
X-64500Y7500D02*
D03*
X-75500Y-11500D02*
D03*
X-87000Y7500D02*
D03*
X-53500D02*
D03*
X-75500D02*
D03*
X-53500Y-11500D02*
D03*
X-64500D02*
D03*
X-87000D02*
D03*
D99*
X905Y11000D02*
D03*
X-10905D02*
D03*
D100*
X-45000Y51000D02*
D03*
X-50000D02*
D03*
X-55000D02*
D03*
X-60000D02*
D03*
X-65000D02*
D03*
X-70000D02*
D03*
X-75000D02*
D03*
X-80000D02*
D03*
M02*
