G04*
G04 #@! TF.GenerationSoftware,Altium Limited,Altium Designer,21.9.2 (33)*
G04*
G04 Layer_Color=32896*
%FSLAX25Y25*%
%MOIN*%
G70*
G04*
G04 #@! TF.SameCoordinates,B4EE9FE0-2F64-4693-93D6-35106772D84E*
G04*
G04*
G04 #@! TF.FilePolarity,Positive*
G04*
G01*
G75*
%ADD10C,0.00984*%
%ADD12C,0.00787*%
%ADD13C,0.00600*%
%ADD14C,0.00500*%
%ADD15C,0.01000*%
%ADD101C,0.01181*%
D10*
X37429Y-21216D02*
X36691Y-20790D01*
Y-21643D01*
X37429Y-21216D01*
D12*
X5933Y-51138D02*
Y-5862D01*
X35067D01*
Y-51138D02*
Y-5862D01*
X5933Y-51138D02*
X35067D01*
X67526Y-484D02*
X71256D01*
Y8076D02*
Y11484D01*
Y-484D02*
Y2924D01*
X67526Y11484D02*
X71256D01*
X65744Y4326D02*
Y6674D01*
X53744Y11484D02*
X57474D01*
X53744Y-484D02*
Y2924D01*
Y8076D02*
Y11484D01*
Y-484D02*
X57474D01*
X59256Y4326D02*
Y6674D01*
X45134Y107741D02*
X48008D01*
Y105182D02*
Y107741D01*
X36512D02*
X39386D01*
X36512Y105182D02*
Y107741D01*
X-6378Y14346D02*
X-3622D01*
X-6378Y7654D02*
X-3622D01*
D13*
X5550Y9500D02*
X4950D01*
X5550D01*
X-45850Y-9439D02*
Y-7561D01*
X-38150Y-9439D02*
Y-7561D01*
X-16439Y-10350D02*
X-14561D01*
X-16439Y-2650D02*
X-14561D01*
X31400Y17000D02*
Y18440D01*
X3100Y23000D02*
X8100D01*
X4100Y20500D02*
Y25500D01*
Y23000D02*
X7100Y20500D01*
X4100Y23000D02*
X7100Y21000D01*
X4100Y23000D02*
X7100Y21500D01*
X4100Y23000D02*
X7100Y22000D01*
X4100Y23000D02*
X7100Y22500D01*
X4100Y23000D02*
X7100Y25500D01*
X4100Y23000D02*
X7100Y25000D01*
X4100Y23000D02*
X7100Y24500D01*
X4100Y23000D02*
X7100Y24000D01*
X4100Y23000D02*
X7100Y23500D01*
Y20500D02*
Y25500D01*
X9600Y29000D02*
X31400D01*
Y27560D02*
Y29000D01*
X9600Y17000D02*
X31400D01*
X9600D02*
Y18440D01*
Y27560D02*
Y29000D01*
X9750Y15300D02*
X31250D01*
Y13960D02*
Y15300D01*
X9750Y3700D02*
X31250D01*
X9750D02*
Y5040D01*
Y13960D02*
Y15300D01*
X31250Y3700D02*
Y5040D01*
D14*
X64882Y95488D02*
X79055D01*
X60158Y103264D02*
Y112221D01*
X63307D01*
X83780Y103264D02*
Y112221D01*
X80630D02*
X83780D01*
D15*
X10149Y-60948D02*
X8149D01*
X9149D01*
Y-55950D01*
X8149Y-54950D01*
X7150D01*
X6150Y-55950D01*
X12148Y-60948D02*
X16147D01*
Y-59948D01*
X12148Y-55950D01*
Y-54950D01*
D101*
X82008Y115016D02*
X81221D01*
X82008D01*
M02*
