G04*
G04 #@! TF.GenerationSoftware,Altium Limited,Altium Designer,21.9.2 (33)*
G04*
G04 Layer_Color=32768*
%FSLAX25Y25*%
%MOIN*%
G70*
G04*
G04 #@! TF.SameCoordinates,B4EE9FE0-2F64-4693-93D6-35106772D84E*
G04*
G04*
G04 #@! TF.FilePolarity,Positive*
G04*
G01*
G75*
%ADD12C,0.00787*%
%ADD14C,0.00500*%
%ADD101C,0.01181*%
%ADD103C,0.00394*%
%ADD104C,0.00000*%
%ADD105C,0.00100*%
D12*
X5933Y-51138D02*
Y-5862D01*
X35067D01*
Y-51138D02*
Y-5862D01*
X5933Y-51138D02*
X35067D01*
X65744Y-484D02*
X71256D01*
Y11484D01*
X65744D02*
X71256D01*
X65744Y-484D02*
Y11484D01*
X53744D02*
X59256D01*
X53744Y-484D02*
Y11484D01*
Y-484D02*
X59256D01*
Y11484D01*
X36512Y102623D02*
X48008D01*
X36512D02*
Y107741D01*
X48008D01*
Y102623D02*
Y107741D01*
D14*
X83780Y95488D02*
Y112221D01*
X60158Y95488D02*
X83780D01*
X60158D02*
Y112221D01*
X83780D01*
D101*
X82008Y115016D02*
X81221D01*
X82008D01*
D103*
X55957Y-2531D02*
X63043D01*
X55957Y-6469D02*
X63043D01*
Y-2531D01*
X55957Y-6469D02*
Y-2531D01*
X27457Y52969D02*
X34543D01*
X27457Y49031D02*
X34543D01*
Y52969D01*
X27457Y49031D02*
Y52969D01*
X76153Y-54772D02*
X82846D01*
X76153Y-51228D02*
X82846D01*
X76153Y-54772D02*
Y-51228D01*
X82846Y-54772D02*
Y-51228D01*
X51531Y107457D02*
X55468D01*
X51531Y114543D02*
X55468D01*
Y107457D02*
Y114543D01*
X51531Y107457D02*
Y114543D01*
X51531Y103043D02*
X55468D01*
X51531Y95957D02*
X55468D01*
X51531D02*
Y103043D01*
X55468Y95957D02*
Y103043D01*
X1693Y7457D02*
Y14543D01*
X-11693Y7457D02*
Y14543D01*
X1693D01*
X-11693Y7457D02*
X1693D01*
X55532Y-89543D02*
Y-82457D01*
X59469Y-89543D02*
Y-82457D01*
X55532D02*
X59469D01*
X55532Y-89543D02*
X59469D01*
X40031Y-90543D02*
Y-83457D01*
X43968Y-90543D02*
Y-83457D01*
X40031D02*
X43968D01*
X40031Y-90543D02*
X43968D01*
X74532D02*
Y-83457D01*
X78469Y-90543D02*
Y-83457D01*
X74532D02*
X78469D01*
X74532Y-90543D02*
X78469D01*
X91031Y-89543D02*
Y-82457D01*
X94968Y-89543D02*
Y-82457D01*
X91031D02*
X94968D01*
X91031Y-89543D02*
X94968D01*
X82846Y-60772D02*
Y-57228D01*
X76153Y-60772D02*
Y-57228D01*
X82846D01*
X76153Y-60772D02*
X82846D01*
X-4543Y1531D02*
Y5469D01*
X2543Y1531D02*
Y5469D01*
X-4543Y1531D02*
X2543D01*
X-4543Y5469D02*
X2543D01*
D104*
X11550Y9500D02*
X10950D01*
X11550D01*
D105*
X-45350Y-13050D02*
Y-3950D01*
X-38650D01*
Y-13050D02*
Y-3950D01*
X-45350Y-13050D02*
X-38650D01*
X-20050Y-9850D02*
X-10950D01*
X-20050D02*
Y-3150D01*
X-10950D01*
Y-9850D02*
Y-3150D01*
X3100Y23000D02*
X8100D01*
X4100Y20500D02*
Y25500D01*
Y23000D02*
X7100Y20500D01*
X4100Y23000D02*
X7100Y21000D01*
X4100Y23000D02*
X7100Y21500D01*
X4100Y23000D02*
X7100Y22000D01*
X4100Y23000D02*
X7100Y22500D01*
X4100Y23000D02*
X7100Y25500D01*
X4100Y23000D02*
X7100Y25000D01*
X4100Y23000D02*
X7100Y24500D01*
X4100Y23000D02*
X7100Y24000D01*
X4100Y23000D02*
X7100Y23500D01*
Y20500D02*
Y25500D01*
X10100Y28500D02*
X30900D01*
Y17500D02*
Y28500D01*
X10100Y17500D02*
X30900D01*
X10100D02*
Y28500D01*
X10250Y14800D02*
X30750D01*
Y4200D02*
Y14800D01*
X10250Y4200D02*
X30750D01*
X10250D02*
Y14800D01*
M02*
