G04*
G04 #@! TF.GenerationSoftware,Altium Limited,Altium Designer,21.9.2 (33)*
G04*
G04 Layer_Color=16711935*
%FSLAX25Y25*%
%MOIN*%
G70*
G04*
G04 #@! TF.SameCoordinates,B4EE9FE0-2F64-4693-93D6-35106772D84E*
G04*
G04*
G04 #@! TF.FilePolarity,Positive*
G04*
G01*
G75*
%ADD12C,0.00787*%
%ADD14C,0.00500*%
%ADD15C,0.01000*%
%ADD16C,0.00300*%
%ADD103C,0.00394*%
%ADD104C,0.00000*%
%ADD105C,0.00100*%
D12*
X-39500Y-3307D02*
X-40287D01*
X-39500D01*
X40539Y33831D02*
X39752D01*
X40539D01*
X17138Y5760D02*
X16350D01*
X17138D01*
X-39906Y10646D02*
Y16354D01*
X-53095D02*
X-39906D01*
X-53095Y10646D02*
Y16354D01*
Y10646D02*
X-39906D01*
X-106870Y40815D02*
X-91516D01*
Y65224D01*
X-106870D02*
X-91516D01*
X-106870Y40815D02*
Y65224D01*
D14*
X-36055Y-12953D02*
Y-1142D01*
X-24244Y-12953D02*
Y-1142D01*
X-36055D02*
X-24244D01*
X-36055Y-12953D02*
X-24244D01*
X37390Y31075D02*
Y58634D01*
X9831Y31075D02*
X37390D01*
X9831D02*
Y58634D01*
X37390D01*
X12905Y3594D02*
Y15405D01*
X1094Y3594D02*
Y15405D01*
Y3594D02*
X12905D01*
X1094Y15405D02*
X12905D01*
D15*
X-106736Y91374D02*
X-90004D01*
X-106736Y75626D02*
Y91374D01*
Y75626D02*
X-90004D01*
Y91374D01*
D16*
X45500Y-19945D02*
X48832Y-23277D01*
X45500D02*
X48832Y-19945D01*
X45500Y-21611D02*
X48832D01*
X47166Y-23277D02*
Y-19945D01*
X81750Y-39445D02*
X85082Y-42777D01*
X81750D02*
X85082Y-39445D01*
X81750Y-41111D02*
X85082D01*
X83416Y-42777D02*
Y-39445D01*
X3100Y-12365D02*
X-232Y-9033D01*
X3100D02*
X-232Y-12365D01*
X3100Y-10699D02*
X-232D01*
X1434Y-9033D02*
Y-12365D01*
D103*
X-71571Y29709D02*
X-71835Y30693D01*
X-72555Y31413D01*
X-73539Y31677D01*
X-74524Y31413D01*
X-75244Y30693D01*
X-75508Y29709D01*
X-75244Y28724D01*
X-74524Y28004D01*
X-73539Y27740D01*
X-72555Y28004D01*
X-71835Y28724D01*
X-71571Y29709D01*
X68228Y112346D02*
X71772D01*
X68228Y105654D02*
X71772D01*
Y112346D01*
X68228Y105654D02*
Y112346D01*
X42031Y-14043D02*
X45968D01*
X42031Y-6957D02*
X45968D01*
X42031Y-14043D02*
Y-6957D01*
X45968Y-14043D02*
Y-6957D01*
X40653Y16772D02*
X47346D01*
X40653Y13228D02*
X47346D01*
X40653D02*
Y16772D01*
X47346Y13228D02*
Y16772D01*
X48031Y-14043D02*
X51968D01*
X48031Y-6957D02*
X51968D01*
X48031Y-14043D02*
Y-6957D01*
X51968Y-14043D02*
Y-6957D01*
X40457Y63532D02*
X47543D01*
X40457Y67469D02*
X47543D01*
Y63532D02*
Y67469D01*
X40457Y63532D02*
Y67469D01*
X-3228Y27654D02*
Y34347D01*
X-6772Y27654D02*
Y34347D01*
X-3228D01*
X-6772Y27654D02*
X-3228D01*
X51968Y-54543D02*
Y-47457D01*
X48031Y-54543D02*
Y-47457D01*
X51968D01*
X48031Y-54543D02*
X51968D01*
X64543Y-64468D02*
Y-60532D01*
X57457Y-64468D02*
Y-60532D01*
Y-64468D02*
X64543D01*
X57457Y-60532D02*
X64543D01*
X74457Y-33031D02*
X81543D01*
X74457Y-36968D02*
X81543D01*
X74457D02*
Y-33031D01*
X81543Y-36968D02*
Y-33031D01*
X81957Y-65469D02*
X89043D01*
X81957Y-61532D02*
X89043D01*
Y-65469D02*
Y-61532D01*
X81957Y-65469D02*
Y-61532D01*
X16728Y61154D02*
Y67847D01*
X20272Y61154D02*
Y67847D01*
X16728Y61154D02*
X20272D01*
X16728Y67847D02*
X20272D01*
X40653Y32728D02*
Y36272D01*
X47346Y32728D02*
Y36272D01*
X40653D02*
X47346D01*
X40653Y32728D02*
X47346D01*
X43272Y42654D02*
Y49347D01*
X39728Y42654D02*
Y49347D01*
X43272D01*
X39728Y42654D02*
X43272D01*
X47346Y19228D02*
Y22772D01*
X40653Y19228D02*
Y22772D01*
Y19228D02*
X47346D01*
X40653Y22772D02*
X47346D01*
X-77083Y26165D02*
X-21965D01*
X-77083Y81283D02*
X-21965D01*
X-77083Y26165D02*
Y81283D01*
X-21965Y26165D02*
Y81283D01*
X-47346Y772D02*
X-40653D01*
X-47346Y-2772D02*
X-40653D01*
X-47346D02*
Y772D01*
X-40653Y-2772D02*
Y772D01*
X-12154Y-18272D02*
Y-14728D01*
X-18846Y-18272D02*
Y-14728D01*
Y-18272D02*
X-12154D01*
X-18846Y-14728D02*
X-12154D01*
X7969Y-23043D02*
Y-15957D01*
X4031Y-23043D02*
Y-15957D01*
X7969D01*
X4031Y-23043D02*
X7969D01*
X-1969Y-23043D02*
Y-15957D01*
X1969Y-23043D02*
Y-15957D01*
X-1969Y-23043D02*
X1969D01*
X-1969Y-15957D02*
X1969D01*
X-7772Y-16153D02*
X-4228D01*
X-7772Y-22847D02*
X-4228D01*
Y-16153D01*
X-7772Y-22847D02*
Y-16153D01*
X94153Y-5272D02*
X100847D01*
X94153Y-1728D02*
X100847D01*
Y-5272D02*
Y-1728D01*
X94153Y-5272D02*
Y-1728D01*
X87228Y65654D02*
X90772D01*
X87228Y72347D02*
X90772D01*
X87228Y65654D02*
Y72347D01*
X90772Y65654D02*
Y72347D01*
X-100043Y19969D02*
X-92957D01*
X-100043Y16032D02*
X-92957D01*
X-100043D02*
Y19969D01*
X-92957Y16032D02*
Y19969D01*
X-99847Y10228D02*
X-93154D01*
X-99847Y13772D02*
X-93154D01*
Y10228D02*
Y13772D01*
X-99847Y10228D02*
Y13772D01*
X-59043Y100469D02*
X-51957D01*
X-59043Y96531D02*
X-51957D01*
X-59043D02*
Y100469D01*
X-51957Y96531D02*
Y100469D01*
X-62347Y13728D02*
Y17272D01*
X-55654Y13728D02*
Y17272D01*
X-62347D02*
X-55654D01*
X-62347Y13728D02*
X-55654D01*
X63653Y-112772D02*
Y-109228D01*
X70346Y-112772D02*
Y-109228D01*
X63653D02*
X70346D01*
X63653Y-112772D02*
X70346D01*
X63653Y-100772D02*
Y-97228D01*
X70346Y-100772D02*
Y-97228D01*
X63653D02*
X70346D01*
X63653Y-100772D02*
X70346D01*
X63457Y-94968D02*
X70543D01*
X63457Y-91031D02*
X70543D01*
Y-94968D02*
Y-91031D01*
X63457Y-94968D02*
Y-91031D01*
Y-106968D02*
X70543D01*
X63457Y-103032D02*
X70543D01*
Y-106968D02*
Y-103032D01*
X63457Y-106968D02*
Y-103032D01*
X40157Y-68705D02*
X58268D01*
X40157Y-104295D02*
Y-68705D01*
Y-104295D02*
X58268D01*
Y-68705D01*
X75590Y-104295D02*
X93701D01*
Y-68705D01*
X75590D02*
X93701D01*
X75590Y-104295D02*
Y-68705D01*
X2968Y27457D02*
Y34543D01*
X-969Y27457D02*
Y34543D01*
X2968D01*
X-969Y27457D02*
X2968D01*
X12846Y19228D02*
Y22772D01*
X6154Y19228D02*
Y22772D01*
Y19228D02*
X12846D01*
X6154Y22772D02*
X12846D01*
X-12772Y22153D02*
X-9228D01*
X-12772Y28846D02*
X-9228D01*
X-12772Y22153D02*
Y28846D01*
X-9228Y22153D02*
Y28846D01*
X-5347Y20728D02*
Y24272D01*
X1347Y20728D02*
Y24272D01*
X-5347D02*
X1347D01*
X-5347Y20728D02*
X1347D01*
X6154Y25228D02*
Y28772D01*
X12846Y25228D02*
Y28772D01*
X6154D02*
X12846D01*
X6154Y25228D02*
X12846D01*
X35846Y19228D02*
Y22772D01*
X29153Y19228D02*
Y22772D01*
Y19228D02*
X35846D01*
X29153Y22772D02*
X35846D01*
X17457Y16969D02*
X24543D01*
X17457Y13032D02*
X24543D01*
X17457D02*
Y16969D01*
X24543Y13032D02*
Y16969D01*
X17457Y22968D02*
X24543D01*
X17457Y19031D02*
X24543D01*
X17457D02*
Y22968D01*
X24543Y19031D02*
Y22968D01*
X17457Y7032D02*
X24543D01*
X17457Y10968D02*
X24543D01*
Y7032D02*
Y10968D01*
X17457Y7032D02*
Y10968D01*
X-12154Y-272D02*
Y3272D01*
X-18846Y-272D02*
Y3272D01*
Y-272D02*
X-12154D01*
X-18846Y3272D02*
X-12154D01*
Y-6272D02*
Y-2728D01*
X-18846Y-6272D02*
Y-2728D01*
Y-6272D02*
X-12154D01*
X-18846Y-2728D02*
X-12154D01*
X-30847Y-20772D02*
X-24153D01*
X-30847Y-17228D02*
X-24153D01*
Y-20772D02*
Y-17228D01*
X-30847Y-20772D02*
Y-17228D01*
X-40457Y-8969D02*
Y-5032D01*
X-47543Y-8969D02*
Y-5032D01*
Y-8969D02*
X-40457D01*
X-47543Y-5032D02*
X-40457D01*
X-34957Y-20968D02*
Y-17031D01*
X-42043Y-20968D02*
Y-17031D01*
Y-20968D02*
X-34957D01*
X-42043Y-17031D02*
X-34957D01*
X-47543Y-14968D02*
Y-11032D01*
X-40457Y-14968D02*
Y-11032D01*
X-47543D02*
X-40457D01*
X-47543Y-14968D02*
X-40457D01*
X24043Y-11969D02*
Y-8032D01*
X16957Y-11969D02*
Y-8032D01*
Y-11969D02*
X24043D01*
X16957Y-8032D02*
X24043D01*
X-6272Y10654D02*
Y17346D01*
X-2728Y10654D02*
Y17346D01*
X-6272Y10654D02*
X-2728D01*
X-6272Y17346D02*
X-2728D01*
X29153Y13228D02*
X35846D01*
X29153Y16772D02*
X35846D01*
Y13228D02*
Y16772D01*
X29153Y13228D02*
Y16772D01*
Y25228D02*
X35846D01*
X29153Y28772D02*
X35846D01*
Y25228D02*
Y28772D01*
X29153Y25228D02*
Y28772D01*
X-8728Y10654D02*
Y17346D01*
X-12272Y10654D02*
Y17346D01*
X-8728D01*
X-12272Y10654D02*
X-8728D01*
X-14728D02*
Y17346D01*
X-18272Y10654D02*
Y17346D01*
X-14728D01*
X-18272Y10654D02*
X-14728D01*
X-19272Y81154D02*
Y87846D01*
X-15728Y81154D02*
Y87846D01*
X-19272Y81154D02*
X-15728D01*
X-19272Y87846D02*
X-15728D01*
X-79272Y84654D02*
Y91347D01*
X-75728Y84654D02*
Y91347D01*
X-79272Y84654D02*
X-75728D01*
X-79272Y91347D02*
X-75728D01*
X-79728Y19654D02*
Y26346D01*
X-83272Y19654D02*
Y26346D01*
X-79728D01*
X-83272Y19654D02*
X-79728D01*
X-32728Y10654D02*
Y17346D01*
X-36272Y10654D02*
Y17346D01*
X-32728D01*
X-36272Y10654D02*
X-32728D01*
X64543Y-58469D02*
Y-54532D01*
X57457Y-58469D02*
Y-54532D01*
Y-58469D02*
X64543D01*
X57457Y-54532D02*
X64543D01*
X-20728Y10654D02*
Y17346D01*
X-24272Y10654D02*
Y17346D01*
X-20728D01*
X-24272Y10654D02*
X-20728D01*
X-26728D02*
Y17346D01*
X-30272Y10654D02*
Y17346D01*
X-26728D01*
X-30272Y10654D02*
X-26728D01*
X40457Y57531D02*
Y61468D01*
X47543Y57531D02*
Y61468D01*
X40457D02*
X47543D01*
X40457Y57531D02*
X47543D01*
X93654Y-65272D02*
X100347D01*
X93654Y-61728D02*
X100347D01*
Y-65272D02*
Y-61728D01*
X93654Y-65272D02*
Y-61728D01*
X42228Y-54347D02*
Y-47653D01*
X45772Y-54347D02*
Y-47653D01*
X42228Y-54347D02*
X45772D01*
X42228Y-47653D02*
X45772D01*
X57653Y-42728D02*
X64346D01*
X57653Y-46272D02*
X64346D01*
X57653D02*
Y-42728D01*
X64346Y-46272D02*
Y-42728D01*
X57653Y-48728D02*
X64346D01*
X57653Y-52272D02*
X64346D01*
X57653D02*
Y-48728D01*
X64346Y-52272D02*
Y-48728D01*
X-51957Y90531D02*
Y94468D01*
X-59043Y90531D02*
Y94468D01*
Y90531D02*
X-51957D01*
X-59043Y94468D02*
X-51957D01*
X22728Y61154D02*
Y67847D01*
X26272Y61154D02*
Y67847D01*
X22728Y61154D02*
X26272D01*
X22728Y67847D02*
X26272D01*
X-99591Y31673D02*
X-92898D01*
X-99591Y28130D02*
X-92898D01*
X-99591D02*
Y31673D01*
X-92898Y28130D02*
Y31673D01*
X-99787Y22031D02*
Y25969D01*
X-92701Y22031D02*
Y25969D01*
X-99787D02*
X-92701D01*
X-99787Y22031D02*
X-92701D01*
X-13272Y81154D02*
Y87846D01*
X-9728Y81154D02*
Y87846D01*
X-13272Y81154D02*
X-9728D01*
X-13272Y87846D02*
X-9728D01*
X-71772Y90654D02*
Y97347D01*
X-68228Y90654D02*
Y97347D01*
X-71772Y90654D02*
X-68228D01*
X-71772Y97347D02*
X-68228D01*
D104*
X1200Y-13500D02*
X848Y-12652D01*
X0Y-12300D01*
X-848Y-12652D01*
X-1200Y-13500D01*
D105*
X44150Y-23650D02*
X49150Y-18650D01*
X59306D02*
X60505D01*
X59306D02*
X60505D01*
X57337D02*
X58537D01*
X57337D02*
X58537D01*
X55369D02*
X56568D01*
X55369D02*
X56568D01*
X53400D02*
X54600D01*
X53400D02*
X54600D01*
X51432D02*
X52631D01*
X51432D02*
X52631D01*
X49463D02*
X50663D01*
X49463D02*
X50663D01*
X47495D02*
X48695D01*
X47495D02*
X48695D01*
X44150Y-23194D02*
Y-21994D01*
Y-23194D02*
Y-21994D01*
Y-25163D02*
Y-23963D01*
Y-25163D02*
Y-23963D01*
Y-27132D02*
Y-25932D01*
Y-27132D02*
Y-25932D01*
Y-29100D02*
Y-27900D01*
Y-29100D02*
Y-27900D01*
Y-31069D02*
Y-29869D01*
Y-31069D02*
Y-29869D01*
Y-33037D02*
Y-31837D01*
Y-33037D02*
Y-31837D01*
Y-35006D02*
Y-33806D01*
Y-35006D02*
Y-33806D01*
X47495Y-38350D02*
X48695D01*
X47495D02*
X48695D01*
X49463D02*
X50663D01*
X49463D02*
X50663D01*
X51432D02*
X52631D01*
X51432D02*
X52631D01*
X53400D02*
X54600D01*
X53400D02*
X54600D01*
X55369D02*
X56568D01*
X55369D02*
X56568D01*
X57337D02*
X58537D01*
X57337D02*
X58537D01*
X59306D02*
X60505D01*
X59306D02*
X60505D01*
X63850Y-35006D02*
Y-33806D01*
Y-35006D02*
Y-33806D01*
Y-33037D02*
Y-31837D01*
Y-33037D02*
Y-31837D01*
Y-31069D02*
Y-29869D01*
Y-31069D02*
Y-29869D01*
Y-29100D02*
Y-27900D01*
Y-29100D02*
Y-27900D01*
Y-27132D02*
Y-25932D01*
Y-27132D02*
Y-25932D01*
Y-25163D02*
Y-23963D01*
Y-25163D02*
Y-23963D01*
Y-23194D02*
Y-21994D01*
Y-23194D02*
Y-21994D01*
X44150Y-38350D02*
X63850D01*
Y-18650D01*
X44150D02*
X63850D01*
X44150Y-38350D02*
Y-18650D01*
X80400Y-57850D02*
Y-38150D01*
X100100D01*
Y-57850D02*
Y-38150D01*
X80400Y-57850D02*
X100100D01*
Y-42695D02*
Y-41495D01*
Y-42695D02*
Y-41495D01*
Y-44663D02*
Y-43463D01*
Y-44663D02*
Y-43463D01*
Y-46632D02*
Y-45432D01*
Y-46632D02*
Y-45432D01*
Y-48600D02*
Y-47400D01*
Y-48600D02*
Y-47400D01*
Y-50568D02*
Y-49369D01*
Y-50568D02*
Y-49369D01*
Y-52537D02*
Y-51337D01*
Y-52537D02*
Y-51337D01*
Y-54505D02*
Y-53306D01*
Y-54505D02*
Y-53306D01*
X95556Y-57850D02*
X96755D01*
X95556D02*
X96755D01*
X93587D02*
X94787D01*
X93587D02*
X94787D01*
X91619D02*
X92818D01*
X91619D02*
X92818D01*
X89650D02*
X90850D01*
X89650D02*
X90850D01*
X87682D02*
X88881D01*
X87682D02*
X88881D01*
X85713D02*
X86913D01*
X85713D02*
X86913D01*
X83745D02*
X84944D01*
X83745D02*
X84944D01*
X80400Y-54505D02*
Y-53306D01*
Y-54505D02*
Y-53306D01*
Y-52537D02*
Y-51337D01*
Y-52537D02*
Y-51337D01*
Y-50568D02*
Y-49369D01*
Y-50568D02*
Y-49369D01*
Y-48600D02*
Y-47400D01*
Y-48600D02*
Y-47400D01*
Y-46632D02*
Y-45432D01*
Y-46632D02*
Y-45432D01*
Y-44663D02*
Y-43463D01*
Y-44663D02*
Y-43463D01*
Y-42695D02*
Y-41495D01*
Y-42695D02*
Y-41495D01*
X83745Y-38150D02*
X84944D01*
X83745D02*
X84944D01*
X85713D02*
X86913D01*
X85713D02*
X86913D01*
X87682D02*
X88881D01*
X87682D02*
X88881D01*
X89650D02*
X90850D01*
X89650D02*
X90850D01*
X91619D02*
X92818D01*
X91619D02*
X92818D01*
X93587D02*
X94787D01*
X93587D02*
X94787D01*
X95556D02*
X96755D01*
X95556D02*
X96755D01*
X80400Y-43150D02*
X85400Y-38150D01*
X41950Y24650D02*
X51050D01*
Y31350D01*
X41950D02*
X51050D01*
X41950Y24650D02*
Y31350D01*
X16450Y-1350D02*
Y5350D01*
X25550D01*
Y-1350D02*
Y5350D01*
X16450Y-1350D02*
X25550D01*
X3350Y-12139D02*
Y-10538D01*
Y-12139D02*
X5900D01*
Y-10538D01*
X3350D02*
X5900D01*
X3350Y-9579D02*
Y-7980D01*
Y-9579D02*
X5900D01*
Y-7980D01*
X3350D02*
X5900D01*
X3350Y-7021D02*
Y-5421D01*
Y-7021D02*
X5900D01*
Y-5421D01*
X3350D02*
X5900D01*
X3350Y-4462D02*
Y-2861D01*
Y-4462D02*
X5900D01*
Y-2861D01*
X3350D02*
X5900D01*
X-3350Y-4462D02*
Y-2861D01*
X-5900D02*
X-3350D01*
X-5900Y-4462D02*
Y-2861D01*
Y-4462D02*
X-3350D01*
Y-7021D02*
Y-5421D01*
X-5900D02*
X-3350D01*
X-5900Y-7021D02*
Y-5421D01*
Y-7021D02*
X-3350D01*
Y-9579D02*
Y-7980D01*
X-5900D02*
X-3350D01*
X-5900Y-9579D02*
Y-7980D01*
Y-9579D02*
X-3350D01*
Y-12139D02*
Y-10538D01*
X-5900D02*
X-3350D01*
X-5900Y-12139D02*
Y-10538D01*
Y-12139D02*
X-3350D01*
Y-1500D02*
X3350D01*
X-3350Y-13500D02*
Y-1500D01*
Y-13500D02*
X3350D01*
Y-1500D01*
M02*
