G04*
G04 #@! TF.GenerationSoftware,Altium Limited,Altium Designer,21.9.2 (33)*
G04*
G04 Layer_Color=65535*
%FSLAX25Y25*%
%MOIN*%
G70*
G04*
G04 #@! TF.SameCoordinates,B4EE9FE0-2F64-4693-93D6-35106772D84E*
G04*
G04*
G04 #@! TF.FilePolarity,Positive*
G04*
G01*
G75*
%ADD10C,0.00984*%
%ADD11C,0.02362*%
%ADD12C,0.00787*%
%ADD13C,0.00600*%
%ADD14C,0.00500*%
%ADD15C,0.01000*%
%ADD16C,0.00300*%
G36*
X52781Y-40550D02*
X51281D01*
Y-41550D01*
X52781D01*
Y-40550D01*
D02*
G37*
G36*
X66050Y-23813D02*
X67050D01*
Y-25313D01*
X66050D01*
Y-23813D01*
D02*
G37*
G36*
X89031Y-60050D02*
X87532D01*
Y-61050D01*
X89031D01*
Y-60050D01*
D02*
G37*
G36*
X102300Y-43313D02*
X103300D01*
Y-44813D01*
X102300D01*
Y-43313D01*
D02*
G37*
D10*
X-75409Y24000D02*
X-76148Y24426D01*
Y23574D01*
X-75409Y24000D01*
X-37740Y13303D02*
X-38478Y13729D01*
Y12877D01*
X-37740Y13303D01*
X-98898Y32842D02*
X-99636Y33269D01*
Y32416D01*
X-98898Y32842D01*
D11*
X-69012Y33055D02*
X-69456Y33979D01*
X-70456Y34207D01*
X-71257Y33568D01*
Y32543D01*
X-70456Y31904D01*
X-69456Y32132D01*
X-69012Y33055D01*
D12*
X-39500Y-3307D02*
X-40287D01*
X-39500D01*
X40539Y33831D02*
X39752D01*
X40539D01*
X17138Y5760D02*
X16350D01*
X17138D01*
X-74130Y29118D02*
X-24917D01*
X-74130Y78331D02*
X-24917D01*
X-74130Y29118D02*
Y78331D01*
X-24917Y29118D02*
Y78331D01*
X39764Y-104689D02*
Y-99492D01*
Y-104689D02*
X58661D01*
Y-99492D01*
X39764Y-92405D02*
Y-80594D01*
X58661Y-92405D02*
Y-80594D01*
X39764Y-73508D02*
Y-68311D01*
X58661D01*
Y-73508D02*
Y-68311D01*
X94095Y-73508D02*
Y-68311D01*
X75197D02*
X94095D01*
X75197Y-73508D02*
Y-68311D01*
X94095Y-92405D02*
Y-80594D01*
X75197Y-92405D02*
Y-80594D01*
X94095Y-104689D02*
Y-99492D01*
X75197Y-104689D02*
X94095D01*
X75197D02*
Y-99492D01*
X-39906Y10646D02*
Y16354D01*
X-53095D02*
X-52307D01*
X-40693D02*
X-39906D01*
X-53095Y10646D02*
Y16354D01*
Y10646D02*
X-52307D01*
X-40693D02*
X-39906D01*
X-106870Y40815D02*
X-102638D01*
X-95748D02*
X-91516D01*
Y63748D02*
Y65224D01*
Y40815D02*
Y57252D01*
X-106870Y65224D02*
X-102638D01*
X-95748D02*
X-91516D01*
X-106870Y48787D02*
Y65224D01*
Y40815D02*
Y42291D01*
D13*
X43650Y-18150D02*
X46284D01*
X43650Y-38850D02*
X46284D01*
X64350D02*
Y-36215D01*
X61716Y-18150D02*
X64350D01*
X43650Y-20785D02*
Y-18150D01*
Y-38850D02*
Y-36215D01*
X61716Y-38850D02*
X64350D01*
Y-20785D02*
Y-18150D01*
X100600Y-40284D02*
Y-37650D01*
X97966Y-58350D02*
X100600D01*
X79900D02*
Y-55716D01*
Y-40284D02*
Y-37650D01*
X97966D02*
X100600D01*
Y-58350D02*
Y-55716D01*
X79900Y-58350D02*
X82534D01*
X79900Y-37650D02*
X82534D01*
X45561Y24150D02*
X47439D01*
X45561Y31850D02*
X47439D01*
X20061Y5850D02*
X21939D01*
X20061Y-1850D02*
X21939D01*
X-3850Y-1000D02*
X3850D01*
X-3850Y-14000D02*
X3850D01*
D14*
X-36055Y-2323D02*
Y-1142D01*
Y-12953D02*
Y-11772D01*
X-24244Y-2323D02*
Y-1142D01*
Y-12953D02*
Y-11772D01*
X-36055Y-1142D02*
X-34874D01*
X-36055Y-12953D02*
X-34874D01*
X-25425Y-1142D02*
X-24244D01*
X-25425Y-12953D02*
X-24244D01*
X37390Y31075D02*
Y32079D01*
X36386Y31075D02*
X37390D01*
Y57630D02*
Y58634D01*
X36386D02*
X37390D01*
X9831Y57630D02*
Y58634D01*
X10835D01*
X9831Y31075D02*
Y32079D01*
Y31075D02*
X10835D01*
X12905Y3594D02*
Y4776D01*
Y14224D02*
Y15405D01*
X1094Y3594D02*
Y4776D01*
Y14224D02*
Y15405D01*
X11724Y3594D02*
X12905D01*
X11724Y15405D02*
X12905D01*
X1094Y3594D02*
X2276D01*
X1094Y15405D02*
X2276D01*
D15*
X-90004Y75626D02*
Y79169D01*
Y88008D02*
Y91374D01*
X-106736Y80658D02*
Y86520D01*
X-99244Y75626D02*
X-90004D01*
X-98716Y91374D02*
X-90004D01*
X76752Y67249D02*
X75752Y66249D01*
Y64250D01*
X76752Y63250D01*
X80750D01*
X81750Y64250D01*
Y66249D01*
X80750Y67249D01*
X76752Y69248D02*
X75752Y70248D01*
Y72247D01*
X76752Y73247D01*
X77751D01*
X78751Y72247D01*
Y71247D01*
Y72247D01*
X79751Y73247D01*
X80750D01*
X81750Y72247D01*
Y70248D01*
X80750Y69248D01*
Y75246D02*
X81750Y76246D01*
Y78245D01*
X80750Y79245D01*
X76752D01*
X75752Y78245D01*
Y76246D01*
X76752Y75246D01*
X77751D01*
X78751Y76246D01*
Y79245D01*
X60501Y-89496D02*
X66499D01*
Y-85498D01*
Y-80499D02*
Y-82499D01*
X65499Y-83498D01*
X63500D01*
X62500Y-82499D01*
Y-80499D01*
X63500Y-79500D01*
X64500D01*
Y-83498D01*
X60501Y-73502D02*
X66499D01*
Y-76501D01*
X65499Y-77500D01*
X63500D01*
X62500Y-76501D01*
Y-73502D01*
X61501Y-71502D02*
X60501Y-70503D01*
Y-68503D01*
X61501Y-67504D01*
X62500D01*
X63500Y-68503D01*
Y-69503D01*
Y-68503D01*
X64500Y-67504D01*
X65499D01*
X66499Y-68503D01*
Y-70503D01*
X65499Y-71502D01*
X74004Y-109001D02*
Y-114999D01*
X78002D01*
X83001D02*
X81001D01*
X80002Y-113999D01*
Y-112000D01*
X81001Y-111000D01*
X83001D01*
X84000Y-112000D01*
Y-113000D01*
X80002D01*
X89998Y-109001D02*
Y-114999D01*
X86999D01*
X86000Y-113999D01*
Y-112000D01*
X86999Y-111000D01*
X89998D01*
X94997Y-114999D02*
Y-109001D01*
X91998Y-112000D01*
X95996D01*
X-5999Y38216D02*
X-1D01*
Y42215D01*
Y47213D02*
Y45214D01*
X-1001Y44214D01*
X-3000D01*
X-4000Y45214D01*
Y47213D01*
X-3000Y48213D01*
X-2000D01*
Y44214D01*
X-5999Y54211D02*
X-1D01*
Y51212D01*
X-1001Y50212D01*
X-3000D01*
X-4000Y51212D01*
Y54211D01*
X-1Y60209D02*
Y56210D01*
X-4000Y60209D01*
X-4999D01*
X-5999Y59209D01*
Y57210D01*
X-4999Y56210D01*
X-104997Y4499D02*
Y-1499D01*
X-100998D01*
X-96000D02*
X-97999D01*
X-98999Y-499D01*
Y1500D01*
X-97999Y2500D01*
X-96000D01*
X-95000Y1500D01*
Y500D01*
X-98999D01*
X-89002Y4499D02*
Y-1499D01*
X-92001D01*
X-93001Y-499D01*
Y1500D01*
X-92001Y2500D01*
X-89002D01*
X-87003Y-1499D02*
X-85003D01*
X-86003D01*
Y4499D01*
X-87003Y3499D01*
X-13499Y36001D02*
X-14499Y35002D01*
Y33002D01*
X-13499Y32002D01*
X-9501D01*
X-8501Y33002D01*
Y35002D01*
X-9501Y36001D01*
X-8501Y38001D02*
Y40000D01*
Y39000D01*
X-14499D01*
X-13499Y38001D01*
X-14499Y46998D02*
X-13499Y44998D01*
X-11500Y42999D01*
X-9501D01*
X-8501Y43999D01*
Y45998D01*
X-9501Y46998D01*
X-10500D01*
X-11500Y45998D01*
Y42999D01*
X-85999Y99999D02*
X-86998Y100999D01*
X-88998D01*
X-89998Y99999D01*
Y96001D01*
X-88998Y95001D01*
X-86998D01*
X-85999Y96001D01*
X-84000Y95001D02*
X-82000D01*
X-83000D01*
Y100999D01*
X-84000Y99999D01*
X-76002Y95001D02*
Y100999D01*
X-79001Y98000D01*
X-75002D01*
X-89499Y20501D02*
X-90499Y19501D01*
Y17502D01*
X-89499Y16502D01*
X-85501D01*
X-84501Y17502D01*
Y19501D01*
X-85501Y20501D01*
X-84501Y22501D02*
Y24500D01*
Y23500D01*
X-90499D01*
X-89499Y22501D01*
Y27499D02*
X-90499Y28499D01*
Y30498D01*
X-89499Y31498D01*
X-88500D01*
X-87500Y30498D01*
Y29498D01*
Y30498D01*
X-86500Y31498D01*
X-85501D01*
X-84501Y30498D01*
Y28499D01*
X-85501Y27499D01*
X-66999Y10499D02*
X-67998Y11499D01*
X-69998D01*
X-70998Y10499D01*
Y6501D01*
X-69998Y5501D01*
X-67998D01*
X-66999Y6501D01*
X-65000Y5501D02*
X-63000D01*
X-64000D01*
Y11499D01*
X-65000Y10499D01*
X-56002Y5501D02*
X-60001D01*
X-56002Y9500D01*
Y10499D01*
X-57002Y11499D01*
X-59001D01*
X-60001Y10499D01*
D16*
X39200Y-19945D02*
X42532Y-23277D01*
X39200D02*
X42532Y-19945D01*
X39200Y-21611D02*
X42532D01*
X40866Y-23277D02*
Y-19945D01*
X75450Y-39445D02*
X78782Y-42777D01*
X75450D02*
X78782Y-39445D01*
X75450Y-41111D02*
X78782D01*
X77116Y-42777D02*
Y-39445D01*
X7575Y-16804D02*
X4243Y-13472D01*
X7575D02*
X4243Y-16804D01*
X7575Y-15138D02*
X4243D01*
X5909Y-13472D02*
Y-16804D01*
M02*
