G04*
G04 #@! TF.GenerationSoftware,Altium Limited,Altium Designer,21.9.2 (33)*
G04*
G04 Layer_Color=8388736*
%FSLAX25Y25*%
%MOIN*%
G70*
G04*
G04 #@! TF.SameCoordinates,B4EE9FE0-2F64-4693-93D6-35106772D84E*
G04*
G04*
G04 #@! TF.FilePolarity,Negative*
G04*
G01*
G75*
%ADD17R,0.04934X0.04540*%
%ADD18R,0.05131X0.04737*%
%ADD19R,0.04540X0.04934*%
G04:AMPARAMS|DCode=20|XSize=106.42mil|YSize=67.06mil|CornerRadius=18.76mil|HoleSize=0mil|Usage=FLASHONLY|Rotation=0.000|XOffset=0mil|YOffset=0mil|HoleType=Round|Shape=RoundedRectangle|*
%AMROUNDEDRECTD20*
21,1,0.10642,0.02953,0,0,0.0*
21,1,0.06890,0.06706,0,0,0.0*
1,1,0.03753,0.03445,-0.01476*
1,1,0.03753,-0.03445,-0.01476*
1,1,0.03753,-0.03445,0.01476*
1,1,0.03753,0.03445,0.01476*
%
%ADD20ROUNDEDRECTD20*%
%ADD21R,0.04737X0.05131*%
G04:AMPARAMS|DCode=22|XSize=157.61mil|YSize=157.61mil|CornerRadius=41.4mil|HoleSize=0mil|Usage=FLASHONLY|Rotation=180.000|XOffset=0mil|YOffset=0mil|HoleType=Round|Shape=RoundedRectangle|*
%AMROUNDEDRECTD22*
21,1,0.15761,0.07480,0,0,180.0*
21,1,0.07480,0.15761,0,0,180.0*
1,1,0.08280,-0.03740,0.03740*
1,1,0.08280,0.03740,0.03740*
1,1,0.08280,0.03740,-0.03740*
1,1,0.08280,-0.03740,-0.03740*
%
%ADD22ROUNDEDRECTD22*%
%ADD23R,0.03800X0.01000*%
%ADD24R,0.01000X0.03800*%
%ADD25R,0.11811X0.11811*%
%ADD26R,0.04950X0.05906*%
%ADD27O,0.01981X0.07887*%
%ADD28O,0.07887X0.01981*%
%ADD29R,0.04950X0.06299*%
%ADD30R,0.03937X0.05709*%
%ADD31R,0.06312X0.06312*%
G04:AMPARAMS|DCode=32|XSize=41.86mil|YSize=18.24mil|CornerRadius=5.28mil|HoleSize=0mil|Usage=FLASHONLY|Rotation=0.000|XOffset=0mil|YOffset=0mil|HoleType=Round|Shape=RoundedRectangle|*
%AMROUNDEDRECTD32*
21,1,0.04186,0.00768,0,0,0.0*
21,1,0.03130,0.01824,0,0,0.0*
1,1,0.01056,0.01565,-0.00384*
1,1,0.01056,-0.01565,-0.00384*
1,1,0.01056,-0.01565,0.00384*
1,1,0.01056,0.01565,0.00384*
%
%ADD32ROUNDEDRECTD32*%
G04:AMPARAMS|DCode=33|XSize=41.86mil|YSize=18.24mil|CornerRadius=5.28mil|HoleSize=0mil|Usage=FLASHONLY|Rotation=90.000|XOffset=0mil|YOffset=0mil|HoleType=Round|Shape=RoundedRectangle|*
%AMROUNDEDRECTD33*
21,1,0.04186,0.00768,0,0,90.0*
21,1,0.03130,0.01824,0,0,90.0*
1,1,0.01056,0.00384,0.01565*
1,1,0.01056,0.00384,-0.01565*
1,1,0.01056,-0.00384,-0.01565*
1,1,0.01056,-0.00384,0.01565*
%
%ADD33ROUNDEDRECTD33*%
%ADD34R,0.03950X0.01800*%
G04:AMPARAMS|DCode=35|XSize=19.81mil|YSize=41.47mil|CornerRadius=6.95mil|HoleSize=0mil|Usage=FLASHONLY|Rotation=90.000|XOffset=0mil|YOffset=0mil|HoleType=Round|Shape=RoundedRectangle|*
%AMROUNDEDRECTD35*
21,1,0.01981,0.02756,0,0,90.0*
21,1,0.00591,0.04147,0,0,90.0*
1,1,0.01391,0.01378,0.00295*
1,1,0.01391,0.01378,-0.00295*
1,1,0.01391,-0.01378,-0.00295*
1,1,0.01391,-0.01378,0.00295*
%
%ADD35ROUNDEDRECTD35*%
G04:AMPARAMS|DCode=36|XSize=25.72mil|YSize=21.78mil|CornerRadius=5.72mil|HoleSize=0mil|Usage=FLASHONLY|Rotation=0.000|XOffset=0mil|YOffset=0mil|HoleType=Round|Shape=RoundedRectangle|*
%AMROUNDEDRECTD36*
21,1,0.02572,0.01034,0,0,0.0*
21,1,0.01427,0.02178,0,0,0.0*
1,1,0.01145,0.00714,-0.00517*
1,1,0.01145,-0.00714,-0.00517*
1,1,0.01145,-0.00714,0.00517*
1,1,0.01145,0.00714,0.00517*
%
%ADD36ROUNDEDRECTD36*%
G04:AMPARAMS|DCode=37|XSize=25.72mil|YSize=21.78mil|CornerRadius=5.72mil|HoleSize=0mil|Usage=FLASHONLY|Rotation=90.000|XOffset=0mil|YOffset=0mil|HoleType=Round|Shape=RoundedRectangle|*
%AMROUNDEDRECTD37*
21,1,0.02572,0.01034,0,0,90.0*
21,1,0.01427,0.02178,0,0,90.0*
1,1,0.01145,0.00517,0.00714*
1,1,0.01145,0.00517,-0.00714*
1,1,0.01145,-0.00517,-0.00714*
1,1,0.01145,-0.00517,0.00714*
%
%ADD37ROUNDEDRECTD37*%
%ADD38R,0.01181X0.06299*%
%ADD39R,0.07887X0.05524*%
%ADD40R,0.06902X0.03162*%
%ADD41R,0.05512X0.05512*%
%ADD42C,0.05512*%
%ADD43C,0.05524*%
%ADD44C,0.03162*%
%ADD45C,0.03753*%
%ADD46C,0.04737*%
%ADD47C,0.06312*%
%ADD48C,0.03950*%
%ADD49C,0.06706*%
%ADD50C,0.10249*%
D17*
X70000Y111854D02*
D03*
Y106146D02*
D03*
X-5000Y28146D02*
D03*
Y33854D02*
D03*
X18500Y61646D02*
D03*
Y67354D02*
D03*
X41500Y48854D02*
D03*
Y43146D02*
D03*
X-6000Y-16646D02*
D03*
Y-22354D02*
D03*
X89000Y66146D02*
D03*
Y71854D02*
D03*
X-11000Y22646D02*
D03*
Y28354D02*
D03*
X-4500Y11146D02*
D03*
Y16854D02*
D03*
X-10500D02*
D03*
Y11146D02*
D03*
X-16500Y16854D02*
D03*
Y11146D02*
D03*
X-17500Y81646D02*
D03*
Y87354D02*
D03*
X-77500Y85146D02*
D03*
Y90854D02*
D03*
X-81500Y25854D02*
D03*
Y20146D02*
D03*
X-34500Y16854D02*
D03*
Y11146D02*
D03*
X-22500Y16854D02*
D03*
Y11146D02*
D03*
X-28500Y16854D02*
D03*
Y11146D02*
D03*
X44000Y-53854D02*
D03*
Y-48146D02*
D03*
X24500Y61646D02*
D03*
Y67354D02*
D03*
X-11500Y81646D02*
D03*
Y87354D02*
D03*
X-70000Y91146D02*
D03*
Y96854D02*
D03*
D18*
X44000Y-13256D02*
D03*
Y-7744D02*
D03*
X50000Y-13256D02*
D03*
Y-7744D02*
D03*
Y-48244D02*
D03*
Y-53756D02*
D03*
X6000Y-16744D02*
D03*
Y-22256D02*
D03*
X0Y-22256D02*
D03*
Y-16744D02*
D03*
X1000Y33756D02*
D03*
Y28244D02*
D03*
D19*
X41146Y15000D02*
D03*
X46854D02*
D03*
X41146Y34500D02*
D03*
X46854D02*
D03*
Y21000D02*
D03*
X41146D02*
D03*
X-46854Y-1000D02*
D03*
X-41146D02*
D03*
X-12646Y-16500D02*
D03*
X-18354D02*
D03*
X100354Y-3500D02*
D03*
X94646D02*
D03*
X-93646Y12000D02*
D03*
X-99354D02*
D03*
X-61854Y15500D02*
D03*
X-56146D02*
D03*
X64146Y-111000D02*
D03*
X69854D02*
D03*
X64146Y-99000D02*
D03*
X69854D02*
D03*
X12354Y21000D02*
D03*
X6646D02*
D03*
X-4854Y22500D02*
D03*
X854D02*
D03*
X6646Y27000D02*
D03*
X12354D02*
D03*
X35354Y21000D02*
D03*
X29646D02*
D03*
X-12646Y1500D02*
D03*
X-18354D02*
D03*
X-12646Y-4500D02*
D03*
X-18354D02*
D03*
X-24646Y-19000D02*
D03*
X-30354D02*
D03*
X35354Y15000D02*
D03*
X29646D02*
D03*
X35354Y27000D02*
D03*
X29646D02*
D03*
X99854Y-63500D02*
D03*
X94146D02*
D03*
X58146Y-44500D02*
D03*
X63854D02*
D03*
X58146Y-50500D02*
D03*
X63854D02*
D03*
X-99098Y29902D02*
D03*
X-93390D02*
D03*
D20*
X81500Y-1500D02*
D03*
Y36000D02*
D03*
D21*
X46756Y65500D02*
D03*
X41244D02*
D03*
X63756Y-62500D02*
D03*
X58244D02*
D03*
X75244Y-35000D02*
D03*
X80756D02*
D03*
X88256Y-63500D02*
D03*
X82744D02*
D03*
X58244Y-56500D02*
D03*
X-99256Y18000D02*
D03*
X-93744D02*
D03*
X-58256Y98500D02*
D03*
X-52744D02*
D03*
X69756Y-93000D02*
D03*
X64244D02*
D03*
X69756Y-105000D02*
D03*
X64244D02*
D03*
X18244Y15000D02*
D03*
X23756D02*
D03*
X18244Y21000D02*
D03*
X23756D02*
D03*
X23756Y9000D02*
D03*
X18244D02*
D03*
X-41244Y-7000D02*
D03*
X-46756D02*
D03*
X-35744Y-19000D02*
D03*
X-41256D02*
D03*
X-46756Y-13000D02*
D03*
X-41244D02*
D03*
X23256Y-10000D02*
D03*
X17744D02*
D03*
X63756Y-56500D02*
D03*
X41244Y59500D02*
D03*
X46756D02*
D03*
X-52744Y92500D02*
D03*
X-58256D02*
D03*
X-99000Y24000D02*
D03*
X-93488D02*
D03*
D22*
X23610Y44854D02*
D03*
D23*
X44850Y-22594D02*
D03*
Y-24563D02*
D03*
Y-26531D02*
D03*
Y-28500D02*
D03*
Y-30468D02*
D03*
Y-32437D02*
D03*
Y-34405D02*
D03*
X63150D02*
D03*
Y-32437D02*
D03*
Y-30468D02*
D03*
Y-28500D02*
D03*
Y-26531D02*
D03*
Y-24563D02*
D03*
Y-22594D02*
D03*
X99400Y-42094D02*
D03*
Y-44063D02*
D03*
Y-46031D02*
D03*
Y-48000D02*
D03*
Y-49968D02*
D03*
Y-51937D02*
D03*
Y-53905D02*
D03*
X81100D02*
D03*
Y-51937D02*
D03*
Y-49968D02*
D03*
Y-48000D02*
D03*
Y-46031D02*
D03*
Y-44063D02*
D03*
Y-42094D02*
D03*
D24*
X48094Y-37650D02*
D03*
X50063D02*
D03*
X52031D02*
D03*
X54000D02*
D03*
X55968D02*
D03*
X57937D02*
D03*
X59905D02*
D03*
Y-19350D02*
D03*
X57937D02*
D03*
X55968D02*
D03*
X54000D02*
D03*
X52031D02*
D03*
X50063D02*
D03*
X48094D02*
D03*
X84345Y-38850D02*
D03*
X86313D02*
D03*
X88282D02*
D03*
X90250D02*
D03*
X92219D02*
D03*
X94187D02*
D03*
X96156D02*
D03*
Y-57150D02*
D03*
X94187D02*
D03*
X92219D02*
D03*
X90250D02*
D03*
X88282D02*
D03*
X86313D02*
D03*
X84345D02*
D03*
D25*
X54000Y-28500D02*
D03*
X90250Y-48000D02*
D03*
D26*
X41875Y28000D02*
D03*
X51125D02*
D03*
D27*
X-73146Y24000D02*
D03*
X-71177D02*
D03*
X-69209D02*
D03*
X-67240D02*
D03*
X-65272D02*
D03*
X-63303D02*
D03*
X-61335D02*
D03*
X-59366D02*
D03*
X-57398D02*
D03*
X-55429D02*
D03*
X-53461D02*
D03*
X-51492D02*
D03*
X-49524D02*
D03*
X-47555D02*
D03*
X-45587D02*
D03*
X-43618D02*
D03*
X-41650D02*
D03*
X-39681D02*
D03*
X-37713D02*
D03*
X-35744D02*
D03*
X-33776D02*
D03*
X-31807D02*
D03*
X-29839D02*
D03*
X-27870D02*
D03*
X-25902D02*
D03*
Y83449D02*
D03*
X-27870D02*
D03*
X-29839D02*
D03*
X-31807D02*
D03*
X-33776D02*
D03*
X-35744D02*
D03*
X-37713D02*
D03*
X-39681D02*
D03*
X-41650D02*
D03*
X-43618D02*
D03*
X-45587D02*
D03*
X-47555D02*
D03*
X-49524D02*
D03*
X-51492D02*
D03*
X-53461D02*
D03*
X-55429D02*
D03*
X-57398D02*
D03*
X-59366D02*
D03*
X-61335D02*
D03*
X-63303D02*
D03*
X-65272D02*
D03*
X-67240D02*
D03*
X-69209D02*
D03*
X-71177D02*
D03*
X-73146D02*
D03*
D28*
X-19799Y30102D02*
D03*
Y32071D02*
D03*
Y34039D02*
D03*
Y36008D02*
D03*
Y37976D02*
D03*
Y39945D02*
D03*
Y41913D02*
D03*
Y43882D02*
D03*
Y45850D02*
D03*
Y47819D02*
D03*
Y49787D02*
D03*
Y51756D02*
D03*
Y53724D02*
D03*
Y55693D02*
D03*
Y57661D02*
D03*
Y59630D02*
D03*
Y61598D02*
D03*
Y63567D02*
D03*
Y65535D02*
D03*
Y67504D02*
D03*
Y69472D02*
D03*
Y71441D02*
D03*
Y73409D02*
D03*
Y75378D02*
D03*
Y77346D02*
D03*
X-79248D02*
D03*
Y75378D02*
D03*
Y73409D02*
D03*
Y71441D02*
D03*
Y69472D02*
D03*
Y67504D02*
D03*
Y65535D02*
D03*
Y63567D02*
D03*
Y61598D02*
D03*
Y59630D02*
D03*
Y57661D02*
D03*
Y55693D02*
D03*
Y53724D02*
D03*
Y51756D02*
D03*
Y49787D02*
D03*
Y47819D02*
D03*
Y45850D02*
D03*
Y43882D02*
D03*
Y41913D02*
D03*
Y39945D02*
D03*
Y37976D02*
D03*
Y36008D02*
D03*
Y34039D02*
D03*
Y32071D02*
D03*
Y30102D02*
D03*
D29*
X25625Y2000D02*
D03*
X16375D02*
D03*
D30*
X-99193Y67882D02*
D03*
Y38157D02*
D03*
D31*
X-30150Y-7047D02*
D03*
X7000Y9500D02*
D03*
D32*
X-24500Y-4095D02*
D03*
Y-6063D02*
D03*
Y-8032D02*
D03*
Y-10000D02*
D03*
X-35799D02*
D03*
Y-8032D02*
D03*
Y-6063D02*
D03*
Y-4095D02*
D03*
X1350Y12453D02*
D03*
X12650D02*
D03*
Y10484D02*
D03*
Y8516D02*
D03*
Y6547D02*
D03*
X1350D02*
D03*
Y8516D02*
D03*
Y10484D02*
D03*
D33*
X-33102Y-1398D02*
D03*
X-31134D02*
D03*
X-29165D02*
D03*
X-27197D02*
D03*
Y-12697D02*
D03*
X-29165D02*
D03*
X-31134D02*
D03*
X-33102D02*
D03*
X9953Y3850D02*
D03*
X7984D02*
D03*
X6016D02*
D03*
X4047Y15150D02*
D03*
X6016D02*
D03*
X7984D02*
D03*
X9953D02*
D03*
X4047Y3850D02*
D03*
D34*
X5325Y-11338D02*
D03*
Y-8779D02*
D03*
Y-6221D02*
D03*
Y-3661D02*
D03*
X-5325D02*
D03*
Y-6221D02*
D03*
Y-8779D02*
D03*
Y-11338D02*
D03*
D35*
X45945Y-75673D02*
D03*
Y-77642D02*
D03*
Y-79610D02*
D03*
Y-81579D02*
D03*
Y-83547D02*
D03*
Y-85516D02*
D03*
Y-87484D02*
D03*
Y-89453D02*
D03*
Y-91421D02*
D03*
Y-93390D02*
D03*
Y-95358D02*
D03*
Y-97327D02*
D03*
X52480D02*
D03*
Y-95358D02*
D03*
Y-93390D02*
D03*
Y-91421D02*
D03*
Y-89453D02*
D03*
Y-87484D02*
D03*
Y-85516D02*
D03*
Y-83547D02*
D03*
Y-81579D02*
D03*
Y-79610D02*
D03*
Y-77642D02*
D03*
Y-75673D02*
D03*
X87913Y-97327D02*
D03*
Y-95358D02*
D03*
Y-93390D02*
D03*
Y-91421D02*
D03*
Y-89453D02*
D03*
Y-87484D02*
D03*
Y-85516D02*
D03*
Y-83547D02*
D03*
Y-81579D02*
D03*
Y-79610D02*
D03*
Y-77642D02*
D03*
Y-75673D02*
D03*
X81378D02*
D03*
Y-77642D02*
D03*
Y-79610D02*
D03*
Y-81579D02*
D03*
Y-83547D02*
D03*
Y-85516D02*
D03*
Y-87484D02*
D03*
Y-89453D02*
D03*
Y-91421D02*
D03*
Y-93390D02*
D03*
Y-95358D02*
D03*
Y-97327D02*
D03*
D36*
X36465Y34028D02*
D03*
Y35996D02*
D03*
Y37965D02*
D03*
Y39933D02*
D03*
Y41902D02*
D03*
Y43870D02*
D03*
Y45839D02*
D03*
Y47807D02*
D03*
Y49776D02*
D03*
Y51744D02*
D03*
Y53713D02*
D03*
Y55681D02*
D03*
X10756D02*
D03*
Y53713D02*
D03*
Y51744D02*
D03*
Y49776D02*
D03*
Y47807D02*
D03*
Y45839D02*
D03*
Y43870D02*
D03*
Y41902D02*
D03*
Y39933D02*
D03*
Y37965D02*
D03*
Y35996D02*
D03*
Y34028D02*
D03*
D37*
X34437Y57709D02*
D03*
X32469D02*
D03*
X30500D02*
D03*
X28532D02*
D03*
X26563D02*
D03*
X24595D02*
D03*
X22626D02*
D03*
X20658D02*
D03*
X18689D02*
D03*
X16721D02*
D03*
X14752D02*
D03*
X12784D02*
D03*
Y32000D02*
D03*
X14752D02*
D03*
X16721D02*
D03*
X18689D02*
D03*
X20658D02*
D03*
X22626D02*
D03*
X24595D02*
D03*
X26563D02*
D03*
X28532D02*
D03*
X30500D02*
D03*
X32469D02*
D03*
X34437D02*
D03*
D38*
X-50240Y13500D02*
D03*
X-46500D02*
D03*
X-42760D02*
D03*
D39*
X-103980Y76413D02*
D03*
Y90587D02*
D03*
D40*
X-88724Y81532D02*
D03*
Y85469D02*
D03*
D41*
X25421Y-21216D02*
D03*
D42*
X15579D02*
D03*
D43*
X76181Y-95949D02*
D03*
X40748Y-77051D02*
D03*
X57677D02*
D03*
Y-95949D02*
D03*
X40748D02*
D03*
X76181Y-77051D02*
D03*
X93110D02*
D03*
Y-95949D02*
D03*
D44*
X6000Y-27500D02*
D03*
X-45500Y-13000D02*
D03*
X-36500Y-5000D02*
D03*
X51000Y53000D02*
D03*
X42000Y49500D02*
D03*
X71000Y43500D02*
D03*
Y47500D02*
D03*
X73937Y113500D02*
D03*
X70000Y106146D02*
D03*
X77874Y113500D02*
D03*
X46000Y101500D02*
D03*
X52500Y11000D02*
D03*
X56744Y-4500D02*
D03*
X47500Y-65000D02*
D03*
X46854Y15000D02*
D03*
X-16000Y87500D02*
D03*
X33776Y36676D02*
D03*
X46000Y48000D02*
D03*
X50631Y47500D02*
D03*
X54000Y45000D02*
D03*
X50000Y41000D02*
D03*
X46000Y39500D02*
D03*
X54000Y41000D02*
D03*
X-28000Y54500D02*
D03*
Y51000D02*
D03*
Y47500D02*
D03*
Y44000D02*
D03*
Y40500D02*
D03*
Y37000D02*
D03*
X-29500Y77500D02*
D03*
X-34500D02*
D03*
X0Y-9000D02*
D03*
X-19325Y-8429D02*
D03*
X-12000Y-8500D02*
D03*
X-46500Y13500D02*
D03*
X-41000Y1000D02*
D03*
X-99354Y12000D02*
D03*
X-99256Y18000D02*
D03*
X-68500Y46000D02*
D03*
X69500Y1500D02*
D03*
X72500Y5500D02*
D03*
X71000Y15000D02*
D03*
X67500D02*
D03*
X64000D02*
D03*
X-11500Y87500D02*
D03*
X0Y96000D02*
D03*
X-3000Y99500D02*
D03*
X24500Y67354D02*
D03*
X58000Y58000D02*
D03*
X33500Y50500D02*
D03*
X-32000Y-1500D02*
D03*
X74500Y-30000D02*
D03*
X87000Y-31000D02*
D03*
Y-35000D02*
D03*
X76652Y-53000D02*
D03*
X72000Y57500D02*
D03*
X68500D02*
D03*
X65000D02*
D03*
X61500D02*
D03*
X45000Y-41500D02*
D03*
X50000D02*
D03*
X50068Y-53702D02*
D03*
X50000Y-48244D02*
D03*
X66500Y-72000D02*
D03*
X80756Y-35000D02*
D03*
X71500Y-72000D02*
D03*
X46000Y-75000D02*
D03*
X49213Y-97327D02*
D03*
X15000Y54000D02*
D03*
X60500Y15000D02*
D03*
X53500D02*
D03*
X57000D02*
D03*
X94646Y-3500D02*
D03*
X-62000Y14000D02*
D03*
X41146Y34500D02*
D03*
X46854Y21000D02*
D03*
X-68366Y42000D02*
D03*
X-75500Y7500D02*
D03*
X-87000D02*
D03*
X-12646Y1500D02*
D03*
X-29000Y97500D02*
D03*
X-25000D02*
D03*
Y89500D02*
D03*
X-29000D02*
D03*
X90250Y-48000D02*
D03*
Y-52000D02*
D03*
Y-44000D02*
D03*
X94000Y-52000D02*
D03*
X86500Y-48000D02*
D03*
X94000D02*
D03*
Y-44000D02*
D03*
X86500Y-52000D02*
D03*
Y-44000D02*
D03*
X54500Y58000D02*
D03*
X-10000Y11146D02*
D03*
X-54880Y44120D02*
D03*
X-59760Y54000D02*
D03*
X-64760D02*
D03*
X-69760D02*
D03*
X23881Y21000D02*
D03*
X16379Y29545D02*
D03*
X69854Y-111000D02*
D03*
X7500Y38000D02*
D03*
Y34075D02*
D03*
X18000Y35000D02*
D03*
X22065Y29125D02*
D03*
X-73000Y38000D02*
D03*
X14000Y39000D02*
D03*
Y35000D02*
D03*
X-28500Y30000D02*
D03*
X-4500Y45500D02*
D03*
X-7500Y42500D02*
D03*
X-10500Y39500D02*
D03*
X-34500Y11000D02*
D03*
X-22500D02*
D03*
X-28500D02*
D03*
X-47000Y91000D02*
D03*
X-47244Y97500D02*
D03*
X-47500Y30000D02*
D03*
X-38000D02*
D03*
X-57000D02*
D03*
X-99000Y24000D02*
D03*
X-73000Y33500D02*
D03*
X-70000Y73500D02*
D03*
Y77500D02*
D03*
Y96854D02*
D03*
X-99098Y29902D02*
D03*
X-81500Y25854D02*
D03*
X-93390Y29902D02*
D03*
X-88724Y85469D02*
D03*
X-29165Y-12697D02*
D03*
X9000Y3500D02*
D03*
X89000Y71854D02*
D03*
X57500Y-82500D02*
D03*
X76500Y-90500D02*
D03*
X93131Y-82500D02*
D03*
X42000Y-90000D02*
D03*
X64146Y-99000D02*
D03*
X52500Y-75000D02*
D03*
X84646Y-75673D02*
D03*
Y-97327D02*
D03*
X44000Y-48000D02*
D03*
Y-54000D02*
D03*
X64000Y-44500D02*
D03*
Y-50500D02*
D03*
X6646Y21000D02*
D03*
X-11000Y22646D02*
D03*
X49787Y-28500D02*
D03*
Y-33000D02*
D03*
X58287D02*
D03*
X54000D02*
D03*
X58287Y-28500D02*
D03*
X49787Y-24000D02*
D03*
X58287D02*
D03*
X54000D02*
D03*
Y-28500D02*
D03*
X6016Y15150D02*
D03*
X23256Y-10000D02*
D03*
X22000Y35000D02*
D03*
X35354Y21000D02*
D03*
Y15000D02*
D03*
Y27000D02*
D03*
X-4854Y22500D02*
D03*
X-4500Y16854D02*
D03*
X-16500Y11146D02*
D03*
X-77500Y90854D02*
D03*
X-81500Y20146D02*
D03*
D45*
X21000Y50000D02*
D03*
X25000D02*
D03*
X29000D02*
D03*
D46*
X-30150Y-7047D02*
D03*
X5500Y-5000D02*
D03*
D47*
X-29500Y109500D02*
D03*
X-30000Y5000D02*
D03*
D48*
X-2000Y-3500D02*
D03*
D49*
X100394Y66071D02*
D03*
Y26357D02*
D03*
Y16429D02*
D03*
Y36286D02*
D03*
Y6500D02*
D03*
Y46214D02*
D03*
Y76000D02*
D03*
Y56143D02*
D03*
D50*
Y-21500D02*
D03*
X-100394D02*
D03*
Y104500D02*
D03*
X100394D02*
D03*
M02*
