G04*
G04 #@! TF.GenerationSoftware,Altium Limited,Altium Designer,21.9.2 (33)*
G04*
G04 Layer_Color=32768*
%FSLAX25Y25*%
%MOIN*%
G70*
G04*
G04 #@! TF.SameCoordinates,B4EE9FE0-2F64-4693-93D6-35106772D84E*
G04*
G04*
G04 #@! TF.FilePolarity,Positive*
G04*
G01*
G75*
%ADD12C,0.00787*%
%ADD13C,0.00600*%
%ADD103C,0.00394*%
%ADD106C,0.00197*%
G36*
X4350Y-1761D02*
X8300D01*
Y-13239D01*
X4350D01*
Y-14500D01*
X-4350D01*
Y-13239D01*
X-8300D01*
Y-1761D01*
X-4350D01*
Y-500D01*
X4350D01*
Y-1761D01*
D02*
G37*
G36*
X15450Y-2350D02*
X12900D01*
Y6350D01*
X15450D01*
D01*
X26550D01*
D01*
X29100D01*
Y-2350D01*
X26550D01*
D01*
X15450D01*
D01*
D02*
G37*
G36*
X46595Y-39350D02*
X43150D01*
Y-35906D01*
X41950D01*
Y-21094D01*
X43150D01*
Y-17650D01*
X46595D01*
Y-16450D01*
X61405D01*
Y-17650D01*
X64850D01*
Y-21094D01*
X66050D01*
Y-35906D01*
X64850D01*
Y-39350D01*
X61405D01*
Y-40550D01*
X46595D01*
Y-39350D01*
D02*
G37*
G36*
X82845Y-58850D02*
X79400D01*
Y-55405D01*
X78200D01*
Y-40595D01*
X79400D01*
Y-37150D01*
X82845D01*
Y-35950D01*
X97655D01*
Y-37150D01*
X101100D01*
Y-40595D01*
X102300D01*
Y-55405D01*
X101100D01*
Y-58850D01*
X97655D01*
Y-60050D01*
X82845D01*
Y-58850D01*
D02*
G37*
G36*
X40950Y23650D02*
X38400D01*
Y32350D01*
X40950D01*
D01*
X52050D01*
D01*
X54600D01*
Y23650D01*
X52050D01*
D01*
X40950D01*
D01*
D02*
G37*
D12*
X-39512Y9957D02*
Y17043D01*
X-53488D02*
X-39512D01*
X-53488Y9957D02*
Y17043D01*
Y9957D02*
X-39512D01*
X-107264Y34909D02*
X-91122D01*
Y71130D01*
X-107264D02*
X-91122D01*
X-107264Y34909D02*
Y71130D01*
D13*
X43150Y-39350D02*
Y-35906D01*
X41950D02*
X43150D01*
X41950D02*
Y-21094D01*
X43150D01*
Y-17650D01*
X46595D01*
Y-16450D01*
X61405D01*
Y-17650D02*
Y-16450D01*
Y-17650D02*
X64850D01*
Y-21094D02*
Y-17650D01*
Y-21094D02*
X66050D01*
Y-35906D02*
Y-21094D01*
X64850Y-35906D02*
X66050D01*
X64850Y-39350D02*
Y-35906D01*
X61405Y-39350D02*
X64850D01*
X61405Y-40550D02*
Y-39350D01*
X46595Y-40550D02*
X61405D01*
X46595D02*
Y-39350D01*
X43150D02*
X46595D01*
X79400Y-58850D02*
X82845D01*
Y-60050D02*
Y-58850D01*
Y-60050D02*
X97655D01*
Y-58850D01*
X101100D01*
Y-55405D01*
X102300D01*
Y-40595D01*
X101100D02*
X102300D01*
X101100D02*
Y-37150D01*
X97655D02*
X101100D01*
X97655D02*
Y-35950D01*
X82845D02*
X97655D01*
X82845Y-37150D02*
Y-35950D01*
X79400Y-37150D02*
X82845D01*
X79400Y-40595D02*
Y-37150D01*
X78200Y-40595D02*
X79400D01*
X78200Y-55405D02*
Y-40595D01*
Y-55405D02*
X79400D01*
Y-58850D02*
Y-55405D01*
X38400Y23650D02*
Y32350D01*
X40950D01*
X52050D02*
X54600D01*
Y23650D02*
Y32350D01*
X52050Y23650D02*
X54600D01*
X38400D02*
X40950D01*
Y32350D02*
X52050D01*
X40950Y23650D02*
X52050D01*
X15450Y-2350D02*
X26550D01*
X15450Y6350D02*
X26550D01*
X12900Y-2350D02*
X15450D01*
X26550D02*
X29100D01*
Y6350D01*
X26550D02*
X29100D01*
X12900D02*
X15450D01*
X12900Y-2350D02*
Y6350D01*
X8300Y-13239D02*
Y-1761D01*
X4350Y-13239D02*
X8300D01*
X4350Y-14500D02*
Y-13239D01*
X-4350Y-14500D02*
X4350D01*
X-4350D02*
Y-13239D01*
X-8300D02*
X-4350D01*
X-8300D02*
Y-1761D01*
X-4350D01*
Y-500D01*
X4350D01*
Y-1761D02*
Y-500D01*
Y-1761D02*
X8300D01*
D103*
X70000Y107228D02*
Y110772D01*
X68228Y109000D02*
X71772D01*
X44000Y-12468D02*
Y-8531D01*
X42031Y-10500D02*
X45968D01*
X44000Y13228D02*
Y16772D01*
X42228Y15000D02*
X45772D01*
X50000Y-12468D02*
Y-8531D01*
X48031Y-10500D02*
X51968D01*
X44000Y63532D02*
Y67469D01*
X42031Y65500D02*
X45968D01*
X-6772Y31000D02*
X-3228D01*
X-5000Y29228D02*
Y32772D01*
X48031Y-51000D02*
X51968D01*
X50000Y-52969D02*
Y-49031D01*
X59031Y-62500D02*
X62968D01*
X61000Y-64468D02*
Y-60532D01*
X78000Y-36968D02*
Y-33031D01*
X76032Y-35000D02*
X79969D01*
X85500Y-65469D02*
Y-61532D01*
X83531Y-63500D02*
X87468D01*
X16728Y64500D02*
X20272D01*
X18500Y62728D02*
Y66272D01*
X42228Y34500D02*
X45772D01*
X44000Y32728D02*
Y36272D01*
X39728Y46000D02*
X43272D01*
X41500Y44228D02*
Y47772D01*
X42228Y21000D02*
X45772D01*
X44000Y19228D02*
Y22772D01*
X-49524Y51756D02*
Y55693D01*
X-51492Y53724D02*
X-47555D01*
X-44000Y-2772D02*
Y772D01*
X-45772Y-1000D02*
X-42228D01*
X-17272Y-16500D02*
X-13728D01*
X-15500Y-18272D02*
Y-14728D01*
X4031Y-19500D02*
X7969D01*
X6000Y-21468D02*
Y-17531D01*
X-1969Y-19500D02*
X1969D01*
X0Y-21468D02*
Y-17531D01*
X-6000Y-21272D02*
Y-17728D01*
X-7772Y-19500D02*
X-4228D01*
X97500Y-5272D02*
Y-1728D01*
X95728Y-3500D02*
X99272D01*
X89000Y67228D02*
Y70772D01*
X87228Y69000D02*
X90772D01*
X-96500Y16032D02*
Y19969D01*
X-98469Y18000D02*
X-94532D01*
X-96500Y10228D02*
Y13772D01*
X-98272Y12000D02*
X-94728D01*
X-55500Y96531D02*
Y100469D01*
X-57468Y98500D02*
X-53531D01*
X-60772Y15500D02*
X-57228D01*
X-59000Y13728D02*
Y17272D01*
X65228Y-111000D02*
X68772D01*
X67000Y-112772D02*
Y-109228D01*
X65228Y-99000D02*
X68772D01*
X67000Y-100772D02*
Y-97228D01*
Y-94968D02*
Y-91031D01*
X65031Y-93000D02*
X68968D01*
X67000Y-106968D02*
Y-103032D01*
X65031Y-105000D02*
X68968D01*
X-969Y31000D02*
X2968D01*
X1000Y29032D02*
Y32969D01*
X7728Y21000D02*
X11272D01*
X9500Y19228D02*
Y22772D01*
X-11000Y23728D02*
Y27272D01*
X-12772Y25500D02*
X-9228D01*
X-3772Y22500D02*
X-228D01*
X-2000Y20728D02*
Y24272D01*
X7728Y27000D02*
X11272D01*
X9500Y25228D02*
Y28772D01*
X30728Y21000D02*
X34272D01*
X32500Y19228D02*
Y22772D01*
X21000Y13032D02*
Y16969D01*
X19031Y15000D02*
X22968D01*
X21000Y19031D02*
Y22968D01*
X19031Y21000D02*
X22968D01*
X21000Y7032D02*
Y10968D01*
X19031Y9000D02*
X22968D01*
X-17272Y1500D02*
X-13728D01*
X-15500Y-272D02*
Y3272D01*
X-17272Y-4500D02*
X-13728D01*
X-15500Y-6272D02*
Y-2728D01*
X-27500Y-20772D02*
Y-17228D01*
X-29272Y-19000D02*
X-25728D01*
X-45968Y-7000D02*
X-42031D01*
X-44000Y-8969D02*
Y-5032D01*
X-40468Y-19000D02*
X-36531D01*
X-38500Y-20968D02*
Y-17031D01*
X-45968Y-13000D02*
X-42031D01*
X-44000Y-14968D02*
Y-11032D01*
X18531Y-10000D02*
X22468D01*
X20500Y-11969D02*
Y-8032D01*
X-6272Y14000D02*
X-2728D01*
X-4500Y12228D02*
Y15772D01*
X32500Y13228D02*
Y16772D01*
X30728Y15000D02*
X34272D01*
X32500Y25228D02*
Y28772D01*
X30728Y27000D02*
X34272D01*
X-12272Y14000D02*
X-8728D01*
X-10500Y12228D02*
Y15772D01*
X-18272Y14000D02*
X-14728D01*
X-16500Y12228D02*
Y15772D01*
X-19272Y84500D02*
X-15728D01*
X-17500Y82728D02*
Y86272D01*
X-79272Y88000D02*
X-75728D01*
X-77500Y86228D02*
Y89772D01*
X-83272Y23000D02*
X-79728D01*
X-81500Y21228D02*
Y24772D01*
X-36272Y14000D02*
X-32728D01*
X-34500Y12228D02*
Y15772D01*
X59031Y-56500D02*
X62968D01*
X61000Y-58469D02*
Y-54532D01*
X-24272Y14000D02*
X-20728D01*
X-22500Y12228D02*
Y15772D01*
X-30272Y14000D02*
X-26728D01*
X-28500Y12228D02*
Y15772D01*
X42031Y59500D02*
X45968D01*
X44000Y57531D02*
Y61468D01*
X97000Y-65272D02*
Y-61728D01*
X95228Y-63500D02*
X98772D01*
X42228Y-51000D02*
X45772D01*
X44000Y-52772D02*
Y-49228D01*
X61000Y-46272D02*
Y-42728D01*
X59228Y-44500D02*
X62772D01*
X61000Y-52272D02*
Y-48728D01*
X59228Y-50500D02*
X62772D01*
X-57468Y92500D02*
X-53531D01*
X-55500Y90531D02*
Y94468D01*
X22728Y64500D02*
X26272D01*
X24500Y62728D02*
Y66272D01*
X-96244Y28130D02*
Y31673D01*
X-98016Y29902D02*
X-94472D01*
X-98213Y24000D02*
X-94276D01*
X-96244Y22031D02*
Y25969D01*
X-13272Y84500D02*
X-9728D01*
X-11500Y82728D02*
Y86272D01*
X-71772Y94000D02*
X-68228D01*
X-70000Y92228D02*
Y95772D01*
D106*
X65866Y115693D02*
X74134D01*
X65866Y102307D02*
X74134D01*
Y115693D01*
X65866Y102307D02*
Y115693D01*
X39866Y-17193D02*
X48134D01*
X39866Y-3807D02*
X48134D01*
X39866Y-17193D02*
Y-3807D01*
X48134Y-17193D02*
Y-3807D01*
X37307Y19134D02*
X50693D01*
X37307Y10866D02*
X50693D01*
X37307D02*
Y19134D01*
X50693Y10866D02*
Y19134D01*
X45866Y-17193D02*
X54134D01*
X45866Y-3807D02*
X54134D01*
X45866Y-17193D02*
Y-3807D01*
X54134Y-17193D02*
Y-3807D01*
X37307Y61366D02*
X50693D01*
X37307Y69634D02*
X50693D01*
Y61366D02*
Y69634D01*
X37307Y61366D02*
Y69634D01*
X-866Y24307D02*
Y37693D01*
X-9134Y24307D02*
Y37693D01*
X-866D01*
X-9134Y24307D02*
X-866D01*
X54134Y-57693D02*
Y-44307D01*
X45866Y-57693D02*
Y-44307D01*
X54134D01*
X45866Y-57693D02*
X54134D01*
X67693Y-66634D02*
Y-58366D01*
X54307Y-66634D02*
Y-58366D01*
Y-66634D02*
X67693D01*
X54307Y-58366D02*
X67693D01*
X71307Y-30866D02*
X84693D01*
X71307Y-39134D02*
X84693D01*
X71307D02*
Y-30866D01*
X84693Y-39134D02*
Y-30866D01*
X78807Y-67634D02*
X92193D01*
X78807Y-59366D02*
X92193D01*
Y-67634D02*
Y-59366D01*
X78807Y-67634D02*
Y-59366D01*
X14366Y57807D02*
Y71193D01*
X22634Y57807D02*
Y71193D01*
X14366Y57807D02*
X22634D01*
X14366Y71193D02*
X22634D01*
X37307Y30366D02*
Y38634D01*
X50693Y30366D02*
Y38634D01*
X37307D02*
X50693D01*
X37307Y30366D02*
X50693D01*
X45634Y39307D02*
Y52693D01*
X37366Y39307D02*
Y52693D01*
X45634D01*
X37366Y39307D02*
X45634D01*
X50693Y16866D02*
Y25134D01*
X37307Y16866D02*
Y25134D01*
Y16866D02*
X50693D01*
X37307Y25134D02*
X50693D01*
X-83776Y19472D02*
X-15272D01*
X-83776Y87976D02*
X-15272D01*
X-83776Y19472D02*
Y87976D01*
X-15272Y19472D02*
Y87976D01*
X-50693Y3134D02*
X-37307D01*
X-50693Y-5134D02*
X-37307D01*
X-50693D02*
Y3134D01*
X-37307Y-5134D02*
Y3134D01*
X-8807Y-20634D02*
Y-12366D01*
X-22193Y-20634D02*
Y-12366D01*
Y-20634D02*
X-8807D01*
X-22193Y-12366D02*
X-8807D01*
X10134Y-26193D02*
Y-12807D01*
X1866Y-26193D02*
Y-12807D01*
X10134D01*
X1866Y-26193D02*
X10134D01*
X-4134Y-26193D02*
Y-12807D01*
X4134Y-26193D02*
Y-12807D01*
X-4134Y-26193D02*
X4134D01*
X-4134Y-12807D02*
X4134D01*
X-10134Y-12807D02*
X-1866D01*
X-10134Y-26193D02*
X-1866D01*
Y-12807D01*
X-10134Y-26193D02*
Y-12807D01*
X90807Y-7634D02*
X104193D01*
X90807Y634D02*
X104193D01*
Y-7634D02*
Y634D01*
X90807Y-7634D02*
Y634D01*
X84866Y62307D02*
X93134D01*
X84866Y75693D02*
X93134D01*
X84866Y62307D02*
Y75693D01*
X93134Y62307D02*
Y75693D01*
X-103193Y22134D02*
X-89807D01*
X-103193Y13866D02*
X-89807D01*
X-103193D02*
Y22134D01*
X-89807Y13866D02*
Y22134D01*
X-103193Y7866D02*
X-89807D01*
X-103193Y16134D02*
X-89807D01*
Y7866D02*
Y16134D01*
X-103193Y7866D02*
Y16134D01*
X-62193Y102634D02*
X-48807D01*
X-62193Y94366D02*
X-48807D01*
X-62193D02*
Y102634D01*
X-48807Y94366D02*
Y102634D01*
X-21823Y-15374D02*
Y1280D01*
X-38476Y-15374D02*
Y1280D01*
X-21823D01*
X-38476Y-15374D02*
X-21823D01*
X-65693Y11366D02*
Y19634D01*
X-52307Y11366D02*
Y19634D01*
X-65693D02*
X-52307D01*
X-65693Y11366D02*
X-52307D01*
X60307Y-115134D02*
Y-106866D01*
X73693Y-115134D02*
Y-106866D01*
X60307D02*
X73693D01*
X60307Y-115134D02*
X73693D01*
X60307Y-103134D02*
Y-94866D01*
X73693Y-103134D02*
Y-94866D01*
X60307D02*
X73693D01*
X60307Y-103134D02*
X73693D01*
X60307Y-97134D02*
X73693D01*
X60307Y-88866D02*
X73693D01*
Y-97134D02*
Y-88866D01*
X60307Y-97134D02*
Y-88866D01*
Y-109134D02*
X73693D01*
X60307Y-100866D02*
X73693D01*
Y-109134D02*
Y-100866D01*
X60307Y-109134D02*
Y-100866D01*
X5134Y24307D02*
Y37693D01*
X-3134Y24307D02*
Y37693D01*
X5134D01*
X-3134Y24307D02*
X5134D01*
X16193Y16866D02*
Y25134D01*
X2807Y16866D02*
Y25134D01*
Y16866D02*
X16193D01*
X2807Y25134D02*
X16193D01*
X-15134Y18807D02*
X-6866D01*
X-15134Y32193D02*
X-6866D01*
X-15134Y18807D02*
Y32193D01*
X-6866Y18807D02*
Y32193D01*
X-8693Y18366D02*
Y26634D01*
X4693Y18366D02*
Y26634D01*
X-8693D02*
X4693D01*
X-8693Y18366D02*
X4693D01*
X8846Y59618D02*
X38374D01*
X8846Y30091D02*
Y59618D01*
Y30091D02*
X38374D01*
Y59618D01*
X2807Y22866D02*
Y31134D01*
X16193Y22866D02*
Y31134D01*
X2807D02*
X16193D01*
X2807Y22866D02*
X16193D01*
X39193Y16866D02*
Y25134D01*
X25807Y16866D02*
Y25134D01*
Y16866D02*
X39193D01*
X25807Y25134D02*
X39193D01*
X14307Y19134D02*
X27693D01*
X14307Y10866D02*
X27693D01*
X14307D02*
Y19134D01*
X27693Y10866D02*
Y19134D01*
X14307Y25134D02*
X27693D01*
X14307Y16866D02*
X27693D01*
X14307D02*
Y25134D01*
X27693Y16866D02*
Y25134D01*
X14307Y4866D02*
X27693D01*
X14307Y13134D02*
X27693D01*
Y4866D02*
Y13134D01*
X14307Y4866D02*
Y13134D01*
X-1327Y1173D02*
Y17827D01*
X15327Y1173D02*
Y17827D01*
X-1327Y1173D02*
X15327D01*
X-1327Y17827D02*
X15327D01*
X-8807Y-2634D02*
Y5634D01*
X-22193Y-2634D02*
Y5634D01*
Y-2634D02*
X-8807D01*
X-22193Y5634D02*
X-8807D01*
Y-8634D02*
Y-366D01*
X-22193Y-8634D02*
Y-366D01*
Y-8634D02*
X-8807D01*
X-22193Y-366D02*
X-8807D01*
X-34193Y-23134D02*
X-20807D01*
X-34193Y-14866D02*
X-20807D01*
Y-23134D02*
Y-14866D01*
X-34193Y-23134D02*
Y-14866D01*
X-37307Y-11134D02*
Y-2866D01*
X-50693Y-11134D02*
Y-2866D01*
Y-11134D02*
X-37307D01*
X-50693Y-2866D02*
X-37307D01*
X-31807Y-23134D02*
Y-14866D01*
X-45193Y-23134D02*
Y-14866D01*
Y-23134D02*
X-31807D01*
X-45193Y-14866D02*
X-31807D01*
X-50693Y-17134D02*
Y-8866D01*
X-37307Y-17134D02*
Y-8866D01*
X-50693D02*
X-37307D01*
X-50693Y-17134D02*
X-37307D01*
X27193Y-14134D02*
Y-5866D01*
X13807Y-14134D02*
Y-5866D01*
Y-14134D02*
X27193D01*
X13807Y-5866D02*
X27193D01*
X-8634Y7307D02*
Y20693D01*
X-366Y7307D02*
Y20693D01*
X-8634Y7307D02*
X-366D01*
X-8634Y20693D02*
X-366D01*
X25807Y10866D02*
X39193D01*
X25807Y19134D02*
X39193D01*
Y10866D02*
Y19134D01*
X25807Y10866D02*
Y19134D01*
Y22866D02*
X39193D01*
X25807Y31134D02*
X39193D01*
Y22866D02*
Y31134D01*
X25807Y22866D02*
Y31134D01*
X-6366Y7307D02*
Y20693D01*
X-14634Y7307D02*
Y20693D01*
X-6366D01*
X-14634Y7307D02*
X-6366D01*
X-12366D02*
Y20693D01*
X-20634Y7307D02*
Y20693D01*
X-12366D01*
X-20634Y7307D02*
X-12366D01*
X-21634Y77807D02*
Y91193D01*
X-13366Y77807D02*
Y91193D01*
X-21634Y77807D02*
X-13366D01*
X-21634Y91193D02*
X-13366D01*
X-81634Y81307D02*
Y94693D01*
X-73366Y81307D02*
Y94693D01*
X-81634Y81307D02*
X-73366D01*
X-81634Y94693D02*
X-73366D01*
X-77366Y16307D02*
Y29693D01*
X-85634Y16307D02*
Y29693D01*
X-77366D01*
X-85634Y16307D02*
X-77366D01*
X-30366Y7307D02*
Y20693D01*
X-38634Y7307D02*
Y20693D01*
X-30366D01*
X-38634Y7307D02*
X-30366D01*
X67693Y-60634D02*
Y-52366D01*
X54307Y-60634D02*
Y-52366D01*
Y-60634D02*
X67693D01*
X54307Y-52366D02*
X67693D01*
X-18366Y7307D02*
Y20693D01*
X-26634Y7307D02*
Y20693D01*
X-18366D01*
X-26634Y7307D02*
X-18366D01*
X-24366D02*
Y20693D01*
X-32634Y7307D02*
Y20693D01*
X-24366D01*
X-32634Y7307D02*
X-24366D01*
X37307Y55366D02*
Y63634D01*
X50693Y55366D02*
Y63634D01*
X37307D02*
X50693D01*
X37307Y55366D02*
X50693D01*
X90307Y-67634D02*
X103693D01*
X90307Y-59366D02*
X103693D01*
Y-67634D02*
Y-59366D01*
X90307Y-67634D02*
Y-59366D01*
X39866Y-57693D02*
Y-44307D01*
X48134Y-57693D02*
Y-44307D01*
X39866Y-57693D02*
X48134D01*
X39866Y-44307D02*
X48134D01*
X54307Y-40366D02*
X67693D01*
X54307Y-48634D02*
X67693D01*
X54307D02*
Y-40366D01*
X67693Y-48634D02*
Y-40366D01*
X54307Y-46366D02*
X67693D01*
X54307Y-54634D02*
X67693D01*
X54307D02*
Y-46366D01*
X67693Y-54634D02*
Y-46366D01*
X-48807Y88366D02*
Y96634D01*
X-62193Y88366D02*
Y96634D01*
Y88366D02*
X-48807D01*
X-62193Y96634D02*
X-48807D01*
X20366Y57807D02*
Y71193D01*
X28634Y57807D02*
Y71193D01*
X20366Y57807D02*
X28634D01*
X20366Y71193D02*
X28634D01*
X-102937Y34035D02*
X-89551D01*
X-102937Y25768D02*
X-89551D01*
X-102937D02*
Y34035D01*
X-89551Y25768D02*
Y34035D01*
X-102937Y19866D02*
Y28134D01*
X-89551Y19866D02*
Y28134D01*
X-102937D02*
X-89551D01*
X-102937Y19866D02*
X-89551D01*
X-15634Y77807D02*
Y91193D01*
X-7366Y77807D02*
Y91193D01*
X-15634Y77807D02*
X-7366D01*
X-15634Y91193D02*
X-7366D01*
X-74134Y87307D02*
Y100693D01*
X-65866Y87307D02*
Y100693D01*
X-74134Y87307D02*
X-65866D01*
X-74134Y100693D02*
X-65866D01*
M02*
