M48
;Layer_Color=9474304
;FILE_FORMAT=2:5
INCH,LZ
;TYPE=PLATED
T1F00S00C0.01181
T2F00S00C0.01378
T3F00S00C0.01575
T4F00S00C0.01968
T5F00S00C0.02756
T6F00S00C0.03543
T7F00S00C0.03937
T8F00S00C0.09449
%
T01
X0084646Y-0097327
Y-0075673
X0093131Y-00825
X0094Y-0052
X009025
X00865
Y-0048
X009025
X0094
Y-0044
X009025
X00865
X0087Y-0035
Y-0031
X0094646Y-00035
X00695Y00015
X00725Y00055
X00525Y0011
X0056744Y-00045
X0058287Y-0024
X0054
X0049787
Y-00285
X0054
X0058287
Y-0033
X0054
X0049787
X005Y-00415
X0045
X0044Y-0048
Y-0054
X0050068Y-0053702
X005Y-0048244
X0064Y-00505
Y-00445
X0076652Y-0053
X0080756Y-0035
X00745Y-003
X00715Y-0072
X00665
X00525Y-0075
X0046
X00475Y-0065
X00575Y-00825
X0042Y-009
X0049213Y-0097327
X0064146Y-0099
X0069854Y-0111
X00765Y-00905
X0006Y-00275
X0Y-0009
X-0012Y-00085
X-0019325Y-0008429
X-0029165Y-0012697
X-0032Y-00015
X-00365Y-0005
X-0041Y0001
X-00345Y0011
X-00285
X-00225
X-00165Y0011146
X-001
X-0012646Y00015
X0009Y00035
X0023256Y-001
X-00455Y-0013
X-00755Y00075
X-0087
X-0099354Y0012
X-0099256Y0018
X-0099Y0024
X-0099098Y0029902
X-009339
X-00815Y0025854
Y0020146
X-0088724Y0085469
X-00775Y0090854
X-007Y0096854
Y00775
Y00735
X-006976Y0054
X-006476
X-005976
X-005488Y004412
X-00685Y0046
X-0068366Y0042
X-0073Y0038
Y00335
X-0057Y003
X-00475
X-0038
X-00285
X-0028Y0037
Y00405
Y0044
Y00475
Y0051
Y00545
X-00295Y00775
X-00345
X-0029Y00895
X-0025
Y00975
X-0029
X-0047244
X-0047Y0091
X-0016Y00875
X-00115
X0Y0096
X-0003Y00995
X0046Y01015
X007Y0106146
X0073937Y01135
X0077874
X0072Y00575
X00685
X0065
X00615
X0058Y0058
X00545
X0051Y0053
X0050631Y00475
X0046Y0048
X0042Y00495
X00335Y00505
X0033776Y0036676
X0041146Y00345
X0046Y00395
X005Y0041
X0054
Y0045
X0071Y00435
Y00475
Y0015
X00675
X0064
X00605
X0057
X00535
X0046854
Y0021
X0035354
Y0015
Y0027
X0022065Y0029125
X0022Y0035
X0018
X0014
Y0039
X00075Y0038
Y0034075
X0016379Y0029545
X0023881Y0021
X0006646
X0006016Y001515
X-00045Y0016854
X-0004854Y00225
X-0011Y0022646
X-00105Y00395
X-00075Y00425
X-00045Y00455
X0015Y0054
X00245Y0067354
X-00465Y00135
X-0062Y0014
X0089Y0071854
T02
X0021Y005
X0025
X0029
T03
X-003015Y-0007047
X-0002Y-00035
T04
X00055Y-0005
T05
X009311Y-0095949
Y-0077051
X0076181
X0057677
X0040748
Y-0095949
X0057677
X0076181
T06
X-003Y0005
X0015579Y-0021216
X0025421
X-00295Y01095
T07
X0100394Y00065
Y0016429
Y0026357
Y0036286
Y0046214
Y0056143
Y0066071
Y0076
T08
X0100394Y-00215
X-0100394
Y01045
X0100394
M30
