G04*
G04 #@! TF.GenerationSoftware,Altium Limited,Altium Designer,21.9.2 (33)*
G04*
G04 Layer_Color=65535*
%FSLAX25Y25*%
%MOIN*%
G70*
G04*
G04 #@! TF.SameCoordinates,DE561362-EE76-411C-985F-06221E673FF8*
G04*
G04*
G04 #@! TF.FilePolarity,Positive*
G04*
G01*
G75*
%ADD10C,0.00984*%
%ADD11C,0.02362*%
%ADD12C,0.00787*%
%ADD13C,0.00600*%
%ADD14C,0.00100*%
%ADD15C,0.01000*%
%ADD16C,0.00500*%
%ADD17C,0.00300*%
G36*
X-3100Y35300D02*
X-4900D01*
Y35650D01*
X-3100D01*
Y35300D01*
D02*
G37*
G36*
X-6600D02*
X-8400D01*
Y35650D01*
X-6600D01*
Y35300D01*
D02*
G37*
G36*
X-3100Y34350D02*
X-4900D01*
Y34700D01*
X-3100D01*
Y34350D01*
D02*
G37*
G36*
X-6600D02*
X-8400D01*
Y34700D01*
X-6600D01*
Y34350D01*
D02*
G37*
G36*
X-10050D02*
X-10400Y34350D01*
Y35650D01*
X-10050Y35650D01*
Y34350D01*
D02*
G37*
G36*
X-11600D02*
X-11950D01*
Y35650D01*
X-11600D01*
Y34350D01*
D02*
G37*
G36*
X18900Y26800D02*
X17100D01*
Y27150D01*
X18900D01*
Y26800D01*
D02*
G37*
G36*
Y25850D02*
X17100D01*
Y26200D01*
X18900D01*
Y25850D01*
D02*
G37*
G36*
X50400Y12800D02*
X48600D01*
Y13150D01*
X50400D01*
Y12800D01*
D02*
G37*
G36*
X53950Y11850D02*
X53600Y11850D01*
Y13150D01*
X53950Y13150D01*
Y11850D01*
D02*
G37*
G36*
X52400D02*
X52050D01*
Y13150D01*
X52400D01*
Y11850D01*
D02*
G37*
G36*
X50400D02*
X48600D01*
Y12200D01*
X50400D01*
Y11850D01*
D02*
G37*
G36*
X27950D02*
X27600Y11850D01*
Y13150D01*
X27950Y13150D01*
Y11850D01*
D02*
G37*
G36*
X26400D02*
X26050D01*
Y13150D01*
X26400D01*
Y11850D01*
D02*
G37*
G36*
X-24100Y8300D02*
X-25900D01*
Y8650D01*
X-24100D01*
Y8300D01*
D02*
G37*
G36*
Y7350D02*
X-25900D01*
Y7700D01*
X-24100D01*
Y7350D01*
D02*
G37*
G36*
X-27550D02*
X-27900Y7350D01*
Y8650D01*
X-27550Y8650D01*
Y7350D01*
D02*
G37*
G36*
X-29100D02*
X-29450D01*
Y8650D01*
X-29100D01*
Y7350D01*
D02*
G37*
G36*
X-31050D02*
X-31400Y7350D01*
Y8650D01*
X-31050Y8650D01*
Y7350D01*
D02*
G37*
G36*
X-32600D02*
X-32950D01*
Y8650D01*
X-32600D01*
Y7350D01*
D02*
G37*
G36*
X-17350Y-4400D02*
X-17700D01*
Y-2600D01*
X-17350D01*
Y-4400D01*
D02*
G37*
G36*
X-18300D02*
X-18650D01*
Y-2600D01*
X-18300D01*
Y-4400D01*
D02*
G37*
G36*
X21900Y-5700D02*
X20100D01*
Y-5350D01*
X21900D01*
Y-5700D01*
D02*
G37*
G36*
X18400D02*
X16600D01*
Y-5350D01*
X18400D01*
Y-5700D01*
D02*
G37*
G36*
X21900Y-6650D02*
X20100D01*
Y-6300D01*
X21900D01*
Y-6650D01*
D02*
G37*
G36*
X18400D02*
X16600D01*
Y-6300D01*
X18400D01*
Y-6650D01*
D02*
G37*
G36*
X-17350Y-7900D02*
X-17700D01*
Y-6100D01*
X-17350D01*
Y-7900D01*
D02*
G37*
G36*
X-18300D02*
X-18650D01*
Y-6100D01*
X-18300D01*
Y-7900D01*
D02*
G37*
G36*
X-1350Y-12900D02*
X-1700D01*
Y-11100D01*
X-1350D01*
Y-12900D01*
D02*
G37*
G36*
X-2300D02*
X-2650D01*
Y-11100D01*
X-2300D01*
Y-12900D01*
D02*
G37*
G36*
X21900Y-13700D02*
X20100D01*
Y-13350D01*
X21900D01*
Y-13700D01*
D02*
G37*
G36*
X14900D02*
X13100D01*
Y-13350D01*
X14900D01*
Y-13700D01*
D02*
G37*
G36*
X21900Y-14650D02*
X20100D01*
Y-14300D01*
X21900D01*
Y-14650D01*
D02*
G37*
G36*
X18450D02*
X18100D01*
Y-13350D01*
X18450D01*
Y-14650D01*
D02*
G37*
G36*
X16900Y-13350D02*
Y-14650D01*
X16550Y-14650D01*
Y-13350D01*
X16900Y-13350D01*
D02*
G37*
G36*
X14900Y-14650D02*
X13100D01*
Y-14300D01*
X14900D01*
Y-14650D01*
D02*
G37*
G36*
X11450D02*
X11100Y-14650D01*
Y-13350D01*
X11450Y-13350D01*
Y-14650D01*
D02*
G37*
G36*
X9900D02*
X9550D01*
Y-13350D01*
X9900D01*
Y-14650D01*
D02*
G37*
G36*
X7950D02*
X7600Y-14650D01*
Y-13350D01*
X7950Y-13350D01*
Y-14650D01*
D02*
G37*
G36*
X6400D02*
X6050D01*
Y-13350D01*
X6400D01*
Y-14650D01*
D02*
G37*
G36*
X4450D02*
X4100D01*
Y-13350D01*
X4450D01*
Y-14650D01*
D02*
G37*
G36*
X2900Y-13350D02*
Y-14650D01*
X2550Y-14650D01*
Y-13350D01*
X2900Y-13350D01*
D02*
G37*
G36*
X-50850Y-15900D02*
X-51200D01*
Y-14100D01*
X-50850D01*
Y-15900D01*
D02*
G37*
G36*
X-51800D02*
X-52150D01*
Y-14100D01*
X-51800D01*
Y-15900D01*
D02*
G37*
G36*
X4400Y-21200D02*
X2600D01*
Y-20850D01*
X4400D01*
Y-21200D01*
D02*
G37*
G36*
Y-22150D02*
X2600D01*
Y-21800D01*
X4400D01*
Y-22150D01*
D02*
G37*
G36*
Y-28700D02*
X2600D01*
Y-28350D01*
X4400D01*
Y-28700D01*
D02*
G37*
G36*
Y-29650D02*
X2600D01*
Y-29300D01*
X4400D01*
Y-29650D01*
D02*
G37*
G36*
X2150Y-35400D02*
X1800D01*
Y-33600D01*
X2150D01*
Y-35400D01*
D02*
G37*
G36*
X1200D02*
X850D01*
Y-33600D01*
X1200D01*
Y-35400D01*
D02*
G37*
G36*
X-4050Y-36150D02*
X-4400D01*
Y-34850D01*
X-4050D01*
Y-36150D01*
D02*
G37*
G36*
X-5600Y-34850D02*
Y-36150D01*
X-5950Y-36150D01*
Y-34850D01*
X-5600Y-34850D01*
D02*
G37*
G36*
X-7550Y-36150D02*
X-7900D01*
Y-34850D01*
X-7550D01*
Y-36150D01*
D02*
G37*
G36*
X-9100Y-34850D02*
Y-36150D01*
X-9450Y-36150D01*
Y-34850D01*
X-9100Y-34850D01*
D02*
G37*
G36*
X-11050Y-36150D02*
X-11400D01*
Y-34850D01*
X-11050D01*
Y-36150D01*
D02*
G37*
G36*
X-12600Y-34850D02*
Y-36150D01*
X-12950Y-36150D01*
Y-34850D01*
X-12600Y-34850D01*
D02*
G37*
G36*
X14200Y-37400D02*
X13700D01*
Y-32600D01*
X14200D01*
Y-37400D01*
D02*
G37*
G36*
X12300D02*
X11800D01*
Y-32600D01*
X12300D01*
Y-37400D01*
D02*
G37*
D10*
X15575Y25945D02*
X14837Y26371D01*
Y25519D01*
X15575Y25945D01*
X17000Y34803D02*
X16262Y35229D01*
Y34377D01*
X17000Y34803D01*
X-44705Y-20177D02*
X-45443Y-19751D01*
Y-20603D01*
X-44705Y-20177D01*
D11*
X9571Y16890D02*
X9126Y17813D01*
X8127Y18041D01*
X7326Y17402D01*
Y16377D01*
X8127Y15738D01*
X9126Y15966D01*
X9571Y16890D01*
D12*
X-16240Y-20260D02*
X-17028D01*
X-16240D01*
X-9327Y20827D02*
X12327D01*
X-9327Y-827D02*
X12327D01*
Y20827D01*
X-9327Y-827D02*
Y20827D01*
X14047Y32146D02*
X14835D01*
X1646D02*
X2433D01*
X1646D02*
Y37854D01*
X14047D02*
X14835D01*
X1646D02*
X2433D01*
X14835Y32146D02*
Y37854D01*
X-52677Y-12205D02*
Y-10728D01*
Y-4232D02*
Y12205D01*
X-41555D02*
X-37323D01*
X-52677D02*
X-48445D01*
X-37323Y-12205D02*
Y4232D01*
Y10728D02*
Y12205D01*
X-41555Y-12205D02*
X-37323D01*
X-52677D02*
X-48445D01*
D13*
X44800Y-23250D02*
X44200D01*
X44800D01*
X30500Y5900D02*
X40953D01*
X30500Y16960D02*
Y19100D01*
X40953D01*
X30500Y5900D02*
Y8040D01*
X9150Y-31500D02*
X16850D01*
X9150Y-18500D02*
X16850D01*
X-24040Y-12500D02*
X-21900D01*
X-35100D02*
Y-2047D01*
Y-12500D02*
X-32960D01*
X-21900D02*
Y-2047D01*
X38700Y2750D02*
X40040D01*
X48960Y-18750D02*
X50300D01*
X38700D02*
X40040D01*
X38700D02*
Y2750D01*
X48960D02*
X50300D01*
Y-18750D02*
Y2750D01*
X34875Y-18900D02*
X36315D01*
X24315D02*
X25755D01*
X24315D02*
Y2900D01*
X34875D02*
X36315D01*
Y-18900D02*
Y2900D01*
X27815Y-21400D02*
X32815D01*
X30315Y-24400D02*
X30815Y-21400D01*
X30315Y-24400D02*
X31315Y-21400D01*
X30315Y-24400D02*
X31815Y-21400D01*
X30315Y-24400D02*
X32315Y-21400D01*
X30315Y-24400D02*
X32815Y-21400D01*
X29815D02*
X30315Y-24400D01*
X29315Y-21400D02*
X30315Y-24400D01*
X28815Y-21400D02*
X30315Y-24400D01*
X28315Y-21400D02*
X30315Y-24400D01*
X27815Y-21400D02*
X30315Y-24400D01*
X27815D02*
X32815D01*
X30315Y-25400D02*
Y-20400D01*
X24315Y2900D02*
X25755D01*
D14*
X20100Y-14650D02*
Y-14300D01*
X21900Y-14650D02*
Y-14300D01*
X20100D02*
X21900D01*
X20100Y-14650D02*
X21900D01*
X20100Y-13350D02*
X21900D01*
X20100Y-13700D02*
X21900D01*
X20100D02*
Y-13350D01*
X21900Y-13700D02*
Y-13350D01*
X18400Y-5700D02*
Y-5350D01*
X16600Y-5700D02*
Y-5350D01*
Y-5700D02*
X18400D01*
X16600Y-5350D02*
X18400D01*
X16600Y-6650D02*
X18400D01*
X16600Y-6300D02*
X18400D01*
Y-6650D02*
Y-6300D01*
X16600Y-6650D02*
Y-6300D01*
X-52150Y-14100D02*
X-51800D01*
X-52150Y-15900D02*
X-51800D01*
Y-14100D01*
X-52150Y-15900D02*
Y-14100D01*
X-50850Y-15900D02*
Y-14100D01*
X-51200Y-15900D02*
Y-14100D01*
X-50850D01*
X-51200Y-15900D02*
X-50850D01*
X-11950Y34350D02*
Y35650D01*
X-11600D01*
Y34350D02*
Y35650D01*
X-11950Y34350D02*
X-11600D01*
X-10400Y35650D02*
X-10050Y35650D01*
X-10400Y34350D02*
Y35650D01*
Y34350D02*
X-10050Y34350D01*
Y35650D01*
X21900Y-5700D02*
Y-5350D01*
X20100Y-5700D02*
Y-5350D01*
Y-5700D02*
X21900D01*
X20100Y-5350D02*
X21900D01*
X20100Y-6650D02*
X21900D01*
X20100Y-6300D02*
X21900D01*
Y-6650D02*
Y-6300D01*
X20100Y-6650D02*
Y-6300D01*
X53950Y11850D02*
Y13150D01*
X53600Y11850D02*
X53950Y11850D01*
X53600Y11850D02*
Y13150D01*
X53950Y13150D01*
X52050Y11850D02*
X52400D01*
Y13150D01*
X52050D02*
X52400D01*
X52050Y11850D02*
Y13150D01*
X-31050Y7350D02*
Y8650D01*
X-31400Y7350D02*
X-31050Y7350D01*
X-31400Y7350D02*
Y8650D01*
X-31050Y8650D01*
X-32950Y7350D02*
X-32600D01*
Y8650D01*
X-32950D02*
X-32600D01*
X-32950Y7350D02*
Y8650D01*
X48600Y11850D02*
Y12200D01*
X50400Y11850D02*
Y12200D01*
X48600D02*
X50400D01*
X48600Y11850D02*
X50400D01*
X48600Y13150D02*
X50400D01*
X48600Y12800D02*
X50400D01*
X48600D02*
Y13150D01*
X50400Y12800D02*
Y13150D01*
X27950Y11850D02*
Y13150D01*
X27600Y11850D02*
X27950Y11850D01*
X27600Y11850D02*
Y13150D01*
X27950Y13150D01*
X26050Y11850D02*
X26400D01*
Y13150D01*
X26050D02*
X26400D01*
X26050Y11850D02*
Y13150D01*
X-2650Y-11100D02*
X-2300D01*
X-2650Y-12900D02*
X-2300D01*
Y-11100D01*
X-2650Y-12900D02*
Y-11100D01*
X-1350Y-12900D02*
Y-11100D01*
X-1700Y-12900D02*
Y-11100D01*
X-1350D01*
X-1700Y-12900D02*
X-1350D01*
X16550Y-14650D02*
Y-13350D01*
X16900Y-13350D01*
Y-14650D02*
Y-13350D01*
X16550Y-14650D02*
X16900Y-14650D01*
X18100Y-13350D02*
X18450D01*
X18100Y-14650D02*
Y-13350D01*
Y-14650D02*
X18450D01*
Y-13350D01*
X14900Y-13700D02*
Y-13350D01*
X13100Y-13700D02*
Y-13350D01*
Y-13700D02*
X14900D01*
X13100Y-13350D02*
X14900D01*
X13100Y-14650D02*
X14900D01*
X13100Y-14300D02*
X14900D01*
Y-14650D02*
Y-14300D01*
X13100Y-14650D02*
Y-14300D01*
X11450Y-14650D02*
Y-13350D01*
X11100Y-14650D02*
X11450Y-14650D01*
X11100Y-14650D02*
Y-13350D01*
X11450Y-13350D01*
X9550Y-14650D02*
X9900D01*
Y-13350D01*
X9550D02*
X9900D01*
X9550Y-14650D02*
Y-13350D01*
X7950Y-14650D02*
Y-13350D01*
X7600Y-14650D02*
X7950Y-14650D01*
X7600Y-14650D02*
Y-13350D01*
X7950Y-13350D01*
X6050Y-14650D02*
X6400D01*
Y-13350D01*
X6050D02*
X6400D01*
X6050Y-14650D02*
Y-13350D01*
X2550Y-14650D02*
Y-13350D01*
X2900Y-13350D01*
Y-14650D02*
Y-13350D01*
X2550Y-14650D02*
X2900Y-14650D01*
X4100Y-13350D02*
X4450D01*
X4100Y-14650D02*
Y-13350D01*
Y-14650D02*
X4450D01*
Y-13350D01*
X-5950Y-36150D02*
Y-34850D01*
X-5600Y-34850D01*
Y-36150D02*
Y-34850D01*
X-5950Y-36150D02*
X-5600Y-36150D01*
X-4400Y-34850D02*
X-4050D01*
X-4400Y-36150D02*
Y-34850D01*
Y-36150D02*
X-4050D01*
Y-34850D01*
X4400Y-21200D02*
Y-20850D01*
X2600Y-21200D02*
Y-20850D01*
Y-21200D02*
X4400D01*
X2600Y-20850D02*
X4400D01*
X2600Y-22150D02*
X4400D01*
X2600Y-21800D02*
X4400D01*
Y-22150D02*
Y-21800D01*
X2600Y-22150D02*
Y-21800D01*
X850Y-33600D02*
X1200D01*
X850Y-35400D02*
X1200D01*
Y-33600D01*
X850Y-35400D02*
Y-33600D01*
X2150Y-35400D02*
Y-33600D01*
X1800Y-35400D02*
Y-33600D01*
X2150D01*
X1800Y-35400D02*
X2150D01*
X17100Y25850D02*
Y26200D01*
X18900Y25850D02*
Y26200D01*
X17100D02*
X18900D01*
X17100Y25850D02*
X18900D01*
X17100Y27150D02*
X18900D01*
X17100Y26800D02*
X18900D01*
X17100D02*
Y27150D01*
X18900Y26800D02*
Y27150D01*
X-24100Y8300D02*
Y8650D01*
X-25900Y8300D02*
Y8650D01*
Y8300D02*
X-24100D01*
X-25900Y8650D02*
X-24100D01*
X-25900Y7350D02*
X-24100D01*
X-25900Y7700D02*
X-24100D01*
Y7350D02*
Y7700D01*
X-25900Y7350D02*
Y7700D01*
X-27550Y7350D02*
Y8650D01*
X-27900Y7350D02*
X-27550Y7350D01*
X-27900Y7350D02*
Y8650D01*
X-27550Y8650D01*
X-29450Y7350D02*
X-29100D01*
Y8650D01*
X-29450D02*
X-29100D01*
X-29450Y7350D02*
Y8650D01*
X-4900Y34350D02*
Y34700D01*
X-3100Y34350D02*
Y34700D01*
X-4900D02*
X-3100D01*
X-4900Y34350D02*
X-3100D01*
X-4900Y35650D02*
X-3100D01*
X-4900Y35300D02*
X-3100D01*
X-4900D02*
Y35650D01*
X-3100Y35300D02*
Y35650D01*
X-8400Y34350D02*
Y34700D01*
X-6600Y34350D02*
Y34700D01*
X-8400D02*
X-6600D01*
X-8400Y34350D02*
X-6600D01*
X-8400Y35650D02*
X-6600D01*
X-8400Y35300D02*
X-6600D01*
X-8400D02*
Y35650D01*
X-6600Y35300D02*
Y35650D01*
X-17700Y-4400D02*
X-17350D01*
X-17700Y-2600D02*
X-17350D01*
X-17700Y-4400D02*
Y-2600D01*
X-17350Y-4400D02*
Y-2600D01*
X-18650Y-4400D02*
Y-2600D01*
X-18300Y-4400D02*
Y-2600D01*
X-18650Y-4400D02*
X-18300D01*
X-18650Y-2600D02*
X-18300D01*
X-17700Y-7900D02*
X-17350D01*
X-17700Y-6100D02*
X-17350D01*
X-17700Y-7900D02*
Y-6100D01*
X-17350Y-7900D02*
Y-6100D01*
X-18650Y-7900D02*
Y-6100D01*
X-18300Y-7900D02*
Y-6100D01*
X-18650Y-7900D02*
X-18300D01*
X-18650Y-6100D02*
X-18300D01*
X13700Y-37400D02*
X14200D01*
X13700Y-32600D02*
X14200D01*
X13700Y-37400D02*
Y-32600D01*
X14200Y-37400D02*
Y-32600D01*
X11800Y-37400D02*
Y-32600D01*
X12300Y-37400D02*
Y-32600D01*
X11800D02*
X12300D01*
X11800Y-37400D02*
X12300D01*
X-7550Y-36150D02*
Y-34850D01*
X-7900Y-36150D02*
X-7550D01*
X-7900D02*
Y-34850D01*
X-7550D01*
X-9450Y-36150D02*
X-9100Y-36150D01*
Y-34850D01*
X-9450Y-34850D02*
X-9100Y-34850D01*
X-9450Y-36150D02*
Y-34850D01*
X-11050Y-36150D02*
Y-34850D01*
X-11400Y-36150D02*
X-11050D01*
X-11400D02*
Y-34850D01*
X-11050D01*
X-12950Y-36150D02*
X-12600Y-36150D01*
Y-34850D01*
X-12950Y-34850D02*
X-12600Y-34850D01*
X-12950Y-36150D02*
Y-34850D01*
X4400Y-28700D02*
Y-28350D01*
X2600Y-28700D02*
Y-28350D01*
Y-28700D02*
X4400D01*
X2600Y-28350D02*
X4400D01*
X2600Y-29650D02*
X4400D01*
X2600Y-29300D02*
X4400D01*
Y-29650D02*
Y-29300D01*
X2600Y-29650D02*
Y-29300D01*
D15*
X61004Y1626D02*
X69717D01*
X61004Y17374D02*
X70244D01*
X77736Y6480D02*
Y12342D01*
X61004Y1626D02*
Y4992D01*
Y13831D02*
Y17374D01*
Y-5669D02*
Y-2126D01*
Y-17874D02*
Y-14508D01*
X77736Y-13020D02*
Y-7158D01*
X61004Y-2126D02*
X70244D01*
X61004Y-17874D02*
X69717D01*
X-60004Y-7874D02*
Y-4331D01*
Y4508D02*
Y7874D01*
X-76736Y-2843D02*
Y3020D01*
X-69244Y-7874D02*
X-60004D01*
X-68717Y7874D02*
X-60004D01*
D16*
X-12795Y-19276D02*
Y-18094D01*
Y-29906D02*
Y-28724D01*
X-984Y-19276D02*
Y-18094D01*
Y-29906D02*
Y-28724D01*
X-12795Y-18094D02*
X-11614D01*
X-12795Y-29906D02*
X-11614D01*
X-2165Y-18094D02*
X-984D01*
X-2165Y-29906D02*
X-984D01*
D17*
X5425Y-15696D02*
X8757Y-19028D01*
X5425D02*
X8757Y-15696D01*
X5425Y-17362D02*
X8757D01*
X7091Y-19028D02*
Y-15696D01*
M02*
