G04*
G04 #@! TF.GenerationSoftware,Altium Limited,Altium Designer,21.9.2 (33)*
G04*
G04 Layer_Color=16711935*
%FSLAX25Y25*%
%MOIN*%
G70*
G04*
G04 #@! TF.SameCoordinates,DE561362-EE76-411C-985F-06221E673FF8*
G04*
G04*
G04 #@! TF.FilePolarity,Positive*
G04*
G01*
G75*
%ADD12C,0.00787*%
%ADD14C,0.00100*%
%ADD15C,0.01000*%
%ADD16C,0.00500*%
%ADD17C,0.00300*%
%ADD83C,0.00394*%
%ADD84C,0.00000*%
%ADD85C,0.00200*%
D12*
X-16240Y-20260D02*
X-17028D01*
X-16240D01*
X1646Y32146D02*
X14835D01*
X1646D02*
Y37854D01*
X14835D01*
Y32146D02*
Y37854D01*
X-52677Y-12205D02*
Y12205D01*
X-37323D01*
Y-12205D02*
Y12205D01*
X-52677Y-12205D02*
X-37323D01*
D14*
X31000Y6400D02*
X46000D01*
X31000D02*
Y18600D01*
X46000D01*
Y6400D02*
Y18600D01*
X9650Y-21961D02*
Y-20361D01*
X7100D02*
X9650D01*
X7100Y-21961D02*
Y-20361D01*
Y-21961D02*
X9650D01*
Y-24521D02*
Y-22920D01*
X7100D02*
X9650D01*
X7100Y-24521D02*
Y-22920D01*
Y-24521D02*
X9650D01*
Y-27079D02*
Y-25480D01*
X7100D02*
X9650D01*
X7100Y-27079D02*
Y-25480D01*
Y-27079D02*
X9650D01*
Y-29638D02*
Y-28038D01*
X7100D02*
X9650D01*
X7100Y-29638D02*
Y-28038D01*
Y-29638D02*
X9650D01*
X16350D02*
Y-28038D01*
Y-29638D02*
X18900D01*
Y-28038D01*
X16350D02*
X18900D01*
X16350Y-27079D02*
Y-25480D01*
Y-27079D02*
X18900D01*
Y-25480D01*
X16350D02*
X18900D01*
X16350Y-24521D02*
Y-22920D01*
Y-24521D02*
X18900D01*
Y-22920D01*
X16350D02*
X18900D01*
X16350Y-21961D02*
Y-20361D01*
Y-21961D02*
X18900D01*
Y-20361D01*
X16350D02*
X18900D01*
X9650Y-31000D02*
X16350D01*
Y-19000D01*
X9650D02*
X16350D01*
X9650Y-31000D02*
Y-19000D01*
X-34600Y3000D02*
X-22400D01*
X-34600Y-12000D02*
Y3000D01*
Y-12000D02*
X-22400D01*
Y3000D01*
X39200Y-18250D02*
X49800D01*
X39200D02*
Y2250D01*
X49800D01*
Y-18250D02*
Y2250D01*
X24815Y-18400D02*
X35815D01*
X24815D02*
Y2400D01*
X35815D01*
Y-18400D02*
Y2400D01*
X27815Y-21400D02*
X32815D01*
X30315Y-24400D02*
X30815Y-21400D01*
X30315Y-24400D02*
X31315Y-21400D01*
X30315Y-24400D02*
X31815Y-21400D01*
X30315Y-24400D02*
X32315Y-21400D01*
X30315Y-24400D02*
X32815Y-21400D01*
X29815D02*
X30315Y-24400D01*
X29315Y-21400D02*
X30315Y-24400D01*
X28815Y-21400D02*
X30315Y-24400D01*
X28315Y-21400D02*
X30315Y-24400D01*
X27815Y-21400D02*
X30315Y-24400D01*
X27815D02*
X32815D01*
X30315Y-25400D02*
Y-20400D01*
D15*
X61004Y1626D02*
Y17374D01*
X77736D01*
Y1626D02*
Y17374D01*
X61004Y1626D02*
X77736D01*
X61004Y-17874D02*
X77736D01*
Y-2126D01*
X61004D02*
X77736D01*
X61004Y-17874D02*
Y-2126D01*
X-76736Y7874D02*
X-60004D01*
X-76736Y-7874D02*
Y7874D01*
Y-7874D02*
X-60004D01*
Y7874D01*
D16*
X-12795Y-29906D02*
Y-18094D01*
X-984Y-29906D02*
Y-18094D01*
X-12795D02*
X-984D01*
X-12795Y-29906D02*
X-984D01*
D17*
X9900Y-20135D02*
X13232Y-23467D01*
X9900D02*
X13232Y-20135D01*
X9900Y-21801D02*
X13232D01*
X11566Y-23467D02*
Y-20135D01*
D83*
X13705Y20236D02*
X13441Y21220D01*
X12720Y21941D01*
X11736Y22205D01*
X10752Y21941D01*
X10031Y21220D01*
X9768Y20236D01*
X10031Y19252D01*
X10752Y18531D01*
X11736Y18268D01*
X12720Y18531D01*
X13441Y19252D01*
X13705Y20236D01*
X-17772Y29653D02*
X-14228D01*
X-17772Y36347D02*
X-14228D01*
X-17772Y29653D02*
Y36347D01*
X-14228Y29653D02*
Y36347D01*
X-12280Y23779D02*
X15280D01*
X-12280Y-3779D02*
X15280D01*
Y23779D01*
X-12280Y-3779D02*
Y23779D01*
D84*
X11800Y-19000D02*
X12151Y-19849D01*
X13000Y-20200D01*
X13848Y-19849D01*
X14200Y-19000D01*
X44800Y-17250D02*
X44200D01*
X44800D01*
D85*
X20016Y-15969D02*
X21984D01*
X20016Y-12032D02*
X21984D01*
X20016Y-15969D02*
Y-12032D01*
X21984Y-15969D02*
Y-12032D01*
X20400Y-14000D02*
X21600D01*
X21000Y-14600D02*
Y-13400D01*
X16516Y-4031D02*
X18484D01*
X16516Y-7969D02*
X18484D01*
X18484D02*
Y-4031D01*
X16516Y-7969D02*
Y-4031D01*
X16900Y-6000D02*
X18100D01*
X17500Y-6600D02*
Y-5400D01*
X-53469Y-15984D02*
Y-14016D01*
X-49531Y-15984D02*
Y-14016D01*
X-53469Y-14016D02*
X-49531D01*
X-53469Y-15984D02*
X-49531D01*
X-51500Y-15600D02*
Y-14400D01*
X-52100Y-15000D02*
X-50900D01*
X-11000Y34400D02*
Y35600D01*
X-11600Y35000D02*
X-10400D01*
X-10016Y33031D02*
Y36968D01*
X-11984Y33031D02*
Y36968D01*
X-11984D02*
X-10016D01*
X-11984Y33031D02*
X-10016D01*
X20016Y-4031D02*
X21984D01*
X20016Y-7969D02*
X21984D01*
X21984D02*
Y-4031D01*
X20016Y-7969D02*
Y-4031D01*
X20400Y-6000D02*
X21600D01*
X21000Y-6600D02*
Y-5400D01*
X52016Y10531D02*
X53984D01*
X52016Y14469D02*
X53984D01*
X52016Y10531D02*
Y14469D01*
X53984Y10531D02*
Y14469D01*
X52400Y12500D02*
X53600D01*
X53000Y11900D02*
Y13100D01*
X-32984Y6032D02*
X-31016D01*
X-32984Y9968D02*
X-31016D01*
X-32984Y6032D02*
Y9968D01*
X-31016Y6032D02*
Y9968D01*
X-32600Y8000D02*
X-31400D01*
X-32000Y7400D02*
Y8600D01*
X49500Y11900D02*
Y13100D01*
X48900Y12500D02*
X50100D01*
X48516Y10531D02*
Y14469D01*
X50484Y10531D02*
Y14469D01*
X48516Y10531D02*
X50484D01*
X48516Y14469D02*
X50484D01*
X26016Y10531D02*
X27984D01*
X26016Y14469D02*
X27984D01*
X26016Y10531D02*
Y14469D01*
X27984Y10531D02*
Y14469D01*
X26400Y12500D02*
X27600D01*
X27000Y11900D02*
Y13100D01*
X-2600Y-12000D02*
X-1400D01*
X-2000Y-12600D02*
Y-11400D01*
X-3968Y-11016D02*
X-32D01*
X-3968Y-12984D02*
X-32D01*
X-3968Y-12984D02*
Y-11016D01*
X-32Y-12984D02*
Y-11016D01*
X16516Y-12032D02*
X18484D01*
X16516Y-15969D02*
X18484D01*
X18484D02*
Y-12032D01*
X16516Y-15969D02*
Y-12032D01*
X16900Y-14000D02*
X18100D01*
X17500Y-14600D02*
Y-13400D01*
X14000Y-14600D02*
Y-13400D01*
X13400Y-14000D02*
X14600D01*
X14984Y-15969D02*
Y-12032D01*
X13016Y-15969D02*
Y-12032D01*
X13016D02*
X14984D01*
X13016Y-15969D02*
X14984D01*
X9516D02*
X11484D01*
X9516Y-12032D02*
X11484D01*
X9516Y-15969D02*
Y-12032D01*
X11484Y-15969D02*
Y-12032D01*
X9900Y-14000D02*
X11100D01*
X10500Y-14600D02*
Y-13400D01*
X6016Y-15969D02*
X7984D01*
X6016Y-12032D02*
X7984D01*
X6016Y-15969D02*
Y-12032D01*
X7984Y-15969D02*
Y-12032D01*
X6400Y-14000D02*
X7600D01*
X7000Y-14600D02*
Y-13400D01*
X2516Y-12032D02*
X4484D01*
X2516Y-15969D02*
X4484D01*
X4484D02*
Y-12032D01*
X2516Y-15969D02*
Y-12032D01*
X2900Y-14000D02*
X4100D01*
X3500Y-14600D02*
Y-13400D01*
X-5984Y-33531D02*
X-4016D01*
X-5984Y-37468D02*
X-4016D01*
X-4016D02*
Y-33531D01*
X-5984Y-37468D02*
Y-33531D01*
X-5600Y-35500D02*
X-4400D01*
X-5000Y-36100D02*
Y-34900D01*
X3500Y-22100D02*
Y-20900D01*
X2900Y-21500D02*
X4100D01*
X4484Y-23469D02*
Y-19532D01*
X2516Y-23469D02*
Y-19532D01*
X2516D02*
X4484D01*
X2516Y-23469D02*
X4484D01*
X900Y-34500D02*
X2100D01*
X1500Y-35100D02*
Y-33900D01*
X-469Y-33516D02*
X3469D01*
X-469Y-35484D02*
X3469D01*
X-469Y-35484D02*
Y-33516D01*
X3469Y-35484D02*
Y-33516D01*
X18000Y25900D02*
Y27100D01*
X17400Y26500D02*
X18600D01*
X17016Y24532D02*
Y28468D01*
X18984Y24532D02*
Y28468D01*
X17016Y24532D02*
X18984D01*
X17016Y28468D02*
X18984D01*
X-25000Y7400D02*
Y8600D01*
X-25600Y8000D02*
X-24400D01*
X-24016Y6032D02*
Y9968D01*
X-25984Y6032D02*
Y9968D01*
X-25984D02*
X-24016D01*
X-25984Y6032D02*
X-24016D01*
X-29484D02*
X-27516D01*
X-29484Y9968D02*
X-27516D01*
X-29484Y6032D02*
Y9968D01*
X-27516Y6032D02*
Y9968D01*
X-29100Y8000D02*
X-27900D01*
X-28500Y7400D02*
Y8600D01*
X-4000Y34400D02*
Y35600D01*
X-4600Y35000D02*
X-3400D01*
X-4984Y33031D02*
Y36968D01*
X-3016Y33031D02*
Y36968D01*
X-4984Y33031D02*
X-3016D01*
X-4984Y36968D02*
X-3016D01*
X-7500Y34400D02*
Y35600D01*
X-8100Y35000D02*
X-6900D01*
X-8484Y33031D02*
Y36968D01*
X-6516Y33031D02*
Y36968D01*
X-8484Y33031D02*
X-6516D01*
X-8484Y36968D02*
X-6516D01*
X-18600Y-3500D02*
X-17400D01*
X-18000Y-4100D02*
Y-2900D01*
X-19969Y-4484D02*
X-16032D01*
X-19969Y-2516D02*
X-16032D01*
Y-4484D02*
Y-2516D01*
X-19969Y-4484D02*
Y-2516D01*
X-18600Y-7000D02*
X-17400D01*
X-18000Y-7600D02*
Y-6400D01*
X-19969Y-7984D02*
X-16032D01*
X-19969Y-6016D02*
X-16032D01*
Y-7984D02*
Y-6016D01*
X-19969Y-7984D02*
Y-6016D01*
X13000Y-36000D02*
Y-34000D01*
X12000Y-35000D02*
X14000D01*
X9063Y-37461D02*
X16937D01*
X9063Y-32539D02*
X16937D01*
Y-37461D02*
Y-32539D01*
X9063Y-37461D02*
Y-32539D01*
X-8500Y-36100D02*
Y-34900D01*
X-9100Y-35500D02*
X-7900D01*
X-9484Y-37468D02*
Y-33531D01*
X-7516Y-37468D02*
Y-33531D01*
X-9484Y-37468D02*
X-7516D01*
X-9484Y-33531D02*
X-7516D01*
X-12000Y-36100D02*
Y-34900D01*
X-12600Y-35500D02*
X-11400D01*
X-12984Y-37468D02*
Y-33531D01*
X-11016Y-37468D02*
Y-33531D01*
X-12984Y-37468D02*
X-11016D01*
X-12984Y-33531D02*
X-11016D01*
X2516Y-27031D02*
X4484D01*
X2516Y-30968D02*
X4484D01*
X4484D02*
Y-27031D01*
X2516Y-30968D02*
Y-27031D01*
X2900Y-29000D02*
X4100D01*
X3500Y-29600D02*
Y-28400D01*
M02*
