G04*
G04 #@! TF.GenerationSoftware,Altium Limited,Altium Designer,21.9.2 (33)*
G04*
G04 Layer_Color=16711935*
%FSLAX25Y25*%
%MOIN*%
G70*
G04*
G04 #@! TF.SameCoordinates,DE561362-EE76-411C-985F-06221E673FF8*
G04*
G04*
G04 #@! TF.FilePolarity,Positive*
G04*
G01*
G75*
%ADD12C,0.00787*%
G36*
X7269Y34674D02*
X8240Y33220D01*
X7834D01*
X7340Y33982D01*
X7337Y33985D01*
X7332Y33992D01*
X7325Y34002D01*
X7315Y34019D01*
X7303Y34039D01*
X7288Y34061D01*
X7273Y34086D01*
X7254Y34115D01*
X7237Y34145D01*
X7214Y34179D01*
X7173Y34250D01*
X7126Y34327D01*
X7081Y34405D01*
X7079Y34403D01*
X7077Y34396D01*
X7069Y34386D01*
X7062Y34371D01*
X7050Y34354D01*
X7037Y34332D01*
X7020Y34304D01*
X7003Y34277D01*
X6986Y34245D01*
X6963Y34211D01*
X6941Y34174D01*
X6917Y34137D01*
X6863Y34054D01*
X6806Y33963D01*
X6316Y33220D01*
X5928D01*
X6934Y34674D01*
Y35741D01*
X7269D01*
Y34674D01*
D02*
G37*
G36*
X4899Y33771D02*
X4902D01*
X4904Y33776D01*
X4912Y33781D01*
X4919Y33788D01*
X4944Y33810D01*
X4978Y33837D01*
X5020Y33869D01*
X5072Y33906D01*
X5131Y33945D01*
X5195Y33985D01*
X5197D01*
X5202Y33990D01*
X5212Y33994D01*
X5224Y34002D01*
X5241Y34012D01*
X5259Y34022D01*
X5303Y34044D01*
X5352Y34068D01*
X5406Y34095D01*
X5463Y34120D01*
X5517Y34142D01*
Y33845D01*
X5514Y33842D01*
X5505Y33839D01*
X5492Y33832D01*
X5473Y33822D01*
X5451Y33810D01*
X5426Y33795D01*
X5396Y33781D01*
X5364Y33761D01*
X5293Y33719D01*
X5217Y33667D01*
X5141Y33611D01*
X5064Y33549D01*
X5062Y33547D01*
X5057Y33542D01*
X5045Y33532D01*
X5032Y33520D01*
X5018Y33503D01*
X4998Y33485D01*
X4978Y33463D01*
X4956Y33441D01*
X4912Y33389D01*
X4868Y33333D01*
X4826Y33271D01*
X4806Y33242D01*
X4791Y33210D01*
X4589D01*
Y35741D01*
X4899D01*
Y33771D01*
D02*
G37*
G36*
X-45042Y6516D02*
X-47012D01*
Y6514D01*
X-47007Y6512D01*
X-47002Y6504D01*
X-46995Y6497D01*
X-46973Y6472D01*
X-46946Y6438D01*
X-46914Y6396D01*
X-46877Y6344D01*
X-46838Y6285D01*
X-46798Y6221D01*
Y6219D01*
X-46793Y6214D01*
X-46788Y6204D01*
X-46781Y6192D01*
X-46771Y6174D01*
X-46761Y6157D01*
X-46739Y6113D01*
X-46715Y6064D01*
X-46687Y6010D01*
X-46663Y5953D01*
X-46641Y5899D01*
X-46938D01*
X-46941Y5901D01*
X-46943Y5911D01*
X-46951Y5924D01*
X-46961Y5943D01*
X-46973Y5965D01*
X-46988Y5990D01*
X-47002Y6020D01*
X-47022Y6052D01*
X-47064Y6123D01*
X-47116Y6199D01*
X-47172Y6275D01*
X-47234Y6352D01*
X-47236Y6354D01*
X-47241Y6359D01*
X-47251Y6371D01*
X-47263Y6384D01*
X-47280Y6398D01*
X-47298Y6418D01*
X-47320Y6438D01*
X-47342Y6460D01*
X-47394Y6504D01*
X-47450Y6549D01*
X-47512Y6590D01*
X-47541Y6610D01*
X-47573Y6625D01*
Y6826D01*
X-45042D01*
Y6516D01*
D02*
G37*
G36*
Y4785D02*
Y4460D01*
X-46963Y3931D01*
X-46966D01*
X-46973Y3929D01*
X-46985Y3924D01*
X-47002Y3921D01*
X-47020Y3914D01*
X-47042Y3909D01*
X-47091Y3894D01*
X-47140Y3882D01*
X-47189Y3867D01*
X-47212Y3862D01*
X-47231Y3857D01*
X-47246Y3852D01*
X-47258Y3850D01*
X-47256D01*
X-47251Y3847D01*
X-47241Y3845D01*
X-47229Y3842D01*
X-47214Y3840D01*
X-47197Y3835D01*
X-47155Y3825D01*
X-47111Y3813D01*
X-47059Y3801D01*
X-47010Y3786D01*
X-46963Y3774D01*
X-45042Y3242D01*
Y2898D01*
X-47563Y2231D01*
Y2573D01*
X-45910Y2957D01*
X-45908D01*
X-45898Y2959D01*
X-45886Y2962D01*
X-45866Y2967D01*
X-45841Y2972D01*
X-45814Y2979D01*
X-45782Y2986D01*
X-45748Y2994D01*
X-45711Y3001D01*
X-45669Y3011D01*
X-45583Y3028D01*
X-45489Y3045D01*
X-45394Y3063D01*
X-45399D01*
X-45411Y3068D01*
X-45430Y3073D01*
X-45458Y3077D01*
X-45489Y3087D01*
X-45524Y3095D01*
X-45563Y3104D01*
X-45603Y3114D01*
X-45684Y3134D01*
X-45723Y3144D01*
X-45760Y3154D01*
X-45792Y3161D01*
X-45822Y3168D01*
X-45844Y3173D01*
X-45858Y3178D01*
X-47563Y3658D01*
Y4059D01*
X-46286Y4421D01*
X-46284D01*
X-46282Y4423D01*
X-46274D01*
X-46264Y4425D01*
X-46240Y4433D01*
X-46205Y4443D01*
X-46163Y4455D01*
X-46114Y4467D01*
X-46058Y4480D01*
X-45996Y4497D01*
X-45930Y4512D01*
X-45861Y4529D01*
X-45787Y4544D01*
X-45708Y4561D01*
X-45551Y4590D01*
X-45394Y4617D01*
X-45396D01*
X-45403Y4620D01*
X-45418Y4622D01*
X-45435Y4627D01*
X-45458Y4632D01*
X-45485Y4637D01*
X-45517Y4644D01*
X-45551Y4652D01*
X-45590Y4662D01*
X-45632Y4671D01*
X-45676Y4681D01*
X-45726Y4691D01*
X-45777Y4704D01*
X-45829Y4718D01*
X-45942Y4745D01*
X-47563Y5139D01*
Y5476D01*
X-45042Y4785D01*
D02*
G37*
G36*
X-45718Y2002D02*
X-45701D01*
X-45679Y2000D01*
X-45657Y1995D01*
X-45630Y1990D01*
X-45571Y1978D01*
X-45507Y1956D01*
X-45440Y1929D01*
X-45408Y1909D01*
X-45374Y1889D01*
X-45371Y1887D01*
X-45366Y1884D01*
X-45357Y1877D01*
X-45344Y1867D01*
X-45330Y1855D01*
X-45312Y1843D01*
X-45293Y1825D01*
X-45273Y1806D01*
X-45251Y1781D01*
X-45229Y1756D01*
X-45207Y1729D01*
X-45182Y1700D01*
X-45138Y1633D01*
X-45098Y1557D01*
Y1555D01*
X-45094Y1547D01*
X-45088Y1535D01*
X-45084Y1520D01*
X-45076Y1498D01*
X-45066Y1476D01*
X-45059Y1446D01*
X-45049Y1417D01*
X-45039Y1383D01*
X-45032Y1346D01*
X-45022Y1304D01*
X-45015Y1262D01*
X-45005Y1171D01*
X-45000Y1072D01*
Y1041D01*
X-45002Y1016D01*
Y986D01*
X-45005Y952D01*
X-45007Y915D01*
X-45012Y873D01*
X-45017Y829D01*
X-45025Y782D01*
X-45042Y686D01*
X-45066Y590D01*
X-45081Y544D01*
X-45098Y499D01*
X-45101Y497D01*
X-45103Y489D01*
X-45108Y477D01*
X-45118Y462D01*
X-45128Y443D01*
X-45140Y418D01*
X-45155Y394D01*
X-45175Y366D01*
X-45216Y310D01*
X-45268Y248D01*
X-45330Y189D01*
X-45399Y135D01*
X-45401Y133D01*
X-45408Y130D01*
X-45418Y123D01*
X-45433Y116D01*
X-45453Y106D01*
X-45475Y93D01*
X-45502Y81D01*
X-45531Y69D01*
X-45563Y56D01*
X-45598Y44D01*
X-45635Y34D01*
X-45676Y22D01*
X-45763Y7D01*
X-45807Y2D01*
X-45854Y-0D01*
X-45881Y315D01*
X-45878D01*
X-45873D01*
X-45863Y317D01*
X-45849Y320D01*
X-45832Y322D01*
X-45814Y327D01*
X-45770Y337D01*
X-45721Y349D01*
X-45669Y369D01*
X-45617Y391D01*
X-45568Y418D01*
X-45566D01*
X-45563Y423D01*
X-45549Y433D01*
X-45526Y453D01*
X-45499Y480D01*
X-45467Y514D01*
X-45435Y558D01*
X-45401Y610D01*
X-45371Y669D01*
Y672D01*
X-45369Y676D01*
X-45364Y686D01*
X-45359Y699D01*
X-45354Y716D01*
X-45349Y735D01*
X-45342Y758D01*
X-45335Y782D01*
X-45327Y809D01*
X-45322Y839D01*
X-45310Y905D01*
X-45300Y979D01*
X-45298Y1058D01*
Y1090D01*
X-45300Y1107D01*
Y1127D01*
X-45305Y1171D01*
X-45312Y1223D01*
X-45322Y1279D01*
X-45335Y1336D01*
X-45354Y1392D01*
Y1395D01*
X-45357Y1400D01*
X-45359Y1407D01*
X-45364Y1417D01*
X-45376Y1444D01*
X-45396Y1476D01*
X-45418Y1510D01*
X-45443Y1547D01*
X-45475Y1582D01*
X-45509Y1611D01*
X-45514Y1614D01*
X-45526Y1623D01*
X-45546Y1633D01*
X-45573Y1648D01*
X-45605Y1660D01*
X-45642Y1673D01*
X-45681Y1680D01*
X-45726Y1683D01*
X-45728D01*
X-45731D01*
X-45745D01*
X-45768Y1680D01*
X-45797Y1675D01*
X-45829Y1665D01*
X-45863Y1653D01*
X-45898Y1636D01*
X-45932Y1614D01*
X-45937Y1611D01*
X-45947Y1601D01*
X-45964Y1584D01*
X-45984Y1560D01*
X-46009Y1528D01*
X-46033Y1488D01*
X-46058Y1441D01*
X-46080Y1385D01*
X-46082Y1380D01*
X-46085Y1373D01*
X-46087Y1363D01*
X-46092Y1350D01*
X-46097Y1336D01*
X-46104Y1316D01*
X-46112Y1292D01*
X-46119Y1264D01*
X-46129Y1232D01*
X-46139Y1196D01*
X-46149Y1154D01*
X-46161Y1107D01*
X-46173Y1055D01*
X-46188Y999D01*
X-46203Y937D01*
Y932D01*
X-46208Y922D01*
X-46210Y905D01*
X-46218Y881D01*
X-46225Y854D01*
X-46232Y819D01*
X-46242Y785D01*
X-46255Y745D01*
X-46279Y667D01*
X-46304Y585D01*
X-46319Y546D01*
X-46333Y512D01*
X-46346Y480D01*
X-46360Y450D01*
Y448D01*
X-46365Y443D01*
X-46370Y433D01*
X-46378Y421D01*
X-46387Y406D01*
X-46397Y389D01*
X-46427Y349D01*
X-46461Y305D01*
X-46501Y261D01*
X-46547Y219D01*
X-46597Y182D01*
X-46599D01*
X-46604Y177D01*
X-46611Y175D01*
X-46621Y167D01*
X-46633Y162D01*
X-46651Y155D01*
X-46687Y138D01*
X-46734Y120D01*
X-46788Y108D01*
X-46847Y98D01*
X-46911Y93D01*
X-46914D01*
X-46919D01*
X-46931D01*
X-46943Y96D01*
X-46961D01*
X-46980Y98D01*
X-47002Y103D01*
X-47027Y108D01*
X-47081Y120D01*
X-47143Y140D01*
X-47204Y167D01*
X-47236Y182D01*
X-47268Y202D01*
X-47271Y204D01*
X-47276Y207D01*
X-47285Y214D01*
X-47295Y221D01*
X-47310Y234D01*
X-47325Y246D01*
X-47362Y283D01*
X-47403Y327D01*
X-47445Y381D01*
X-47487Y443D01*
X-47521Y516D01*
Y519D01*
X-47526Y526D01*
X-47529Y539D01*
X-47536Y554D01*
X-47541Y573D01*
X-47548Y595D01*
X-47556Y622D01*
X-47566Y652D01*
X-47573Y686D01*
X-47581Y721D01*
X-47588Y760D01*
X-47595Y800D01*
X-47605Y886D01*
X-47608Y979D01*
Y1006D01*
X-47605Y1026D01*
Y1050D01*
X-47603Y1080D01*
X-47600Y1112D01*
X-47595Y1146D01*
X-47590Y1183D01*
X-47585Y1223D01*
X-47568Y1306D01*
X-47546Y1390D01*
X-47517Y1474D01*
Y1476D01*
X-47512Y1483D01*
X-47507Y1493D01*
X-47499Y1508D01*
X-47490Y1528D01*
X-47480Y1547D01*
X-47450Y1594D01*
X-47411Y1648D01*
X-47366Y1702D01*
X-47312Y1756D01*
X-47251Y1803D01*
X-47248Y1806D01*
X-47243Y1808D01*
X-47234Y1813D01*
X-47221Y1820D01*
X-47204Y1830D01*
X-47184Y1840D01*
X-47162Y1850D01*
X-47135Y1862D01*
X-47108Y1874D01*
X-47079Y1884D01*
X-47010Y1904D01*
X-46936Y1921D01*
X-46897Y1926D01*
X-46855Y1929D01*
X-46830Y1609D01*
X-46833D01*
X-46840Y1606D01*
X-46852D01*
X-46870Y1601D01*
X-46889Y1599D01*
X-46911Y1592D01*
X-46936Y1584D01*
X-46963Y1577D01*
X-47022Y1555D01*
X-47081Y1523D01*
X-47111Y1503D01*
X-47138Y1483D01*
X-47165Y1459D01*
X-47189Y1432D01*
X-47192Y1429D01*
X-47194Y1424D01*
X-47202Y1417D01*
X-47209Y1405D01*
X-47219Y1390D01*
X-47229Y1370D01*
X-47239Y1348D01*
X-47251Y1321D01*
X-47263Y1292D01*
X-47273Y1259D01*
X-47283Y1225D01*
X-47293Y1186D01*
X-47300Y1141D01*
X-47308Y1097D01*
X-47310Y1045D01*
X-47312Y994D01*
Y964D01*
X-47310Y945D01*
Y920D01*
X-47308Y891D01*
X-47302Y859D01*
X-47298Y826D01*
X-47285Y753D01*
X-47266Y681D01*
X-47251Y644D01*
X-47236Y612D01*
X-47219Y581D01*
X-47199Y554D01*
Y551D01*
X-47194Y549D01*
X-47179Y531D01*
X-47155Y509D01*
X-47125Y485D01*
X-47086Y460D01*
X-47039Y438D01*
X-46990Y421D01*
X-46963Y418D01*
X-46933Y416D01*
X-46931D01*
X-46929D01*
X-46921D01*
X-46911Y418D01*
X-46884Y421D01*
X-46855Y428D01*
X-46818Y440D01*
X-46781Y455D01*
X-46744Y480D01*
X-46710Y512D01*
Y514D01*
X-46705Y516D01*
X-46700Y524D01*
X-46695Y534D01*
X-46687Y546D01*
X-46678Y563D01*
X-46665Y585D01*
X-46653Y610D01*
X-46641Y642D01*
X-46626Y676D01*
X-46611Y718D01*
X-46597Y765D01*
X-46579Y817D01*
X-46562Y876D01*
X-46545Y942D01*
X-46528Y1013D01*
Y1018D01*
X-46523Y1031D01*
X-46518Y1053D01*
X-46513Y1080D01*
X-46505Y1112D01*
X-46496Y1151D01*
X-46486Y1193D01*
X-46474Y1237D01*
X-46449Y1331D01*
X-46422Y1422D01*
X-46407Y1466D01*
X-46395Y1505D01*
X-46380Y1542D01*
X-46368Y1574D01*
Y1577D01*
X-46363Y1584D01*
X-46358Y1596D01*
X-46350Y1611D01*
X-46341Y1629D01*
X-46328Y1648D01*
X-46299Y1697D01*
X-46262Y1749D01*
X-46218Y1803D01*
X-46169Y1855D01*
X-46141Y1877D01*
X-46112Y1899D01*
X-46109Y1901D01*
X-46104Y1904D01*
X-46097Y1909D01*
X-46085Y1916D01*
X-46070Y1924D01*
X-46053Y1933D01*
X-46031Y1943D01*
X-46009Y1953D01*
X-45957Y1970D01*
X-45895Y1988D01*
X-45827Y2000D01*
X-45790Y2005D01*
X-45753D01*
X-45750D01*
X-45743D01*
X-45733D01*
X-45718Y2002D01*
D02*
G37*
D12*
X1252Y31457D02*
X15228D01*
X1252D02*
Y38543D01*
X15228D01*
Y31457D02*
Y38543D01*
X-53071Y-18110D02*
Y18110D01*
X-36929D01*
Y-18110D02*
Y18110D01*
X-53071Y-18110D02*
X-36929D01*
M02*
