M48
;Layer_Color=9474304
;FILE_FORMAT=2:5
INCH,TZ
;TYPE=PLATED
T1F00S00C0.01181
T2F00S00C0.01968
T3F00S00C0.08661
%
T01
X-53500Y-15000
X-61500Y-2000
Y2000
X-36500Y6000
X-32000
Y3000
X-28500Y6000
X-21000
Y10000
X-26500Y14000
X-45000Y15000
X-36500Y-5500
X-31500
X-26500
X-20000Y-7000
Y-3500
X-12000Y-7500
Y-12000
X-8000
X-4000
X3500
X7000
X10500
X14000
X17500
Y-16500
X19500Y-21000
X24000
X30575Y-13998
X28320Y-8126
X33320
X38219Y-9000
X38500Y4500
X23500Y5000
X23834Y-913
X17000Y-4000
X13000Y-7500
X11000Y2500
X6000Y3000
Y-426
X2000Y1500
Y5000
Y8500
X-3000Y10000
Y6500
X-9000Y7500
X6000Y12000
X9500
X8240Y35000
X1500
X-3971Y36990
X-7500Y37000
X-17500Y30000
X18000Y28500
X45500Y17500
X49500Y14500
X53000
Y10500
X14610Y-26390
X7675Y-26280
X3500Y-25500
X-1240Y-23016
X-500Y-31000
X-19000Y-30500
Y-25500
X-12500Y-23000
X-16000Y-15000
X-27631Y-16000
X59500Y-12000
Y-8000
X60000Y7500
Y11500
T02
X-52000Y-4000
Y4000
X-47000
X-42000
X31500Y-1000
X43500Y2500
X48500
X54000
X50559Y-3964
T03
X-30315Y-30000
Y30500
X30315
Y-30000
M30
