G04*
G04 #@! TF.GenerationSoftware,Altium Limited,Altium Designer,21.9.2 (33)*
G04*
G04 Layer_Color=16711935*
%FSLAX25Y25*%
%MOIN*%
G70*
G04*
G04 #@! TF.SameCoordinates,DE561362-EE76-411C-985F-06221E673FF8*
G04*
G04*
G04 #@! TF.FilePolarity,Positive*
G04*
G01*
G75*
%ADD13C,0.00600*%
%ADD83C,0.00394*%
%ADD86C,0.00197*%
G36*
X-31050Y-11650D02*
X-33600D01*
Y-20350D01*
X-31050D01*
D01*
X-19950D01*
D01*
X-17400D01*
Y-11650D01*
X-19950D01*
D01*
X-31050D01*
D01*
D02*
G37*
G36*
X-1050Y-28150D02*
X-3600D01*
Y-36850D01*
X-1050D01*
D01*
X10050D01*
D01*
X12600D01*
Y-28150D01*
X10050D01*
D01*
X-1050D01*
D01*
D02*
G37*
D13*
X10050D01*
X-1050Y-36850D02*
X10050D01*
X-3600Y-28150D02*
X-1050D01*
X10050D02*
X12600D01*
Y-36850D02*
Y-28150D01*
X10050Y-36850D02*
X12600D01*
X-3600D02*
X-1050D01*
X-3600D02*
Y-28150D01*
X-31050Y-11650D02*
X-19950D01*
X-31050Y-20350D02*
X-19950D01*
X-33600Y-11650D02*
X-31050D01*
X-19950D02*
X-17400D01*
Y-20350D02*
Y-11650D01*
X-19950Y-20350D02*
X-17400D01*
X-33600D02*
X-31050D01*
X-33600D02*
Y-11650D01*
D83*
X60031Y0D02*
X63968D01*
X62000Y-1969D02*
Y1969D01*
X-15748Y-11811D02*
X15748D01*
X-15748Y11811D02*
X15748D01*
X-15748Y-11811D02*
Y11811D01*
X15748Y-11811D02*
Y11811D01*
X-62000Y-1969D02*
Y1969D01*
X-63968Y0D02*
X-60031D01*
D86*
X20370Y16106D02*
X41630D01*
X20370Y-13106D02*
X41630D01*
X20370D02*
Y16106D01*
X41630Y-13106D02*
Y16106D01*
X78142Y-16535D02*
Y16535D01*
X41134Y-16535D02*
X78142D01*
X41134D02*
Y16535D01*
X78142D01*
X-18370Y-10106D02*
Y19106D01*
X-39630Y-10106D02*
Y19106D01*
Y-10106D02*
X-18370D01*
X-39630Y19106D02*
X-18370D01*
X-78142Y-16535D02*
X-41134D01*
Y16535D01*
X-78142D02*
X-41134D01*
X-78142Y-16535D02*
Y16535D01*
M02*
