G04*
G04 #@! TF.GenerationSoftware,Altium Limited,Altium Designer,21.9.2 (33)*
G04*
G04 Layer_Color=32768*
%FSLAX25Y25*%
%MOIN*%
G70*
G04*
G04 #@! TF.SameCoordinates,DE561362-EE76-411C-985F-06221E673FF8*
G04*
G04*
G04 #@! TF.FilePolarity,Positive*
G04*
G01*
G75*
%ADD12C,0.00787*%
%ADD14C,0.00100*%
%ADD16C,0.00500*%
%ADD83C,0.00394*%
D12*
X38894Y-14642D02*
X38106D01*
X38894D01*
X-21106Y-11642D02*
X-21894D01*
X-21106D01*
D14*
X-50Y-35850D02*
Y-29150D01*
Y-35850D02*
X9050D01*
Y-29150D01*
X-50D02*
X9050D01*
X-30050Y-19350D02*
Y-12650D01*
Y-19350D02*
X-20950D01*
Y-12650D01*
X-30050D02*
X-20950D01*
D16*
X21354Y9177D02*
X40646D01*
X21354Y-6177D02*
X40646D01*
X21354D02*
Y9177D01*
X40646Y-6177D02*
Y9177D01*
X-19354Y-3177D02*
Y12177D01*
X-38646Y-3177D02*
Y12177D01*
Y-3177D02*
X-19354D01*
X-38646Y12177D02*
X-19354D01*
D83*
X6693Y7087D02*
X6248Y8010D01*
X5249Y8238D01*
X4448Y7599D01*
Y6574D01*
X5249Y5935D01*
X6248Y6163D01*
X6693Y7087D01*
X47039Y15551D02*
X73811D01*
X47039Y12402D02*
Y15551D01*
X73811Y13583D02*
Y15551D01*
Y13583D02*
X76961D01*
Y-13583D02*
Y13583D01*
X73811Y-15551D02*
Y-13583D01*
Y-13583D02*
X76961D01*
X47039Y12402D02*
X53339D01*
Y-12402D02*
Y12402D01*
X47039Y-12402D02*
X53339D01*
X47039Y-15551D02*
X73811D01*
X47039D02*
Y-12402D01*
X7874Y-9843D02*
Y9843D01*
X-7874Y-9843D02*
Y9843D01*
X7874D01*
X-7874Y-9843D02*
X7874D01*
X0Y-1969D02*
Y1969D01*
X-1969Y0D02*
X1969D01*
X-47039Y12402D02*
Y15551D01*
X-73811D02*
X-47039D01*
X-53339Y12402D02*
X-47039D01*
X-53339Y-12402D02*
Y12402D01*
Y-12402D02*
X-47039D01*
X-76961Y13583D02*
X-73811D01*
Y13583D02*
Y15551D01*
X-76961Y-13583D02*
Y13583D01*
Y-13583D02*
X-73811D01*
Y-15551D02*
Y-13583D01*
X-47039Y-15551D02*
Y-12402D01*
X-73811Y-15551D02*
X-47039D01*
M02*
