G04*
G04 #@! TF.GenerationSoftware,Altium Limited,Altium Designer,21.9.2 (33)*
G04*
G04 Layer_Physical_Order=1*
G04 Layer_Color=255*
%FSLAX25Y25*%
%MOIN*%
G70*
G04*
G04 #@! TF.SameCoordinates,DDE03FFC-3592-4A1C-B560-7E07A9873239*
G04*
G04*
G04 #@! TF.FilePolarity,Positive*
G04*
G01*
G75*
%ADD16R,0.03740X0.04134*%
%ADD17R,0.04134X0.03740*%
G04:AMPARAMS|DCode=18|XSize=59.06mil|YSize=22.84mil|CornerRadius=2.85mil|HoleSize=0mil|Usage=FLASHONLY|Rotation=180.000|XOffset=0mil|YOffset=0mil|HoleType=Round|Shape=RoundedRectangle|*
%AMROUNDEDRECTD18*
21,1,0.05906,0.01713,0,0,180.0*
21,1,0.05335,0.02284,0,0,180.0*
1,1,0.00571,-0.02667,0.00856*
1,1,0.00571,0.02667,0.00856*
1,1,0.00571,0.02667,-0.00856*
1,1,0.00571,-0.02667,-0.00856*
%
%ADD18ROUNDEDRECTD18*%
%ADD19R,0.04950X0.06700*%
%ADD20R,0.06299X0.01181*%
G04:AMPARAMS|DCode=22|XSize=33.86mil|YSize=10.24mil|CornerRadius=1.28mil|HoleSize=0mil|Usage=FLASHONLY|Rotation=180.000|XOffset=0mil|YOffset=0mil|HoleType=Round|Shape=RoundedRectangle|*
%AMROUNDEDRECTD22*
21,1,0.03386,0.00768,0,0,180.0*
21,1,0.03130,0.01024,0,0,180.0*
1,1,0.00256,-0.01565,0.00384*
1,1,0.00256,0.01565,0.00384*
1,1,0.00256,0.01565,-0.00384*
1,1,0.00256,-0.01565,-0.00384*
%
%ADD22ROUNDEDRECTD22*%
G04:AMPARAMS|DCode=23|XSize=33.86mil|YSize=10.24mil|CornerRadius=1.28mil|HoleSize=0mil|Usage=FLASHONLY|Rotation=270.000|XOffset=0mil|YOffset=0mil|HoleType=Round|Shape=RoundedRectangle|*
%AMROUNDEDRECTD23*
21,1,0.03386,0.00768,0,0,270.0*
21,1,0.03130,0.01024,0,0,270.0*
1,1,0.00256,-0.00384,-0.01565*
1,1,0.00256,-0.00384,0.01565*
1,1,0.00256,0.00384,0.01565*
1,1,0.00256,0.00384,-0.01565*
%
%ADD23ROUNDEDRECTD23*%
%ADD24O,0.07087X0.01181*%
G04:AMPARAMS|DCode=25|XSize=78.74mil|YSize=196.85mil|CornerRadius=19.68mil|HoleSize=0mil|Usage=FLASHONLY|Rotation=0.000|XOffset=0mil|YOffset=0mil|HoleType=Round|Shape=RoundedRectangle|*
%AMROUNDEDRECTD25*
21,1,0.07874,0.15748,0,0,0.0*
21,1,0.03937,0.19685,0,0,0.0*
1,1,0.03937,0.01968,-0.07874*
1,1,0.03937,-0.01968,-0.07874*
1,1,0.03937,-0.01968,0.07874*
1,1,0.03937,0.01968,0.07874*
%
%ADD25ROUNDEDRECTD25*%
%ADD26R,0.05158X0.02559*%
%ADD27O,0.01181X0.07087*%
%ADD28R,0.01800X0.03950*%
G04:AMPARAMS|DCode=45|XSize=89.96mil|YSize=89.96mil|CornerRadius=22.49mil|HoleSize=0mil|Usage=FLASHONLY|Rotation=180.000|XOffset=0mil|YOffset=0mil|HoleType=Round|Shape=RoundedRectangle|*
%AMROUNDEDRECTD45*
21,1,0.08996,0.04498,0,0,180.0*
21,1,0.04498,0.08996,0,0,180.0*
1,1,0.04498,-0.02249,0.02249*
1,1,0.04498,0.02249,0.02249*
1,1,0.04498,0.02249,-0.02249*
1,1,0.04498,-0.02249,-0.02249*
%
%ADD45ROUNDEDRECTD45*%
%ADD46R,0.06614X0.06614*%
%ADD47C,0.01000*%
%ADD48C,0.03150*%
%ADD49C,0.01968*%
%ADD50C,0.03937*%
%ADD51C,0.01575*%
%ADD52C,0.02362*%
%ADD53C,0.03937*%
%ADD54C,0.03150*%
%ADD55C,0.19685*%
G36*
X82677Y64823D02*
Y-64823D01*
X64823Y-82677D01*
X-64823D01*
X-82677Y-64823D01*
Y64823D01*
X-64823Y82677D01*
X64823D01*
X82677Y64823D01*
D02*
G37*
%LPC*%
G36*
X18469Y71448D02*
X14532D01*
X13607Y71326D01*
X12745Y70969D01*
X12004Y70401D01*
X11436Y69661D01*
X11271Y69261D01*
X10729D01*
X10564Y69661D01*
X9996Y70401D01*
X9255Y70969D01*
X8394Y71326D01*
X7468Y71448D01*
X3531D01*
X2606Y71326D01*
X1745Y70969D01*
X1004Y70401D01*
X436Y69661D01*
X271Y69261D01*
X-271D01*
X-436Y69661D01*
X-1004Y70401D01*
X-1745Y70969D01*
X-2606Y71326D01*
X-3531Y71448D01*
X-7468D01*
X-8394Y71326D01*
X-9255Y70969D01*
X-9996Y70401D01*
X-10564Y69661D01*
X-10729Y69261D01*
X-11271D01*
X-11436Y69661D01*
X-12004Y70401D01*
X-12745Y70969D01*
X-13607Y71326D01*
X-14532Y71448D01*
X-18469D01*
X-19394Y71326D01*
X-20255Y70969D01*
X-20996Y70401D01*
X-21564Y69661D01*
X-21921Y68799D01*
X-22042Y67874D01*
Y52126D01*
X-21921Y51201D01*
X-21564Y50339D01*
X-20996Y49599D01*
X-20255Y49031D01*
X-20074Y48956D01*
Y33611D01*
X-20574Y33404D01*
X-24166Y36996D01*
X-24852Y37454D01*
X-25661Y37615D01*
X-29730D01*
X-30110Y37907D01*
X-30781Y38185D01*
X-31500Y38280D01*
X-32219Y38185D01*
X-32890Y37907D01*
X-33465Y37466D01*
X-33907Y36890D01*
X-34185Y36219D01*
X-34280Y35500D01*
X-34247Y35253D01*
X-34686Y34753D01*
X-36036D01*
X-36093Y34890D01*
X-36535Y35465D01*
X-37110Y35907D01*
X-37781Y36185D01*
X-38500Y36280D01*
X-39219Y36185D01*
X-39890Y35907D01*
X-40466Y35465D01*
X-40907Y34890D01*
X-41185Y34219D01*
X-41280Y33500D01*
X-41202Y32913D01*
X-41214Y32856D01*
Y31144D01*
X-41069Y30418D01*
X-40658Y29803D01*
X-40814Y29326D01*
X-41024Y29115D01*
X-41500D01*
X-42310Y28954D01*
X-42444Y28865D01*
X-42885Y29101D01*
Y38500D01*
X-43046Y39309D01*
X-43504Y39996D01*
X-44359Y40850D01*
X-45045Y41309D01*
X-45854Y41470D01*
X-45858D01*
Y42799D01*
X-53142D01*
Y39306D01*
X-53450D01*
X-54065Y39183D01*
X-54585Y38835D01*
X-54933Y38315D01*
X-55056Y37700D01*
Y36701D01*
X-55518Y36509D01*
X-58325Y39317D01*
Y48425D01*
X-66425D01*
Y48256D01*
X-67575D01*
Y48425D01*
X-75675D01*
Y38575D01*
X-73299D01*
Y31858D01*
Y25081D01*
X-74347D01*
X-75015Y24993D01*
X-75637Y24735D01*
X-76172Y24325D01*
X-77325Y23172D01*
X-77735Y22637D01*
X-77993Y22015D01*
X-78081Y21347D01*
Y9500D01*
Y-9500D01*
X-77993Y-10168D01*
X-77735Y-10791D01*
X-77325Y-11325D01*
X-76791Y-11735D01*
X-76168Y-11993D01*
X-75500Y-12081D01*
X-62500D01*
X-62405Y-12069D01*
X-62318Y-12501D01*
X-61942Y-13064D01*
X-61379Y-13441D01*
X-61115Y-13493D01*
X-61076Y-13688D01*
X-60617Y-14375D01*
X-59996Y-14996D01*
X-59310Y-15454D01*
X-58573Y-15601D01*
Y-15715D01*
X-58441Y-16379D01*
X-58064Y-16942D01*
X-57501Y-17319D01*
X-56837Y-17451D01*
X-56520D01*
X-56446Y-17817D01*
X-55988Y-18504D01*
X-54996Y-19496D01*
X-54310Y-19954D01*
X-54061Y-20004D01*
X-53535Y-20407D01*
X-52865Y-20685D01*
X-52146Y-20780D01*
X-51426Y-20685D01*
X-50756Y-20407D01*
X-50375Y-20116D01*
X-50000D01*
X-49190Y-19954D01*
X-48504Y-19496D01*
X-46124Y-17116D01*
X-34936D01*
X-34528Y-17034D01*
X-34142Y-17352D01*
Y-22091D01*
Y-27799D01*
X-34142D01*
X-33990Y-28299D01*
X-34459Y-28612D01*
X-34937Y-29328D01*
X-35105Y-30173D01*
X-34937Y-31018D01*
X-34844Y-31157D01*
X-34937Y-31297D01*
X-35105Y-32142D01*
X-34937Y-32987D01*
X-34844Y-33126D01*
X-34937Y-33265D01*
X-35105Y-34110D01*
X-34937Y-34955D01*
X-34844Y-35094D01*
X-34937Y-35234D01*
X-35105Y-36079D01*
X-34937Y-36924D01*
X-34844Y-37063D01*
X-34937Y-37202D01*
X-35073Y-37885D01*
X-40500D01*
X-41310Y-38046D01*
X-41996Y-38504D01*
X-47496Y-44004D01*
X-47954Y-44690D01*
X-48115Y-45500D01*
Y-74500D01*
X-47954Y-75310D01*
X-47496Y-75996D01*
X-44496Y-78996D01*
X-43810Y-79454D01*
X-43000Y-79615D01*
X-26270D01*
X-25890Y-79907D01*
X-25219Y-80185D01*
X-24500Y-80280D01*
X-23781Y-80185D01*
X-23110Y-79907D01*
X-22730Y-79615D01*
X40000D01*
X40810Y-79454D01*
X41496Y-78996D01*
X45496Y-74996D01*
X45954Y-74310D01*
X46115Y-73500D01*
Y-52876D01*
X56876Y-42115D01*
X64000D01*
X64810Y-41954D01*
X65496Y-41496D01*
X73996Y-32996D01*
X74454Y-32309D01*
X74615Y-31500D01*
Y-9500D01*
Y-5017D01*
Y33500D01*
X74454Y34310D01*
X73996Y34996D01*
X62496Y46496D01*
X61810Y46954D01*
X61000Y47115D01*
X55876D01*
X39496Y63496D01*
X38810Y63954D01*
X38000Y64115D01*
X32643D01*
X31724Y65035D01*
X31723Y65036D01*
X31719Y65049D01*
X31713Y65058D01*
X31703Y65083D01*
X31685Y65219D01*
X31407Y65890D01*
X30966Y66466D01*
X30390Y66907D01*
X29719Y67185D01*
X29000Y67280D01*
X28281Y67185D01*
X27610Y66907D01*
X27035Y66466D01*
X26593Y65890D01*
X26315Y65219D01*
X26220Y64500D01*
X26315Y63781D01*
X26593Y63110D01*
X27035Y62534D01*
X27610Y62093D01*
X27784Y62021D01*
Y61479D01*
X27610Y61407D01*
X27035Y60966D01*
X26593Y60390D01*
X26315Y59719D01*
X26220Y59000D01*
X26315Y58281D01*
X26593Y57610D01*
X27035Y57034D01*
X27610Y56593D01*
X28281Y56315D01*
X29000Y56220D01*
X29719Y56315D01*
X30390Y56593D01*
X30770Y56885D01*
X35624D01*
X52004Y40504D01*
X52690Y40046D01*
X53500Y39885D01*
X58624D01*
X67385Y31124D01*
Y-29624D01*
X62124Y-34885D01*
X55760D01*
X55569Y-34423D01*
X62496Y-27496D01*
X62954Y-26810D01*
X63115Y-26000D01*
Y-23770D01*
X63407Y-23390D01*
X63685Y-22719D01*
X63780Y-22000D01*
X63685Y-21281D01*
X63407Y-20610D01*
X62966Y-20034D01*
Y-19965D01*
X63407Y-19390D01*
X63685Y-18719D01*
X63780Y-18000D01*
X63685Y-17281D01*
X63407Y-16610D01*
X62966Y-16035D01*
X62390Y-15593D01*
X61719Y-15315D01*
X61000Y-15220D01*
X60281Y-15315D01*
X59610Y-15593D01*
X59189Y-15916D01*
X57968D01*
X57159Y-16077D01*
X56473Y-16536D01*
X55504Y-17504D01*
X55046Y-18191D01*
X54885Y-19000D01*
Y-20000D01*
X51708D01*
X51615Y-19962D01*
Y-15000D01*
Y-8086D01*
X51454Y-7276D01*
X50996Y-6590D01*
X50410Y-6004D01*
X49724Y-5546D01*
X48914Y-5385D01*
X48799D01*
Y-3858D01*
X44287D01*
X44095Y-3396D01*
X49744Y2252D01*
X50219Y2315D01*
X50890Y2593D01*
X51465Y3035D01*
X51907Y3610D01*
X52185Y4281D01*
X52280Y5000D01*
X52279Y5009D01*
X52608Y5385D01*
X53000D01*
X53810Y5546D01*
X54496Y6004D01*
X57496Y9004D01*
X57954Y9690D01*
X58115Y10500D01*
Y33000D01*
X57954Y33810D01*
X57496Y34496D01*
X56496Y35496D01*
X55810Y35954D01*
X55000Y36115D01*
X49213D01*
X49158Y36197D01*
X48543Y36609D01*
X47817Y36753D01*
X42482D01*
X41756Y36609D01*
X41141Y36197D01*
X40730Y35582D01*
X40586Y34856D01*
Y33144D01*
X40730Y32418D01*
X41141Y31803D01*
X41220Y31750D01*
Y31250D01*
X41141Y31197D01*
X40730Y30582D01*
X40710Y30484D01*
X40191Y30433D01*
X40089Y30677D01*
X39476Y31476D01*
X38677Y32089D01*
X37747Y32474D01*
X36749Y32606D01*
X32251D01*
X31253Y32474D01*
X30323Y32089D01*
X29524Y31476D01*
X28911Y30677D01*
X28809Y30433D01*
X28289Y30484D01*
X28270Y30582D01*
X27859Y31197D01*
X27780Y31250D01*
Y31750D01*
X27859Y31803D01*
X28270Y32418D01*
X28414Y33144D01*
Y34856D01*
X28270Y35582D01*
X27859Y36197D01*
X27244Y36609D01*
X26518Y36753D01*
X26084D01*
X25322Y37069D01*
X24500Y37177D01*
X23678Y37069D01*
X22916Y36753D01*
X21183D01*
X20574Y36632D01*
X20074Y36908D01*
Y48956D01*
X20255Y49031D01*
X20996Y49599D01*
X21564Y50339D01*
X21921Y51201D01*
X22042Y52126D01*
Y67874D01*
X21921Y68799D01*
X21564Y69661D01*
X20996Y70401D01*
X20255Y70969D01*
X19394Y71326D01*
X18469Y71448D01*
D02*
G37*
G36*
X-61000Y72476D02*
X-62792Y72335D01*
X-64539Y71916D01*
X-66199Y71228D01*
X-67732Y70289D01*
X-69098Y69122D01*
X-70265Y67755D01*
X-71204Y66223D01*
X-71892Y64563D01*
X-72312Y62815D01*
X-72453Y61024D01*
X-72312Y59232D01*
X-71892Y57485D01*
X-71204Y55824D01*
X-70265Y54292D01*
X-69098Y52925D01*
X-67732Y51758D01*
X-66199Y50819D01*
X-64539Y50131D01*
X-62792Y49712D01*
X-61000Y49571D01*
X-59208Y49712D01*
X-57461Y50131D01*
X-55801Y50819D01*
X-54268Y51758D01*
X-52902Y52925D01*
X-51735Y54292D01*
X-50796Y55824D01*
X-50108Y57485D01*
X-49688Y59232D01*
X-49547Y61024D01*
X-49688Y62815D01*
X-50108Y64563D01*
X-50796Y66223D01*
X-51735Y67755D01*
X-52902Y69122D01*
X-54268Y70289D01*
X-55801Y71228D01*
X-57461Y71916D01*
X-59208Y72335D01*
X-61000Y72476D01*
D02*
G37*
G36*
X61024Y72453D02*
X59232Y72312D01*
X57485Y71892D01*
X55824Y71204D01*
X54292Y70265D01*
X52925Y69098D01*
X51758Y67732D01*
X50819Y66199D01*
X50131Y64539D01*
X49712Y62792D01*
X49571Y61000D01*
X49712Y59208D01*
X50131Y57461D01*
X50819Y55801D01*
X51758Y54268D01*
X52925Y52902D01*
X54292Y51735D01*
X55824Y50796D01*
X57485Y50108D01*
X59232Y49688D01*
X61024Y49547D01*
X62815Y49688D01*
X64563Y50108D01*
X66223Y50796D01*
X67755Y51735D01*
X69122Y52902D01*
X70289Y54268D01*
X71228Y55801D01*
X71916Y57461D01*
X72335Y59208D01*
X72476Y61000D01*
X72335Y62792D01*
X71916Y64539D01*
X71228Y66199D01*
X70289Y67732D01*
X69122Y69098D01*
X67755Y70265D01*
X66223Y71204D01*
X64563Y71892D01*
X62815Y72312D01*
X61024Y72453D01*
D02*
G37*
G36*
Y-49547D02*
X59232Y-49688D01*
X57485Y-50108D01*
X55824Y-50796D01*
X54292Y-51735D01*
X52925Y-52902D01*
X51758Y-54268D01*
X50819Y-55801D01*
X50131Y-57461D01*
X49712Y-59208D01*
X49571Y-61000D01*
X49712Y-62792D01*
X50131Y-64539D01*
X50819Y-66199D01*
X51758Y-67732D01*
X52925Y-69098D01*
X54292Y-70265D01*
X55824Y-71204D01*
X57485Y-71892D01*
X59232Y-72312D01*
X61024Y-72453D01*
X62815Y-72312D01*
X64563Y-71892D01*
X66223Y-71204D01*
X67755Y-70265D01*
X69122Y-69098D01*
X70289Y-67732D01*
X71228Y-66199D01*
X71916Y-64539D01*
X72335Y-62792D01*
X72476Y-61000D01*
X72335Y-59208D01*
X71916Y-57461D01*
X71228Y-55801D01*
X70289Y-54268D01*
X69122Y-52902D01*
X67755Y-51735D01*
X66223Y-50796D01*
X64563Y-50108D01*
X62815Y-49688D01*
X61024Y-49547D01*
D02*
G37*
G36*
X-61000Y-49571D02*
X-62792Y-49712D01*
X-64539Y-50131D01*
X-66199Y-50819D01*
X-67732Y-51758D01*
X-69098Y-52925D01*
X-70265Y-54292D01*
X-71204Y-55824D01*
X-71892Y-57485D01*
X-72312Y-59232D01*
X-72453Y-61024D01*
X-72312Y-62815D01*
X-71892Y-64563D01*
X-71204Y-66223D01*
X-70265Y-67755D01*
X-69098Y-69122D01*
X-67732Y-70289D01*
X-66199Y-71228D01*
X-64539Y-71916D01*
X-62792Y-72335D01*
X-61000Y-72476D01*
X-59208Y-72335D01*
X-57461Y-71916D01*
X-55801Y-71228D01*
X-54268Y-70289D01*
X-52902Y-69122D01*
X-51735Y-67755D01*
X-50796Y-66223D01*
X-50108Y-64563D01*
X-49688Y-62815D01*
X-49547Y-61024D01*
X-49688Y-59232D01*
X-50108Y-57485D01*
X-50796Y-55824D01*
X-51735Y-54292D01*
X-52902Y-52925D01*
X-54268Y-51758D01*
X-55801Y-50819D01*
X-57461Y-50131D01*
X-59208Y-49712D01*
X-61000Y-49571D01*
D02*
G37*
%LPD*%
G36*
X30185Y64590D02*
X30209Y64502D01*
X30240Y64415D01*
X30279Y64328D01*
X30326Y64241D01*
X30379Y64154D01*
X30440Y64067D01*
X30508Y63981D01*
X30667Y63807D01*
X30087Y62973D01*
X29999Y63056D01*
X29910Y63128D01*
X29822Y63191D01*
X29734Y63242D01*
X29645Y63284D01*
X29557Y63315D01*
X29468Y63336D01*
X29379Y63346D01*
X29290Y63346D01*
X29200Y63336D01*
X30168Y64677D01*
X30185Y64590D01*
D02*
G37*
G36*
X29910Y59765D02*
X29983Y59709D01*
X30062Y59660D01*
X30147Y59618D01*
X30237Y59582D01*
X30334Y59552D01*
X30436Y59529D01*
X30544Y59513D01*
X30659Y59503D01*
X30779Y59500D01*
Y58500D01*
X30659Y58497D01*
X30544Y58487D01*
X30436Y58471D01*
X30334Y58448D01*
X30237Y58418D01*
X30147Y58382D01*
X30062Y58340D01*
X29983Y58291D01*
X29910Y58235D01*
X29844Y58173D01*
Y59827D01*
X29910Y59765D01*
D02*
G37*
G36*
X-30590Y36265D02*
X-30517Y36209D01*
X-30438Y36160D01*
X-30353Y36118D01*
X-30263Y36082D01*
X-30166Y36052D01*
X-30064Y36029D01*
X-29956Y36013D01*
X-29841Y36003D01*
X-29721Y36000D01*
Y35000D01*
X-29841Y34997D01*
X-29956Y34987D01*
X-30064Y34971D01*
X-30166Y34948D01*
X-30263Y34918D01*
X-30353Y34882D01*
X-30438Y34840D01*
X-30517Y34791D01*
X-30590Y34735D01*
X-30656Y34673D01*
Y36327D01*
X-30590Y36265D01*
D02*
G37*
G36*
X-10564Y50339D02*
X-9996Y49599D01*
X-9255Y49031D01*
X-9074Y48956D01*
Y25787D01*
X-9287Y25574D01*
X-10506D01*
X-10823Y25960D01*
X-10786Y26144D01*
Y27856D01*
X-10931Y28582D01*
X-11342Y29197D01*
X-11421Y29250D01*
Y29750D01*
X-11342Y29803D01*
X-10931Y30418D01*
X-10786Y31144D01*
Y32856D01*
X-10931Y33582D01*
X-11342Y34197D01*
X-11957Y34609D01*
X-12683Y34753D01*
X-12926D01*
Y48956D01*
X-12745Y49031D01*
X-12004Y49599D01*
X-11436Y50339D01*
X-11271Y50739D01*
X-10729D01*
X-10564Y50339D01*
D02*
G37*
G36*
X11436D02*
X12004Y49599D01*
X12745Y49031D01*
X12926Y48956D01*
Y31306D01*
X13048Y30381D01*
X13405Y29519D01*
X13973Y28779D01*
X16279Y26473D01*
X17019Y25905D01*
X17881Y25548D01*
X18806Y25426D01*
X19006D01*
X19323Y25040D01*
X19286Y24856D01*
Y23144D01*
X19323Y22960D01*
X19006Y22574D01*
X9287D01*
X9074Y22787D01*
Y48956D01*
X9255Y49031D01*
X9996Y49599D01*
X10564Y50339D01*
X10729Y50739D01*
X11271D01*
X11436Y50339D01*
D02*
G37*
G36*
X436D02*
X1004Y49599D01*
X1745Y49031D01*
X1926Y48956D01*
Y21306D01*
X2048Y20381D01*
X2405Y19519D01*
X2973Y18779D01*
X5279Y16473D01*
X6019Y15905D01*
X6881Y15548D01*
X7806Y15426D01*
X23850D01*
X24775Y15548D01*
X25637Y15905D01*
X26083Y16247D01*
X26518D01*
X27244Y16391D01*
X27859Y16803D01*
X28270Y17418D01*
X28414Y18144D01*
Y19856D01*
X28270Y20582D01*
X27859Y21197D01*
X27780Y21250D01*
Y21750D01*
X27859Y21802D01*
X28270Y22418D01*
X28289Y22516D01*
X28809Y22567D01*
X28911Y22323D01*
X29524Y21524D01*
X30323Y20911D01*
X31253Y20526D01*
X32251Y20394D01*
X36749D01*
X37747Y20526D01*
X38677Y20911D01*
X39476Y21524D01*
X40089Y22323D01*
X40191Y22567D01*
X40710Y22516D01*
X40730Y22418D01*
X41141Y21802D01*
X41220Y21750D01*
Y21250D01*
X41141Y21197D01*
X40730Y20582D01*
X40586Y19856D01*
Y18144D01*
X40730Y17418D01*
X41141Y16803D01*
X41756Y16391D01*
X42482Y16247D01*
X43297D01*
X43500Y16220D01*
X43703Y16247D01*
X46797D01*
X47000Y16220D01*
X47203Y16247D01*
X47817D01*
X48543Y16391D01*
X49158Y16803D01*
X49385Y17142D01*
X49885Y16990D01*
Y13615D01*
X24000D01*
X23190Y13454D01*
X22504Y12996D01*
X19577Y10069D01*
X19116Y10260D01*
Y11000D01*
X18954Y11810D01*
X18496Y12496D01*
X16996Y13996D01*
X16309Y14454D01*
X15500Y14615D01*
X-10866D01*
X-11133Y15115D01*
X-10931Y15418D01*
X-10786Y16144D01*
Y17856D01*
X-10823Y18040D01*
X-10506Y18426D01*
X-7806D01*
X-6881Y18548D01*
X-6019Y18905D01*
X-5279Y19473D01*
X-2973Y21779D01*
X-2405Y22519D01*
X-2048Y23381D01*
X-1926Y24306D01*
Y48956D01*
X-1745Y49031D01*
X-1004Y49599D01*
X-436Y50339D01*
X-271Y50739D01*
X271D01*
X436Y50339D01*
D02*
G37*
G36*
X17503Y9159D02*
X17513Y9044D01*
X17529Y8936D01*
X17552Y8834D01*
X17582Y8737D01*
X17618Y8647D01*
X17660Y8562D01*
X17709Y8483D01*
X17765Y8410D01*
X17827Y8343D01*
X16173D01*
X16235Y8410D01*
X16291Y8483D01*
X16340Y8562D01*
X16382Y8647D01*
X16418Y8737D01*
X16448Y8834D01*
X16471Y8936D01*
X16487Y9044D01*
X16497Y9159D01*
X16500Y9279D01*
X17500D01*
X17503Y9159D01*
D02*
G37*
G36*
X-59834Y21590D02*
X-59249Y21004D01*
X-58562Y20546D01*
X-57753Y20384D01*
X-47586D01*
X-47115Y20478D01*
X-46615Y20097D01*
Y11500D01*
X-46454Y10690D01*
X-45996Y10004D01*
X-43996Y8004D01*
X-43310Y7546D01*
X-42500Y7385D01*
X-34029D01*
X-33796Y7142D01*
X-34008Y6642D01*
X-45299D01*
Y5115D01*
X-48201D01*
Y12625D01*
X-48187D01*
Y19725D01*
X-60701D01*
Y21987D01*
X-60201Y22138D01*
X-59834Y21590D01*
D02*
G37*
G36*
X-22997Y5159D02*
X-22987Y5045D01*
X-22971Y4936D01*
X-22948Y4834D01*
X-22918Y4737D01*
X-22882Y4647D01*
X-22840Y4562D01*
X-22791Y4483D01*
X-22735Y4411D01*
X-22673Y4343D01*
X-24327D01*
X-24265Y4411D01*
X-24209Y4483D01*
X-24160Y4562D01*
X-24118Y4647D01*
X-24082Y4737D01*
X-24052Y4834D01*
X-24029Y4936D01*
X-24013Y5045D01*
X-24003Y5159D01*
X-24000Y5279D01*
X-23000D01*
X-22997Y5159D01*
D02*
G37*
G36*
X-26997D02*
X-26987Y5045D01*
X-26971Y4936D01*
X-26948Y4834D01*
X-26918Y4737D01*
X-26882Y4647D01*
X-26840Y4562D01*
X-26791Y4483D01*
X-26735Y4411D01*
X-26673Y4343D01*
X-28327D01*
X-28265Y4411D01*
X-28209Y4483D01*
X-28160Y4562D01*
X-28118Y4647D01*
X-28082Y4737D01*
X-28052Y4834D01*
X-28029Y4936D01*
X-28013Y5045D01*
X-28003Y5159D01*
X-28000Y5279D01*
X-27000D01*
X-26997Y5159D01*
D02*
G37*
G36*
X-30997D02*
X-30987Y5045D01*
X-30971Y4936D01*
X-30948Y4834D01*
X-30918Y4737D01*
X-30882Y4647D01*
X-30840Y4562D01*
X-30791Y4483D01*
X-30735Y4411D01*
X-30673Y4343D01*
X-32327D01*
X-32265Y4411D01*
X-32209Y4483D01*
X-32160Y4562D01*
X-32118Y4647D01*
X-32082Y4737D01*
X-32052Y4834D01*
X-32029Y4936D01*
X-32013Y5045D01*
X-32003Y5159D01*
X-32000Y5279D01*
X-31000D01*
X-30997Y5159D01*
D02*
G37*
G36*
X49488Y3819D02*
X49397Y3816D01*
X49306Y3803D01*
X49216Y3782D01*
X49126Y3752D01*
X49036Y3714D01*
X48947Y3666D01*
X48859Y3610D01*
X48771Y3545D01*
X48683Y3471D01*
X48596Y3389D01*
X47889Y4096D01*
X47971Y4183D01*
X48045Y4271D01*
X48110Y4359D01*
X48166Y4447D01*
X48214Y4536D01*
X48252Y4626D01*
X48282Y4716D01*
X48303Y4806D01*
X48316Y4897D01*
X48319Y4988D01*
X49488Y3819D01*
D02*
G37*
G36*
X31503Y159D02*
X31513Y45D01*
X31529Y-64D01*
X31552Y-166D01*
X31582Y-263D01*
X31618Y-353D01*
X31660Y-438D01*
X31709Y-517D01*
X31765Y-589D01*
X31827Y-656D01*
X30173D01*
X30235Y-589D01*
X30291Y-517D01*
X30340Y-438D01*
X30382Y-353D01*
X30418Y-263D01*
X30448Y-166D01*
X30471Y-64D01*
X30487Y45D01*
X30497Y159D01*
X30500Y279D01*
X31500D01*
X31503Y159D01*
D02*
G37*
G36*
X-18844Y-2472D02*
X-18911Y-2410D01*
X-18983Y-2355D01*
X-19062Y-2306D01*
X-19147Y-2263D01*
X-19237Y-2227D01*
X-19334Y-2198D01*
X-19436Y-2175D01*
X-19545Y-2159D01*
X-19659Y-2149D01*
X-19779Y-2146D01*
Y-1146D01*
X-19659Y-1142D01*
X-19545Y-1133D01*
X-19436Y-1116D01*
X-19334Y-1093D01*
X-19237Y-1064D01*
X-19147Y-1028D01*
X-19062Y-986D01*
X-18983Y-936D01*
X-18911Y-881D01*
X-18844Y-819D01*
Y-2472D01*
D02*
G37*
G36*
X-10004Y-6724D02*
X-9934Y-6782D01*
X-9857Y-6833D01*
X-9774Y-6877D01*
X-9685Y-6915D01*
X-9590Y-6945D01*
X-9488Y-6969D01*
X-9380Y-6986D01*
X-9266Y-6997D01*
X-9146Y-7000D01*
X-9195Y-8000D01*
X-9315Y-8003D01*
X-9429Y-8012D01*
X-9538Y-8028D01*
X-9641Y-8050D01*
X-9738Y-8078D01*
X-9830Y-8112D01*
X-9917Y-8152D01*
X-9997Y-8199D01*
X-10072Y-8252D01*
X-10142Y-8311D01*
X-10069Y-6659D01*
X-10004Y-6724D01*
D02*
G37*
G36*
X-11754Y-8311D02*
X-11823Y-8252D01*
X-11898Y-8199D01*
X-11979Y-8152D01*
X-12065Y-8112D01*
X-12157Y-8078D01*
X-12254Y-8050D01*
X-12358Y-8028D01*
X-12466Y-8012D01*
X-12581Y-8003D01*
X-12700Y-8000D01*
X-12749Y-7000D01*
X-12629Y-6997D01*
X-12515Y-6986D01*
X-12407Y-6969D01*
X-12306Y-6945D01*
X-12211Y-6915D01*
X-12121Y-6877D01*
X-12038Y-6833D01*
X-11962Y-6782D01*
X-11891Y-6724D01*
X-11827Y-6659D01*
X-11754Y-8311D01*
D02*
G37*
G36*
X-53398Y-7719D02*
X-54278Y-8382D01*
X-54279Y-8361D01*
X-54286Y-8335D01*
X-54301Y-8304D01*
X-54322Y-8269D01*
X-54350Y-8229D01*
X-54427Y-8134D01*
X-54531Y-8022D01*
X-54593Y-7958D01*
X-53755Y-7383D01*
X-53398Y-7719D01*
D02*
G37*
G36*
X-52721Y-8639D02*
X-52714Y-8665D01*
X-52699Y-8696D01*
X-52678Y-8731D01*
X-52650Y-8771D01*
X-52573Y-8866D01*
X-52469Y-8978D01*
X-52407Y-9042D01*
X-53245Y-9618D01*
X-53602Y-9281D01*
X-52722Y-8618D01*
X-52721Y-8639D01*
D02*
G37*
G36*
X30017Y6923D02*
X29504Y6410D01*
X29046Y5724D01*
X28885Y4914D01*
Y270D01*
X28593Y-110D01*
X28315Y-781D01*
X28220Y-1500D01*
X28315Y-2219D01*
X28593Y-2890D01*
X29035Y-3466D01*
X29610Y-3907D01*
X30281Y-4185D01*
X31000Y-4280D01*
X31719Y-4185D01*
X32390Y-3907D01*
X32965Y-3466D01*
X33407Y-2890D01*
X33685Y-2219D01*
X33780Y-1500D01*
X33685Y-781D01*
X33407Y-110D01*
X33115Y270D01*
Y4038D01*
X34462Y5385D01*
X46186D01*
X46393Y4885D01*
X38485Y-3023D01*
X38027Y-3709D01*
X37997Y-3858D01*
X36201D01*
Y-5385D01*
X34449D01*
X33639Y-5546D01*
X32953Y-6004D01*
X28599Y-10358D01*
X24701D01*
X24615Y-9894D01*
Y6124D01*
X25876Y7385D01*
X29825D01*
X30017Y6923D01*
D02*
G37*
G36*
X29697Y-12959D02*
X29614Y-13047D01*
X29542Y-13135D01*
X29479Y-13223D01*
X29426Y-13312D01*
X29383Y-13400D01*
X29350Y-13490D01*
X29327Y-13579D01*
X29314Y-13669D01*
X29310Y-13759D01*
X29317Y-13849D01*
X28018Y-12826D01*
X28107Y-12812D01*
X28196Y-12791D01*
X28285Y-12762D01*
X28373Y-12726D01*
X28461Y-12681D01*
X28549Y-12629D01*
X28636Y-12570D01*
X28723Y-12502D01*
X28810Y-12427D01*
X28897Y-12345D01*
X29697Y-12959D01*
D02*
G37*
G36*
X-18815Y-13603D02*
X-18803Y-13694D01*
X-18782Y-13784D01*
X-18752Y-13874D01*
X-18714Y-13964D01*
X-18666Y-14053D01*
X-18610Y-14141D01*
X-18545Y-14229D01*
X-18471Y-14317D01*
X-18389Y-14404D01*
X-19096Y-15111D01*
X-19183Y-15029D01*
X-19271Y-14955D01*
X-19359Y-14890D01*
X-19447Y-14834D01*
X-19536Y-14786D01*
X-19626Y-14748D01*
X-19716Y-14718D01*
X-19806Y-14697D01*
X-19897Y-14684D01*
X-19988Y-14681D01*
X-18819Y-13512D01*
X-18815Y-13603D01*
D02*
G37*
G36*
X28134Y-15181D02*
X28043Y-15184D01*
X27952Y-15197D01*
X27861Y-15218D01*
X27771Y-15248D01*
X27682Y-15286D01*
X27593Y-15334D01*
X27504Y-15390D01*
X27416Y-15455D01*
X27329Y-15529D01*
X27242Y-15611D01*
X26534Y-14904D01*
X26617Y-14817D01*
X26691Y-14729D01*
X26756Y-14641D01*
X26812Y-14553D01*
X26859Y-14464D01*
X26898Y-14374D01*
X26928Y-14284D01*
X26949Y-14194D01*
X26961Y-14103D01*
X26965Y-14012D01*
X28134Y-15181D01*
D02*
G37*
G36*
X-21889Y-15585D02*
X-21864Y-15606D01*
X-21830Y-15624D01*
X-21785Y-15641D01*
X-21731Y-15654D01*
X-21668Y-15665D01*
X-21594Y-15674D01*
X-21418Y-15684D01*
X-21315Y-15685D01*
X-21329Y-16685D01*
X-21464Y-16686D01*
X-22000Y-16720D01*
X-22044Y-16731D01*
X-22075Y-16743D01*
X-22093Y-16757D01*
X-21903Y-15561D01*
X-21889Y-15585D01*
D02*
G37*
G36*
X60179Y-18849D02*
X60110Y-18789D01*
X60036Y-18735D01*
X59956Y-18687D01*
X59871Y-18646D01*
X59779Y-18611D01*
X59682Y-18582D01*
X59579Y-18560D01*
X59471Y-18544D01*
X59356Y-18535D01*
X59237Y-18531D01*
X59207Y-17531D01*
X59327Y-17528D01*
X59441Y-17518D01*
X59549Y-17501D01*
X59651Y-17478D01*
X59747Y-17448D01*
X59837Y-17411D01*
X59920Y-17367D01*
X59998Y-17317D01*
X60069Y-17260D01*
X60135Y-17196D01*
X60179Y-18849D01*
D02*
G37*
G36*
X-2843Y-19327D02*
X-2911Y-19265D01*
X-2983Y-19209D01*
X-3062Y-19160D01*
X-3147Y-19118D01*
X-3237Y-19082D01*
X-3334Y-19052D01*
X-3436Y-19029D01*
X-3545Y-19013D01*
X-3659Y-19003D01*
X-3779Y-19000D01*
Y-18000D01*
X-3659Y-17997D01*
X-3545Y-17987D01*
X-3436Y-17971D01*
X-3334Y-17948D01*
X-3237Y-17918D01*
X-3147Y-17882D01*
X-3062Y-17840D01*
X-2983Y-17791D01*
X-2911Y-17735D01*
X-2843Y-17673D01*
Y-19327D01*
D02*
G37*
G36*
X50003Y-20203D02*
X50013Y-20318D01*
X50029Y-20426D01*
X50052Y-20528D01*
X50082Y-20625D01*
X50118Y-20715D01*
X50160Y-20800D01*
X50209Y-20879D01*
X50265Y-20952D01*
X50327Y-21019D01*
X48673D01*
X48735Y-20952D01*
X48791Y-20879D01*
X48840Y-20800D01*
X48882Y-20715D01*
X48918Y-20625D01*
X48948Y-20528D01*
X48971Y-20426D01*
X48987Y-20318D01*
X48997Y-20203D01*
X49000Y-20084D01*
X50000D01*
X50003Y-20203D01*
D02*
G37*
G36*
X61765Y-22910D02*
X61709Y-22983D01*
X61660Y-23062D01*
X61618Y-23147D01*
X61582Y-23237D01*
X61552Y-23334D01*
X61529Y-23436D01*
X61513Y-23544D01*
X61503Y-23659D01*
X61500Y-23779D01*
X60500D01*
X60497Y-23659D01*
X60487Y-23544D01*
X60471Y-23436D01*
X60448Y-23334D01*
X60418Y-23237D01*
X60382Y-23147D01*
X60340Y-23062D01*
X60291Y-22983D01*
X60235Y-22910D01*
X60173Y-22843D01*
X61827D01*
X61765Y-22910D01*
D02*
G37*
G36*
X7701Y-23642D02*
X18384D01*
Y-28058D01*
X5362D01*
X4898Y-27966D01*
X-965D01*
Y-22102D01*
X-1134Y-21258D01*
X-1087Y-21105D01*
X-610Y-20907D01*
X-35Y-20466D01*
X407Y-19890D01*
X685Y-19219D01*
X780Y-18500D01*
X729Y-18115D01*
X1123Y-17616D01*
X7701D01*
Y-23642D01*
D02*
G37*
G36*
X15911Y-41590D02*
X15983Y-41645D01*
X16062Y-41694D01*
X16147Y-41737D01*
X16237Y-41773D01*
X16334Y-41802D01*
X16436Y-41825D01*
X16544Y-41841D01*
X16659Y-41851D01*
X16779Y-41854D01*
Y-42854D01*
X16659Y-42858D01*
X16544Y-42867D01*
X16436Y-42884D01*
X16334Y-42907D01*
X16237Y-42936D01*
X16147Y-42972D01*
X16062Y-43014D01*
X15983Y-43064D01*
X15911Y-43119D01*
X15844Y-43181D01*
Y-41528D01*
X15911Y-41590D01*
D02*
G37*
G36*
X43093Y-31915D02*
X30624Y-44385D01*
X24642D01*
Y-40091D01*
Y-34350D01*
X25996Y-32996D01*
X26454Y-32310D01*
X26615Y-31500D01*
Y-18522D01*
X27496Y-17642D01*
X43093D01*
Y-31915D01*
D02*
G37*
G36*
X32885Y-48601D02*
Y-66385D01*
X22814D01*
X22607Y-65885D01*
X23496Y-64996D01*
X23954Y-64310D01*
X24115Y-63500D01*
Y-50500D01*
X23954Y-49690D01*
X23570Y-49115D01*
X23746Y-48615D01*
X31500D01*
X32310Y-48454D01*
X32444Y-48365D01*
X32885Y-48601D01*
D02*
G37*
G36*
X-14089Y-73735D02*
X-14017Y-73791D01*
X-13938Y-73840D01*
X-13853Y-73882D01*
X-13763Y-73918D01*
X-13666Y-73948D01*
X-13564Y-73971D01*
X-13455Y-73987D01*
X-13341Y-73997D01*
X-13221Y-74000D01*
Y-75000D01*
X-13341Y-75003D01*
X-13455Y-75013D01*
X-13564Y-75029D01*
X-13666Y-75052D01*
X-13763Y-75082D01*
X-13853Y-75118D01*
X-13938Y-75160D01*
X-14017Y-75209D01*
X-14089Y-75265D01*
X-14156Y-75327D01*
Y-73673D01*
X-14089Y-73735D01*
D02*
G37*
G36*
X-15844Y-75327D02*
X-15911Y-75265D01*
X-15983Y-75209D01*
X-16062Y-75160D01*
X-16147Y-75118D01*
X-16237Y-75082D01*
X-16334Y-75052D01*
X-16436Y-75029D01*
X-16544Y-75013D01*
X-16659Y-75003D01*
X-16779Y-75000D01*
Y-74000D01*
X-16659Y-73997D01*
X-16544Y-73987D01*
X-16436Y-73971D01*
X-16334Y-73948D01*
X-16237Y-73918D01*
X-16147Y-73882D01*
X-16062Y-73840D01*
X-15983Y-73791D01*
X-15911Y-73735D01*
X-15844Y-73673D01*
Y-75327D01*
D02*
G37*
G36*
X-23589Y-76735D02*
X-23517Y-76791D01*
X-23438Y-76840D01*
X-23353Y-76882D01*
X-23263Y-76918D01*
X-23166Y-76948D01*
X-23064Y-76971D01*
X-22955Y-76987D01*
X-22841Y-76997D01*
X-22721Y-77000D01*
Y-78000D01*
X-22841Y-78003D01*
X-22955Y-78013D01*
X-23064Y-78029D01*
X-23166Y-78052D01*
X-23263Y-78082D01*
X-23353Y-78118D01*
X-23438Y-78160D01*
X-23517Y-78209D01*
X-23589Y-78265D01*
X-23656Y-78327D01*
Y-76673D01*
X-23589Y-76735D01*
D02*
G37*
G36*
X-25343Y-78327D02*
X-25411Y-78265D01*
X-25483Y-78209D01*
X-25562Y-78160D01*
X-25647Y-78118D01*
X-25737Y-78082D01*
X-25834Y-78052D01*
X-25936Y-78029D01*
X-26044Y-78013D01*
X-26159Y-78003D01*
X-26279Y-78000D01*
Y-77000D01*
X-26159Y-76997D01*
X-26044Y-76987D01*
X-25936Y-76971D01*
X-25834Y-76948D01*
X-25737Y-76918D01*
X-25647Y-76882D01*
X-25562Y-76840D01*
X-25483Y-76791D01*
X-25411Y-76735D01*
X-25343Y-76673D01*
Y-78327D01*
D02*
G37*
D16*
X-36354Y-57000D02*
D03*
X-30646D02*
D03*
X39500Y-14000D02*
D03*
X45209D02*
D03*
X39646Y-7500D02*
D03*
X45354D02*
D03*
X-5146Y-64500D02*
D03*
X-10854D02*
D03*
X33854Y-14000D02*
D03*
X28146D02*
D03*
X16854Y-20000D02*
D03*
X11146D02*
D03*
X8354Y-64500D02*
D03*
X2646D02*
D03*
X8354Y-58500D02*
D03*
X2646D02*
D03*
X-69854Y3000D02*
D03*
X-64146D02*
D03*
X-69854Y9500D02*
D03*
X-64146D02*
D03*
X-36146Y-3000D02*
D03*
X-57354Y3000D02*
D03*
X-41854Y-3000D02*
D03*
X-51646Y3000D02*
D03*
X-41854D02*
D03*
X-51646Y9500D02*
D03*
X-64146Y22500D02*
D03*
Y16000D02*
D03*
X-36146Y3000D02*
D03*
X-57354Y9500D02*
D03*
X-69854Y22500D02*
D03*
Y16000D02*
D03*
X-64146Y-3500D02*
D03*
X-69854D02*
D03*
X-64146Y35500D02*
D03*
X-69854D02*
D03*
X-64146Y29000D02*
D03*
X-69854D02*
D03*
D17*
X-30500Y-18646D02*
D03*
Y-24354D02*
D03*
X-49500Y39354D02*
D03*
Y33646D02*
D03*
X21000Y-36646D02*
D03*
Y-42354D02*
D03*
X-24500Y-7354D02*
D03*
Y-1646D02*
D03*
X15000Y-36646D02*
D03*
Y-42354D02*
D03*
X-18000Y-7354D02*
D03*
Y-1646D02*
D03*
D18*
X45150Y24000D02*
D03*
Y29000D02*
D03*
Y34000D02*
D03*
X23850D02*
D03*
Y29000D02*
D03*
Y24000D02*
D03*
Y19000D02*
D03*
X45150D02*
D03*
X-36650Y32000D02*
D03*
X-15350D02*
D03*
Y27000D02*
D03*
Y22000D02*
D03*
Y17000D02*
D03*
X-36650D02*
D03*
Y22000D02*
D03*
Y27000D02*
D03*
D19*
X-71625Y43500D02*
D03*
X-62375D02*
D03*
X-32375Y-10000D02*
D03*
X-41625D02*
D03*
D20*
X15500Y-65240D02*
D03*
Y-61500D02*
D03*
Y-57760D02*
D03*
D22*
X-59150Y-11453D02*
D03*
Y-9484D02*
D03*
Y-7516D02*
D03*
Y-5547D02*
D03*
X-47850D02*
D03*
Y-7516D02*
D03*
Y-9484D02*
D03*
Y-11453D02*
D03*
D23*
X-50547Y-14150D02*
D03*
X-52516D02*
D03*
X-54484D02*
D03*
X-56453D02*
D03*
Y-2850D02*
D03*
X-54484D02*
D03*
X-52516D02*
D03*
X-50547D02*
D03*
D24*
X-29945Y-45921D02*
D03*
Y-43953D02*
D03*
Y-47890D02*
D03*
X1945Y-51827D02*
D03*
Y-49858D02*
D03*
Y-47890D02*
D03*
Y-45921D02*
D03*
Y-43953D02*
D03*
Y-41984D02*
D03*
Y-40016D02*
D03*
Y-38047D02*
D03*
Y-36079D02*
D03*
Y-34110D02*
D03*
Y-32142D02*
D03*
Y-30173D02*
D03*
X-29945D02*
D03*
Y-32142D02*
D03*
Y-34110D02*
D03*
Y-36079D02*
D03*
Y-38047D02*
D03*
Y-40016D02*
D03*
Y-41984D02*
D03*
Y-49858D02*
D03*
Y-51827D02*
D03*
D25*
X16500Y60000D02*
D03*
X5500D02*
D03*
X-5500D02*
D03*
X-16500D02*
D03*
D26*
X11201Y7500D02*
D03*
Y2500D02*
D03*
Y-2500D02*
D03*
Y-7500D02*
D03*
X-11201D02*
D03*
Y-2500D02*
D03*
Y2500D02*
D03*
Y7500D02*
D03*
D27*
X-3173Y-25055D02*
D03*
X-5142D02*
D03*
X-7110D02*
D03*
X-9079D02*
D03*
X-11047D02*
D03*
X-13016D02*
D03*
X-14984D02*
D03*
X-16953D02*
D03*
X-18921D02*
D03*
X-20890D02*
D03*
X-22858D02*
D03*
X-24827D02*
D03*
Y-56945D02*
D03*
X-22858D02*
D03*
X-20890D02*
D03*
X-18921D02*
D03*
X-16953D02*
D03*
X-14984D02*
D03*
X-13016D02*
D03*
X-11047D02*
D03*
X-9079D02*
D03*
X-7110D02*
D03*
X-5142D02*
D03*
X-3173D02*
D03*
D28*
X-58338Y16175D02*
D03*
X-55779D02*
D03*
X-53220D02*
D03*
X-50661D02*
D03*
Y26825D02*
D03*
X-53220D02*
D03*
X-55779D02*
D03*
X-58338D02*
D03*
D45*
X34500Y26500D02*
D03*
X-26000Y24500D02*
D03*
D46*
X-53500Y-8500D02*
D03*
D47*
X-56148Y10706D02*
Y12352D01*
X-57354Y9500D02*
X-56148Y10706D01*
Y12352D02*
X-55779Y12720D01*
X72500Y-5017D02*
Y33500D01*
Y-9500D02*
Y-5017D01*
Y-31500D02*
Y-9500D01*
X-40500Y-40000D02*
X-31000D01*
X-46000Y-45500D02*
X-40500Y-40000D01*
X-46000Y-74500D02*
Y-45500D01*
X69500Y-30500D02*
Y32000D01*
X-39000Y-42000D02*
X-32000D01*
X-43500Y-46500D02*
X-39000Y-42000D01*
X-30646Y-51910D02*
X-30562Y-51827D01*
X-30646Y-57000D02*
Y-51910D01*
X-30562Y-51827D02*
X-29945D01*
X-30400Y-12850D02*
X-29525D01*
X-26000Y-16375D01*
X-32375Y-10875D02*
X-30400Y-12850D01*
X-26000Y-20000D02*
Y-16375D01*
X-24827Y-51241D02*
Y-25055D01*
X-30500Y-7500D02*
X-11201D01*
X1945Y-36079D02*
X19921D01*
X-41000Y-70914D02*
Y-50500D01*
X-40414Y-71500D02*
X36000D01*
X-41000Y-70914D02*
X-40414Y-71500D01*
X36000D02*
X38000Y-69500D01*
X-32375Y-10875D02*
Y-10000D01*
X-26000Y-20000D02*
X-24840Y-21159D01*
Y-25041D02*
Y-21159D01*
Y-25041D02*
X-24827Y-25055D01*
X-10948Y-7500D02*
X-7586D01*
X-11201D02*
X-10948D01*
Y-7448D01*
X-50000Y-18000D02*
X-47000Y-15000D01*
X-34936D01*
X-53500Y-18000D02*
X-50000D01*
X-34350Y-14414D02*
Y-11975D01*
X-34936Y-15000D02*
X-34350Y-14414D01*
Y-11975D02*
X-32375Y-10000D01*
X31767Y62000D02*
X38000D01*
X55000Y45000D01*
X29267Y64500D02*
X31767Y62000D01*
X36500Y59000D02*
X53500Y42000D01*
X29000Y59000D02*
X36500D01*
X55000Y45000D02*
X61000D01*
X72500Y33500D01*
X64000Y-40000D02*
X72500Y-31500D01*
X61000Y-26000D02*
Y-21969D01*
X38000Y-49000D02*
X61000Y-26000D01*
X57968Y-18032D02*
X61000D01*
X63000Y-37000D02*
X69500Y-30500D01*
X-57753Y22500D02*
X-47586D01*
X-47000Y23086D01*
Y25000D02*
X-45000Y27000D01*
X-47000Y23086D02*
Y25000D01*
X-45000Y27000D02*
Y38500D01*
X-49500Y39354D02*
X-45854D01*
X-45000Y38500D01*
X-58338Y23086D02*
X-57753Y22500D01*
X-58338Y23086D02*
Y26825D01*
X-40925Y22000D02*
X-36650D01*
X-42000Y12586D02*
X-41414Y12000D01*
X-42000Y12586D02*
Y20925D01*
X-40925Y22000D01*
X-41414Y12000D02*
X-31500D01*
X-60500Y38500D02*
Y40500D01*
Y38500D02*
X-53113Y31113D01*
Y26932D02*
Y31113D01*
X-53220Y26825D02*
X-53113Y26932D01*
X-23500Y6914D02*
X-22914Y7500D01*
X-11201D01*
X-23500Y3500D02*
Y6914D01*
X-31500Y35500D02*
X-25661D01*
X-44500Y11500D02*
Y24000D01*
Y11500D02*
X-42500Y9500D01*
X-44500Y24000D02*
X-41500Y27000D01*
X-42500Y9500D02*
X-33000D01*
X-31500Y12000D02*
X-27500Y8000D01*
X-19000Y12500D02*
X15500D01*
X-23500Y17000D02*
X-19000Y12500D01*
X-36650Y17000D02*
X-23500D01*
X-27500Y3500D02*
Y8000D01*
X-33000Y9500D02*
X-31500Y8000D01*
Y3500D02*
Y8000D01*
X-25661Y35500D02*
X-17803Y27642D01*
X-17161Y27000D02*
X-15350D01*
X15500Y12500D02*
X17000Y11000D01*
X-54492Y-14157D02*
X-54484Y-14150D01*
X-54492Y-17008D02*
Y-14157D01*
Y-17008D02*
X-53500Y-18000D01*
X-36146Y-3197D02*
Y-3000D01*
Y-3197D02*
X-34350Y-4992D01*
Y-9519D02*
Y-4992D01*
Y-9519D02*
X-33869Y-10000D01*
X-36146Y-3000D02*
Y3000D01*
X-41000Y-50500D02*
X-38390Y-47890D01*
X-29945D01*
X45354Y-7500D02*
X48914D01*
X49500Y-8086D01*
Y-15000D02*
Y-8086D01*
Y-21862D02*
Y-15000D01*
X39981Y-4519D02*
X49500Y5000D01*
X39646Y-7500D02*
X39981Y-7164D01*
Y-4519D01*
X31000Y4914D02*
X33586Y7500D01*
X31000Y-1500D02*
Y4914D01*
X45209Y-32791D02*
Y-14000D01*
X31500Y-46500D02*
X45209Y-32791D01*
Y-14000D02*
X45354Y-13854D01*
Y-7500D01*
X34449D02*
X39646D01*
X28146Y-14000D02*
Y-13803D01*
X34449Y-7500D01*
X20000Y-48500D02*
X22000Y-50500D01*
X11000Y-48500D02*
X20000D01*
X22000Y-63500D02*
Y-50500D01*
X20650Y-64850D02*
X22000Y-63500D01*
X15500Y-65240D02*
X20260D01*
X20650Y-64850D01*
X24500Y-31500D02*
Y-17646D01*
X22456Y-33544D02*
X24500Y-31500D01*
X22456Y-35276D02*
Y-33544D01*
X21000Y-36646D02*
X21086D01*
X22456Y-35276D01*
X15000Y-42354D02*
X21000D01*
X14803D02*
X15000D01*
X10000Y-50500D02*
X14914D01*
X7500Y-48000D02*
X10000Y-50500D01*
X14914D02*
X15500Y-51086D01*
Y-57669D02*
Y-51086D01*
X7500Y-48000D02*
Y-44539D01*
X9500Y-47000D02*
Y-43500D01*
Y-47000D02*
X11000Y-48500D01*
X11500Y-45914D02*
X12086Y-46500D01*
X11500Y-45914D02*
Y-42500D01*
X12086Y-46500D02*
X31500D01*
X9016Y-40016D02*
X11500Y-42500D01*
X1945Y-40016D02*
X9016D01*
X7984Y-41984D02*
X9500Y-43500D01*
X1945Y-41984D02*
X7984D01*
X6914Y-43953D02*
X7500Y-44539D01*
X1945Y-43953D02*
X6914D01*
X10547Y-38047D02*
X13252Y-40752D01*
X1945Y-38047D02*
X10547D01*
X24500Y-17646D02*
X28146Y-14000D01*
X57000Y-19000D02*
X57968Y-18032D01*
X35000Y-47500D02*
X57000Y-25500D01*
Y-19000D01*
X35000Y-67914D02*
Y-47500D01*
X38000Y-69500D02*
Y-49000D01*
X33586Y7500D02*
X53000D01*
X-43500Y-72500D02*
Y-46500D01*
X-41500Y-74500D02*
X-15000D01*
X-43500Y-72500D02*
X-41500Y-74500D01*
X-43000Y-77500D02*
X-24500D01*
X-46000Y-74500D02*
X-43000Y-77500D01*
X56000Y-40000D02*
X64000D01*
X44000Y-52000D02*
X56000Y-40000D01*
X44000Y-73500D02*
Y-52000D01*
X40000Y-77500D02*
X44000Y-73500D01*
X-24500Y-77500D02*
X40000D01*
X38000Y-74500D02*
X41000Y-71500D01*
Y-50500D01*
X-15000Y-74500D02*
X38000D01*
X-24241Y-68500D02*
X34414D01*
X35000Y-67914D01*
X-11047Y-64307D02*
Y-56945D01*
Y-64307D02*
X-10854Y-64500D01*
X-24827Y-67914D02*
X-24241Y-68500D01*
X-24827Y-67914D02*
Y-59084D01*
X2646Y-64500D02*
Y-58500D01*
X-30500Y-25055D02*
X-24827D01*
X1945Y-51827D02*
X2562D01*
X-3000D02*
X1945D01*
X-3173Y-52000D02*
X-3000Y-51827D01*
X-3173Y-52000D02*
X-3173Y-52000D01*
X-33869Y-10000D02*
X-32375D01*
X54500Y-37000D02*
X63000D01*
X41000Y-50500D02*
X54500Y-37000D01*
X17000Y7500D02*
Y11000D01*
X2646Y-58500D02*
Y-51910D01*
X2562Y-51827D02*
X2646Y-51910D01*
X-36500Y-51370D02*
X-34988Y-49858D01*
X-29945D01*
X-3173Y-36079D02*
X1945D01*
X-3173Y-52000D02*
Y-36079D01*
X-24500D02*
X-3173D01*
X-29945Y-51827D02*
X-25413D01*
X-24827Y-51241D01*
X-11201Y2500D02*
X-7586D01*
X-7000Y1914D01*
Y-6914D02*
Y1914D01*
X-7586Y-7500D02*
X-7000Y-6914D01*
X-24000Y-1646D02*
X-18000D01*
X-22815Y-16185D02*
X-21315D01*
X-23000Y-16000D02*
X-22815Y-16185D01*
X-21315D02*
X-16953Y-20547D01*
X-5107Y-62393D02*
X-5000Y-62500D01*
X-5142Y-56945D02*
X-5107Y-56980D01*
Y-62393D02*
Y-56980D01*
X-62484Y-9484D02*
X-59150D01*
X-62500Y-9500D02*
X-62484Y-9484D01*
X29000Y64500D02*
X29267D01*
X-62776Y34000D02*
X-59500D01*
X-55779Y26825D02*
Y30279D01*
X-59500Y34000D02*
X-55779Y30279D01*
X-64146Y35370D02*
Y35500D01*
Y35370D02*
X-62776Y34000D01*
X-41500Y27000D02*
X-36650D01*
X-54484Y-7360D02*
Y-2850D01*
X-52516Y-14150D02*
Y-9640D01*
X-53500Y-8655D02*
X-52516Y-9640D01*
X-53500Y-8655D02*
Y-8500D01*
X-54484Y-7360D02*
X-53500Y-8344D01*
Y-8500D02*
Y-8344D01*
X-52516Y-14150D02*
X-50547D01*
X-47850Y-9484D02*
Y-7516D01*
Y-11453D02*
Y-9484D01*
X-54484Y-2850D02*
X-52516D01*
X-56453D02*
X-54484D01*
X-59150Y-9484D02*
Y-7516D01*
Y-11453D02*
Y-9484D01*
X-55779Y12720D02*
Y16175D01*
X59500Y42000D02*
X69500Y32000D01*
X-4000Y-18500D02*
X-2000D01*
X-4984Y-19484D02*
X-4000Y-18500D01*
X-4500Y-15500D02*
X15000D01*
X-7110Y-18110D02*
X-4500Y-15500D01*
X15000D02*
X18500Y-12000D01*
X-5500Y-13500D02*
X14000D01*
X16500Y-11000D01*
X-9079Y-17079D02*
X-5500Y-13500D01*
X10000Y-11500D02*
X11201Y-10299D01*
X-6500Y-11500D02*
X10000D01*
X-11047Y-16047D02*
X-6500Y-11500D01*
X-14984Y-25039D02*
Y-18516D01*
X-17899Y-15600D02*
X-14984Y-18516D01*
X-20000Y-13500D02*
X-17899Y-15600D01*
X-22858Y-25055D02*
Y-19541D01*
X-16953Y-25055D02*
Y-20547D01*
X53000Y7500D02*
X56000Y10500D01*
X-58500Y-13500D02*
X-57000D01*
X-59121Y-12879D02*
Y-11465D01*
Y-12879D02*
X-58500Y-13500D01*
X20858Y-32142D02*
X22500Y-30500D01*
Y7000D01*
X1945Y-32142D02*
X20858D01*
X-3173Y-56945D02*
Y-52000D01*
X20500Y-29587D02*
Y8000D01*
X1945Y-30173D02*
X19914D01*
X20500Y-29587D01*
X25000Y9500D02*
X52000D01*
X22500Y7000D02*
X25000Y9500D01*
X24000Y11500D02*
X51000D01*
X20500Y8000D02*
X24000Y11500D01*
X18500Y-12000D02*
Y1500D01*
X17500Y2500D02*
X18500Y1500D01*
X53500Y42000D02*
X59500D01*
X53000Y29000D02*
X54000Y28000D01*
X45150Y29000D02*
X53000D01*
X54000Y11500D02*
Y28000D01*
X56000Y10500D02*
Y33000D01*
X52000Y9500D02*
X54000Y11500D01*
X51000D02*
X52000Y12500D01*
Y23000D01*
X55000Y34000D02*
X56000Y33000D01*
X51000Y24000D02*
X52000Y23000D01*
X45150Y34000D02*
X55000D01*
X45150Y24000D02*
X51000D01*
X-5142Y-19642D02*
X-4984Y-19484D01*
X16500Y-11000D02*
Y-3500D01*
X11201Y-10299D02*
Y-7500D01*
X-11047Y-25055D02*
Y-16047D01*
X-9079Y-25055D02*
Y-17079D01*
X-7110Y-25055D02*
Y-18110D01*
X-5142Y-25055D02*
Y-19642D01*
X11201Y2500D02*
X17500D01*
X15500Y-2500D02*
X16500Y-3500D01*
X11201Y-2500D02*
X15500D01*
X-51744Y3000D02*
X-41756D01*
X-59150Y-5547D02*
Y-4086D01*
X-59735Y-3500D02*
X-59150Y-4086D01*
X-51744Y2803D02*
X-50547Y1606D01*
Y-2850D02*
Y1606D01*
X-64146Y-3500D02*
X-59735D01*
X-47265D02*
X-41756D01*
X-47850Y-4086D02*
X-47265Y-3500D01*
X-47850Y-5547D02*
Y-4086D01*
Y-11453D02*
X-42418D01*
D48*
X-49500Y28500D02*
Y33646D01*
D49*
X-71625Y43500D02*
X-70500Y42375D01*
Y36146D02*
X-69854Y35500D01*
X-70500Y36146D02*
Y42375D01*
X-75500Y-9500D02*
Y9500D01*
Y-9500D02*
X-62500D01*
X-69854Y29000D02*
Y35500D01*
X-64146Y16000D02*
Y22500D01*
X-69805Y28852D02*
X-69756Y28902D01*
X-75500Y9500D02*
Y21347D01*
X-74347Y22500D01*
X-69756D01*
X-64146Y22598D02*
Y29000D01*
X-69805Y23049D02*
X-69756Y23000D01*
X-69805Y23049D02*
Y28852D01*
X-63500Y16000D02*
X-59000D01*
X-75500Y9500D02*
X-69854D01*
X-75340Y3000D02*
X-69854D01*
D50*
X-5500Y24306D02*
Y60000D01*
X-11500Y22000D02*
X-7806D01*
X-5500Y24306D01*
X-16500Y33000D02*
Y60000D01*
X18806Y29000D02*
X23850D01*
X16500Y31306D02*
X18806Y29000D01*
X16500Y31306D02*
Y60000D01*
X7806Y19000D02*
X23850D01*
X5500Y21306D02*
X7806Y19000D01*
X5500Y21306D02*
Y60000D01*
D51*
X-51217Y-6216D02*
D03*
X-55783D02*
D03*
Y-10784D02*
D03*
X-51217D02*
D03*
X-53500Y-8500D02*
D03*
D52*
X-52146Y-18000D02*
D03*
X-30500Y-18646D02*
D03*
X-36354Y-57000D02*
D03*
X61000Y-22000D02*
D03*
Y-18000D02*
D03*
X-38500Y33500D02*
D03*
X-23500Y3500D02*
D03*
X-31500Y35500D02*
D03*
X-27500Y3500D02*
D03*
X-31500D02*
D03*
X-10948Y-7448D02*
D03*
X49500Y5000D02*
D03*
Y-21862D02*
D03*
X31000Y-1500D02*
D03*
X15000Y-42354D02*
D03*
X39500Y-14000D02*
D03*
X17000Y7500D02*
D03*
X28146Y-14000D02*
D03*
X11146Y-20000D02*
D03*
X33854Y-14000D02*
D03*
X16854Y-20000D02*
D03*
X8354Y-64500D02*
D03*
Y-58500D02*
D03*
X-36500Y-51370D02*
D03*
X-18000Y-1646D02*
D03*
X-23000Y-16000D02*
D03*
X-15000Y-74500D02*
D03*
X-24500Y-77500D02*
D03*
X-5134Y-62489D02*
D03*
X29000Y64500D02*
D03*
Y59000D02*
D03*
X23850Y24000D02*
D03*
X-55783Y-10784D02*
D03*
X-51217D02*
D03*
Y-6216D02*
D03*
X-53500Y-8500D02*
D03*
X-55783Y-6216D02*
D03*
X31500Y23500D02*
D03*
X34500D02*
D03*
X37500D02*
D03*
Y26500D02*
D03*
Y29500D02*
D03*
X34500D02*
D03*
X31500D02*
D03*
Y26500D02*
D03*
X-23000Y27500D02*
D03*
X-26000D02*
D03*
X-29000D02*
D03*
Y21500D02*
D03*
X-26000D02*
D03*
X-23000D02*
D03*
Y24500D02*
D03*
X-29000D02*
D03*
X-64146Y3000D02*
D03*
Y9500D02*
D03*
X-69854Y-3500D02*
D03*
X47000Y19000D02*
D03*
X43500D02*
D03*
X9500Y7500D02*
D03*
X12500D02*
D03*
X-2000Y-18500D02*
D03*
X-20000Y-13500D02*
D03*
X-22858Y-19541D02*
D03*
X34500Y26500D02*
D03*
X-26000Y24500D02*
D03*
X-51744Y9500D02*
D03*
X-69756Y16000D02*
D03*
X-57354Y3000D02*
D03*
D53*
X-49500Y28500D02*
D03*
D54*
X-52000Y14000D02*
D03*
X-14000Y16882D02*
D03*
X24500Y34000D02*
D03*
D55*
X-61000Y61024D02*
D03*
X61024Y-61000D02*
D03*
X-61000Y-61024D02*
D03*
X61024Y61000D02*
D03*
M02*
