G04*
G04 #@! TF.GenerationSoftware,Altium Limited,Altium Designer,21.9.2 (33)*
G04*
G04 Layer_Color=8388736*
%FSLAX25Y25*%
%MOIN*%
G70*
G04*
G04 #@! TF.SameCoordinates,DDE03FFC-3592-4A1C-B560-7E07A9873239*
G04*
G04*
G04 #@! TF.FilePolarity,Negative*
G04*
G01*
G75*
%ADD19R,0.04950X0.06700*%
%ADD20R,0.06299X0.01181*%
%ADD28R,0.01800X0.03950*%
%ADD29R,0.04540X0.04934*%
%ADD30R,0.04934X0.04540*%
G04:AMPARAMS|DCode=31|XSize=67.06mil|YSize=30.84mil|CornerRadius=6.85mil|HoleSize=0mil|Usage=FLASHONLY|Rotation=180.000|XOffset=0mil|YOffset=0mil|HoleType=Round|Shape=RoundedRectangle|*
%AMROUNDEDRECTD31*
21,1,0.06706,0.01713,0,0,180.0*
21,1,0.05335,0.03084,0,0,180.0*
1,1,0.01371,-0.02667,0.00856*
1,1,0.01371,0.02667,0.00856*
1,1,0.01371,0.02667,-0.00856*
1,1,0.01371,-0.02667,-0.00856*
%
%ADD31ROUNDEDRECTD31*%
G04:AMPARAMS|DCode=32|XSize=97.96mil|YSize=97.96mil|CornerRadius=26.49mil|HoleSize=0mil|Usage=FLASHONLY|Rotation=180.000|XOffset=0mil|YOffset=0mil|HoleType=Round|Shape=RoundedRectangle|*
%AMROUNDEDRECTD32*
21,1,0.09796,0.04498,0,0,180.0*
21,1,0.04498,0.09796,0,0,180.0*
1,1,0.05298,-0.02249,0.02249*
1,1,0.05298,0.02249,0.02249*
1,1,0.05298,0.02249,-0.02249*
1,1,0.05298,-0.02249,-0.02249*
%
%ADD32ROUNDEDRECTD32*%
%ADD33R,0.07414X0.07414*%
G04:AMPARAMS|DCode=34|XSize=41.86mil|YSize=18.24mil|CornerRadius=5.28mil|HoleSize=0mil|Usage=FLASHONLY|Rotation=180.000|XOffset=0mil|YOffset=0mil|HoleType=Round|Shape=RoundedRectangle|*
%AMROUNDEDRECTD34*
21,1,0.04186,0.00768,0,0,180.0*
21,1,0.03130,0.01824,0,0,180.0*
1,1,0.01056,-0.01565,0.00384*
1,1,0.01056,0.01565,0.00384*
1,1,0.01056,0.01565,-0.00384*
1,1,0.01056,-0.01565,-0.00384*
%
%ADD34ROUNDEDRECTD34*%
G04:AMPARAMS|DCode=35|XSize=41.86mil|YSize=18.24mil|CornerRadius=5.28mil|HoleSize=0mil|Usage=FLASHONLY|Rotation=270.000|XOffset=0mil|YOffset=0mil|HoleType=Round|Shape=RoundedRectangle|*
%AMROUNDEDRECTD35*
21,1,0.04186,0.00768,0,0,270.0*
21,1,0.03130,0.01824,0,0,270.0*
1,1,0.01056,-0.00384,-0.01565*
1,1,0.01056,-0.00384,0.01565*
1,1,0.01056,0.00384,0.01565*
1,1,0.01056,0.00384,-0.01565*
%
%ADD35ROUNDEDRECTD35*%
%ADD36O,0.07887X0.01981*%
G04:AMPARAMS|DCode=37|XSize=86.74mil|YSize=204.85mil|CornerRadius=23.68mil|HoleSize=0mil|Usage=FLASHONLY|Rotation=0.000|XOffset=0mil|YOffset=0mil|HoleType=Round|Shape=RoundedRectangle|*
%AMROUNDEDRECTD37*
21,1,0.08674,0.15748,0,0,0.0*
21,1,0.03937,0.20485,0,0,0.0*
1,1,0.04737,0.01968,-0.07874*
1,1,0.04737,-0.01968,-0.07874*
1,1,0.04737,-0.01968,0.07874*
1,1,0.04737,0.01968,0.07874*
%
%ADD37ROUNDEDRECTD37*%
%ADD38R,0.05958X0.03359*%
%ADD39O,0.01981X0.07887*%
%ADD40R,0.02600X0.04750*%
%ADD41C,0.03162*%
%ADD42C,0.04737*%
%ADD43C,0.03950*%
%ADD44C,0.20485*%
D19*
X-71625Y43500D02*
D03*
X-62375D02*
D03*
X-32375Y-10000D02*
D03*
X-41625D02*
D03*
D20*
X15500Y-65240D02*
D03*
Y-61500D02*
D03*
Y-57760D02*
D03*
D28*
X-58338Y16175D02*
D03*
X-55779D02*
D03*
X-53220D02*
D03*
X-50661D02*
D03*
Y26825D02*
D03*
X-55779D02*
D03*
X-58338D02*
D03*
D29*
X-36354Y-57000D02*
D03*
X-30646D02*
D03*
X39500Y-14000D02*
D03*
X45209D02*
D03*
X39646Y-7500D02*
D03*
X45354D02*
D03*
X-5146Y-64500D02*
D03*
X-10854D02*
D03*
X33854Y-14000D02*
D03*
X28146D02*
D03*
X16854Y-20000D02*
D03*
X11146D02*
D03*
X8354Y-64500D02*
D03*
X2646D02*
D03*
X8354Y-58500D02*
D03*
X2646D02*
D03*
X-69854Y3000D02*
D03*
X-64146D02*
D03*
X-69854Y9500D02*
D03*
X-64146D02*
D03*
X-36146Y-3000D02*
D03*
X-57354Y3000D02*
D03*
X-41854Y-3000D02*
D03*
X-51646Y3000D02*
D03*
X-41854D02*
D03*
X-51646Y9500D02*
D03*
X-64146Y22500D02*
D03*
Y16000D02*
D03*
X-36146Y3000D02*
D03*
X-57354Y9500D02*
D03*
X-69854Y22500D02*
D03*
Y16000D02*
D03*
X-64146Y-3500D02*
D03*
X-69854D02*
D03*
X-64146Y35500D02*
D03*
X-69854D02*
D03*
X-64146Y29000D02*
D03*
X-69854D02*
D03*
D30*
X-30500Y-18646D02*
D03*
Y-24354D02*
D03*
X-49500Y39354D02*
D03*
Y33646D02*
D03*
X21000Y-36646D02*
D03*
Y-42354D02*
D03*
X-24500Y-7354D02*
D03*
Y-1646D02*
D03*
X15000Y-36646D02*
D03*
Y-42354D02*
D03*
X-18000Y-7354D02*
D03*
Y-1646D02*
D03*
D31*
X45150Y24000D02*
D03*
Y29000D02*
D03*
Y34000D02*
D03*
X23850D02*
D03*
Y29000D02*
D03*
Y24000D02*
D03*
Y19000D02*
D03*
X45150D02*
D03*
X-36650Y32000D02*
D03*
X-15350D02*
D03*
Y27000D02*
D03*
Y22000D02*
D03*
Y17000D02*
D03*
X-36650D02*
D03*
Y22000D02*
D03*
Y27000D02*
D03*
D32*
X34500Y26500D02*
D03*
X-26000Y24500D02*
D03*
D33*
X-53500Y-8500D02*
D03*
D34*
X-59150Y-11453D02*
D03*
Y-9484D02*
D03*
Y-7516D02*
D03*
Y-5547D02*
D03*
X-47850D02*
D03*
Y-7516D02*
D03*
Y-9484D02*
D03*
Y-11453D02*
D03*
D35*
X-50547Y-14150D02*
D03*
X-52516D02*
D03*
X-54484D02*
D03*
X-56453D02*
D03*
Y-2850D02*
D03*
X-54484D02*
D03*
X-52516D02*
D03*
X-50547D02*
D03*
D36*
X-29945Y-45921D02*
D03*
Y-43953D02*
D03*
Y-47890D02*
D03*
X1945Y-51827D02*
D03*
Y-49858D02*
D03*
Y-47890D02*
D03*
Y-45921D02*
D03*
Y-43953D02*
D03*
Y-41984D02*
D03*
Y-40016D02*
D03*
Y-38047D02*
D03*
Y-36079D02*
D03*
Y-34110D02*
D03*
Y-32142D02*
D03*
Y-30173D02*
D03*
X-29945D02*
D03*
Y-32142D02*
D03*
Y-34110D02*
D03*
Y-36079D02*
D03*
Y-38047D02*
D03*
Y-40016D02*
D03*
Y-41984D02*
D03*
Y-49858D02*
D03*
Y-51827D02*
D03*
D37*
X16500Y60000D02*
D03*
X5500D02*
D03*
X-5500D02*
D03*
X-16500D02*
D03*
D38*
X11201Y7500D02*
D03*
Y2500D02*
D03*
Y-2500D02*
D03*
Y-7500D02*
D03*
X-11201D02*
D03*
Y-2500D02*
D03*
Y2500D02*
D03*
Y7500D02*
D03*
D39*
X-3173Y-25055D02*
D03*
X-5142D02*
D03*
X-7110D02*
D03*
X-9079D02*
D03*
X-11047D02*
D03*
X-13016D02*
D03*
X-14984D02*
D03*
X-16953D02*
D03*
X-18921D02*
D03*
X-20890D02*
D03*
X-22858D02*
D03*
X-24827D02*
D03*
Y-56945D02*
D03*
X-22858D02*
D03*
X-20890D02*
D03*
X-18921D02*
D03*
X-16953D02*
D03*
X-14984D02*
D03*
X-13016D02*
D03*
X-11047D02*
D03*
X-9079D02*
D03*
X-7110D02*
D03*
X-5142D02*
D03*
X-3173D02*
D03*
D40*
X-53220Y26825D02*
D03*
D41*
X-52146Y-18000D02*
D03*
X-30500Y-18646D02*
D03*
X-36354Y-57000D02*
D03*
X61000Y-22000D02*
D03*
Y-18000D02*
D03*
X-38500Y33500D02*
D03*
X-23500Y3500D02*
D03*
X-31500Y35500D02*
D03*
X-27500Y3500D02*
D03*
X-31500D02*
D03*
X-10948Y-7448D02*
D03*
X49500Y5000D02*
D03*
Y-21862D02*
D03*
X31000Y-1500D02*
D03*
X15000Y-42354D02*
D03*
X39500Y-14000D02*
D03*
X17000Y7500D02*
D03*
X28146Y-14000D02*
D03*
X11146Y-20000D02*
D03*
X33854Y-14000D02*
D03*
X16854Y-20000D02*
D03*
X8354Y-64500D02*
D03*
Y-58500D02*
D03*
X-36500Y-51370D02*
D03*
X-18000Y-1646D02*
D03*
X-23000Y-16000D02*
D03*
X-15000Y-74500D02*
D03*
X-24500Y-77500D02*
D03*
X-5134Y-62489D02*
D03*
X29000Y64500D02*
D03*
Y59000D02*
D03*
X23850Y24000D02*
D03*
X-55783Y-10784D02*
D03*
X-51217D02*
D03*
Y-6216D02*
D03*
X-53500Y-8500D02*
D03*
X-55783Y-6216D02*
D03*
X31500Y23500D02*
D03*
X34500D02*
D03*
X37500D02*
D03*
Y26500D02*
D03*
Y29500D02*
D03*
X34500D02*
D03*
X31500D02*
D03*
Y26500D02*
D03*
X-23000Y27500D02*
D03*
X-26000D02*
D03*
X-29000D02*
D03*
Y21500D02*
D03*
X-26000D02*
D03*
X-23000D02*
D03*
Y24500D02*
D03*
X-29000D02*
D03*
X-64146Y3000D02*
D03*
Y9500D02*
D03*
X-69854Y-3500D02*
D03*
X47000Y19000D02*
D03*
X43500D02*
D03*
X9500Y7500D02*
D03*
X12500D02*
D03*
X-2000Y-18500D02*
D03*
X-20000Y-13500D02*
D03*
X-22858Y-19541D02*
D03*
X34500Y26500D02*
D03*
X-26000Y24500D02*
D03*
X-51744Y9500D02*
D03*
X-69756Y16000D02*
D03*
X-57354Y3000D02*
D03*
D42*
X-49500Y28500D02*
D03*
D43*
X-52000Y14000D02*
D03*
X-14000Y16882D02*
D03*
X24500Y34000D02*
D03*
D44*
X-61000Y61024D02*
D03*
X61024Y-61000D02*
D03*
X-61000Y-61024D02*
D03*
X61024Y61000D02*
D03*
M02*
