G04*
G04 #@! TF.GenerationSoftware,Altium Limited,Altium Designer,21.9.2 (33)*
G04*
G04 Layer_Color=16711935*
%FSLAX25Y25*%
%MOIN*%
G70*
G04*
G04 #@! TF.SameCoordinates,DDE03FFC-3592-4A1C-B560-7E07A9873239*
G04*
G04*
G04 #@! TF.FilePolarity,Positive*
G04*
G01*
G75*
%ADD10C,0.00787*%
%ADD13C,0.00500*%
%ADD15C,0.00300*%
%ADD81C,0.00100*%
%ADD82C,0.00000*%
%ADD83C,0.00394*%
D10*
X51035Y19000D02*
X50248D01*
X51035D01*
X-41748Y32000D02*
X-42535D01*
X-41748D01*
X-43362Y-12240D02*
X-44150D01*
X-43362D01*
D13*
X26823Y16854D02*
Y36146D01*
X42177Y16854D02*
Y36146D01*
X26823D02*
X42177D01*
X26823Y16854D02*
X42177D01*
X-33677Y34146D02*
X-18323D01*
X-33677Y14854D02*
X-18323D01*
X-33677D02*
Y34146D01*
X-18323Y14854D02*
Y34146D01*
X-47594Y-14405D02*
Y-2595D01*
X-59405Y-14405D02*
Y-2595D01*
Y-14405D02*
X-47594D01*
X-59405Y-2595D02*
X-47594D01*
D15*
X-59365Y18400D02*
X-56033Y21732D01*
Y18400D02*
X-59365Y21732D01*
X-57699Y18400D02*
Y21732D01*
X-56033Y20066D02*
X-59365D01*
D81*
X-68800Y25250D02*
X-58200D01*
Y45750D01*
X-68800D02*
X-58200D01*
X-68800Y25250D02*
Y45750D01*
X-62450Y40150D02*
Y46850D01*
X-71550Y40150D02*
X-62450D01*
X-71550D02*
Y46850D01*
X-62450D01*
X-55500Y25100D02*
X-44500D01*
Y45900D01*
X-55500D02*
X-44500D01*
X-55500Y25100D02*
Y45900D01*
X-52500Y22100D02*
X-47500D01*
X-50500D02*
X-50000Y19100D01*
X-51000Y22100D02*
X-50000Y19100D01*
X-51500Y22100D02*
X-50000Y19100D01*
X-52000Y22100D02*
X-50000Y19100D01*
X-52500Y22100D02*
X-50000Y19100D01*
X-49500Y22100D01*
X-50000Y19100D02*
X-49000Y22100D01*
X-50000Y19100D02*
X-48500Y22100D01*
X-50000Y19100D02*
X-48000Y22100D01*
X-50000Y19100D02*
X-47500Y22100D01*
X-52500Y19100D02*
X-47500D01*
X-50000Y18100D02*
Y23100D01*
X24900Y-15500D02*
X37100D01*
X24900D02*
Y-500D01*
X37100D01*
Y-15500D02*
Y-500D01*
X-41550Y-13350D02*
Y-6650D01*
X-32450D01*
Y-13350D02*
Y-6650D01*
X-41550Y-13350D02*
X-32450D01*
X8400Y-15500D02*
X20600D01*
X8400D02*
Y-500D01*
X20600D01*
Y-15500D02*
Y-500D01*
X-59139Y18150D02*
X-57538D01*
X-59139Y15600D02*
Y18150D01*
Y15600D02*
X-57538D01*
Y18150D01*
X-56580D02*
X-54979D01*
X-56580Y15600D02*
Y18150D01*
Y15600D02*
X-54979D01*
Y18150D01*
X-54021D02*
X-52421D01*
X-54021Y15600D02*
Y18150D01*
Y15600D02*
X-52421D01*
Y18150D01*
X-51461D02*
X-49861D01*
X-51461Y15600D02*
Y18150D01*
Y15600D02*
X-49861D01*
Y18150D01*
X-51461Y24850D02*
X-49861D01*
Y27400D01*
X-51461D02*
X-49861D01*
X-51461Y24850D02*
Y27400D01*
X-54021Y24850D02*
X-52421D01*
Y27400D01*
X-54021D02*
X-52421D01*
X-54021Y24850D02*
Y27400D01*
X-56580Y24850D02*
X-54979D01*
Y27400D01*
X-56580D02*
X-54979D01*
X-56580Y24850D02*
Y27400D01*
X-59139Y24850D02*
X-57538D01*
Y27400D01*
X-59139D02*
X-57538D01*
X-59139Y24850D02*
Y27400D01*
X-48500Y18150D02*
Y24850D01*
X-60500D02*
X-48500D01*
X-60500Y18150D02*
Y24850D01*
Y18150D02*
X-48500D01*
D82*
X-63200Y26250D02*
X-63800D01*
X-63200D01*
X-60500Y20300D02*
X-59651Y20651D01*
X-59300Y21500D01*
X-59651Y22348D01*
X-60500Y22700D01*
D83*
X-4331Y7087D02*
X-4775Y8010D01*
X-5775Y8238D01*
X-6576Y7599D01*
Y6574D01*
X-5775Y5935D01*
X-4775Y6163D01*
X-4331Y7087D01*
X-1795Y-51236D02*
X-2059Y-50252D01*
X-2780Y-49531D01*
X-3764Y-49268D01*
X-4748Y-49531D01*
X-5469Y-50252D01*
X-5732Y-51236D01*
X-5469Y-52220D01*
X-4748Y-52941D01*
X-3764Y-53205D01*
X-2780Y-52941D01*
X-2059Y-52220D01*
X-1795Y-51236D01*
X-58346Y-25772D02*
Y-22228D01*
X-51653Y-25772D02*
Y-22228D01*
X-58346Y-25772D02*
X-51653D01*
X-58346Y-22228D02*
X-51653D01*
X-58346Y-19772D02*
Y-16228D01*
X-51653Y-19772D02*
Y-16228D01*
X-58346Y-19772D02*
X-51653D01*
X-58346Y-16228D02*
X-51653D01*
X-36847Y-58772D02*
Y-55228D01*
X-30154Y-58772D02*
Y-55228D01*
X-36847D02*
X-30154D01*
X-36847Y-58772D02*
X-30154D01*
X-32272Y-18154D02*
X-28728D01*
X-32272Y-24847D02*
X-28728D01*
Y-18154D01*
X-32272Y-24847D02*
Y-18154D01*
X-51468Y32957D02*
Y40043D01*
X-47532Y32957D02*
Y40043D01*
X-51468Y32957D02*
X-47532D01*
X-51468Y40043D02*
X-47532D01*
X-39543Y33531D02*
X-32457D01*
X-39543Y37468D02*
X-32457D01*
X-39543Y33531D02*
Y37468D01*
X-32457Y33531D02*
Y37468D01*
X39008Y-15772D02*
Y-12228D01*
X45701Y-15772D02*
Y-12228D01*
X39008D02*
X45701D01*
X39008Y-15772D02*
X45701D01*
X39154Y-9272D02*
Y-5728D01*
X45847Y-9272D02*
Y-5728D01*
X39154D02*
X45847D01*
X39154Y-9272D02*
X45847D01*
X-11347Y-66272D02*
X-4654D01*
X-11347Y-62728D02*
X-4654D01*
Y-66272D02*
Y-62728D01*
X-11347Y-66272D02*
Y-62728D01*
X22772Y-42847D02*
Y-36154D01*
X19228Y-42847D02*
Y-36154D01*
X22772D01*
X19228Y-42847D02*
X22772D01*
X22031Y15457D02*
Y22543D01*
X25969Y15457D02*
Y22543D01*
X22031D02*
X25969D01*
X22031Y15457D02*
X25969D01*
X27654Y-15772D02*
X34347D01*
X27654Y-12228D02*
X34347D01*
Y-15772D02*
Y-12228D01*
X27654Y-15772D02*
Y-12228D01*
X10654Y-21772D02*
X17346D01*
X10654Y-18228D02*
X17346D01*
Y-21772D02*
Y-18228D01*
X10654Y-21772D02*
Y-18228D01*
X-26272Y-7846D02*
Y-1154D01*
X-22728Y-7846D02*
Y-1154D01*
X-26272Y-7846D02*
X-22728D01*
X-26272Y-1154D02*
X-22728D01*
X16772Y-42847D02*
Y-36154D01*
X13228Y-42847D02*
Y-36154D01*
X16772D01*
X13228Y-42847D02*
X16772D01*
X2153Y-66272D02*
X8846D01*
X2153Y-62728D02*
X8846D01*
Y-66272D02*
Y-62728D01*
X2153Y-66272D02*
Y-62728D01*
Y-60272D02*
X8846D01*
X2153Y-56728D02*
X8846D01*
Y-60272D02*
Y-56728D01*
X2153Y-60272D02*
Y-56728D01*
X-19772Y-7846D02*
Y-1154D01*
X-16228Y-7846D02*
Y-1154D01*
X-19772Y-7846D02*
X-16228D01*
X-19772Y-1154D02*
X-16228D01*
X-70346Y4772D02*
X-63653D01*
X-70346Y1228D02*
X-63653D01*
X-70346D02*
Y4772D01*
X-63653Y1228D02*
Y4772D01*
X-70346Y11272D02*
X-63653D01*
X-70346Y7728D02*
X-63653D01*
X-70346D02*
Y11272D01*
X-63653Y7728D02*
Y11272D01*
X-70346Y-5272D02*
X-63653D01*
X-70346Y-1728D02*
X-63653D01*
Y-5272D02*
Y-1728D01*
X-70346Y-5272D02*
Y-1728D01*
X-1969Y0D02*
X1969D01*
X0Y-1969D02*
Y1969D01*
X-7874Y-9843D02*
X7874D01*
X-7874Y9843D02*
X7874D01*
Y-9843D02*
Y9843D01*
X-7874Y-9843D02*
Y9843D01*
X-221Y-54779D02*
Y-27220D01*
X-27779Y-54779D02*
Y-27220D01*
Y-54779D02*
X-221D01*
X-27779Y-27220D02*
X-221D01*
X-42543Y4969D02*
X-35457D01*
X-42543Y1032D02*
X-35457D01*
X-42543D02*
Y4969D01*
X-35457Y1032D02*
Y4969D01*
X-58043Y11468D02*
X-50957D01*
X-58043Y7531D02*
X-50957D01*
X-58043D02*
Y11468D01*
X-50957Y7531D02*
Y11468D01*
X-58043Y1032D02*
X-50957D01*
X-58043Y4969D02*
X-50957D01*
Y1032D02*
Y4969D01*
X-58043Y1032D02*
Y4969D01*
X-70543Y24468D02*
X-63457D01*
X-70543Y20531D02*
X-63457D01*
X-70543D02*
Y24468D01*
X-63457Y20531D02*
Y24468D01*
X-63653Y33728D02*
Y37272D01*
X-70346Y33728D02*
Y37272D01*
Y33728D02*
X-63653D01*
X-70346Y37272D02*
X-63653D01*
Y27228D02*
Y30772D01*
X-70346Y27228D02*
Y30772D01*
Y27228D02*
X-63653D01*
X-70346Y30772D02*
X-63653D01*
X-70543Y14031D02*
X-63457D01*
X-70543Y17968D02*
X-63457D01*
Y14031D02*
Y17968D01*
X-70543Y14031D02*
Y17968D01*
X-42543Y-1032D02*
X-35457D01*
X-42543Y-4969D02*
X-35457D01*
X-42543D02*
Y-1032D01*
X-35457Y-4969D02*
Y-1032D01*
M02*
