M48
;Layer_Color=9474304
;FILE_FORMAT=2:4
INCH,TZ
;TYPE=PLATED
T1F00S00C0.0118
T2F00S00C0.0157
T3F00S00C0.0197
T4F00S00C0.1260
%
T01
X-2450Y-7750
X-1500Y-7450
X-513Y-6249
X835Y-6450
Y-5850
X1500Y-4235
X1685Y-2000
X1115
X-200Y-1850
X-1095Y-745
X-1800Y-165
X-2350Y350
X-2750
X-3150
X-2900Y2150
X-2600
X-2300
Y2450
Y2750
X-2600
X-2900
Y2450
X-2600
X-3150Y3550
X-3850Y3350
X-5200Y1400
X-5174Y950
X-5735Y300
X-6415
Y950
X-6976Y1600
X-6985Y-350
X-5578Y-622
Y-1078
X-5122
Y-622
X-5350Y-850
X-5215Y-1800
X-3050Y-1865
X-2286Y-1954
X-2300Y-1600
X-2000Y-1350
X2815Y-1400
X3385
X3950
X4950Y-2186
X6100Y-2200
Y-1800
X4950Y500
X4700Y1900
X4350
X3750Y2350
X3450
X3150
Y2650
Y2950
X3450
X3750
Y2650
X3450
X2385Y2400
X1700Y750
X1250
X950
X3100Y-150
X2900Y5900
X-3650Y-5137
X-3635Y-5700
X2900Y6450
T02
X-1400Y1688
X2450Y3400
T03
X-4950Y2850
T04
X-6100Y-6102
X6102Y-6100
Y6100
X-6100Y6102
M30
