G04*
G04 #@! TF.GenerationSoftware,Altium Limited,Altium Designer,21.9.2 (33)*
G04*
G04 Layer_Color=8421504*
%FSLAX25Y25*%
%MOIN*%
G70*
G04*
G04 #@! TF.SameCoordinates,DDE03FFC-3592-4A1C-B560-7E07A9873239*
G04*
G04*
G04 #@! TF.FilePolarity,Positive*
G04*
G01*
G75*
%ADD16R,0.03740X0.04134*%
%ADD17R,0.04134X0.03740*%
G04:AMPARAMS|DCode=18|XSize=59.06mil|YSize=22.84mil|CornerRadius=2.85mil|HoleSize=0mil|Usage=FLASHONLY|Rotation=180.000|XOffset=0mil|YOffset=0mil|HoleType=Round|Shape=RoundedRectangle|*
%AMROUNDEDRECTD18*
21,1,0.05906,0.01713,0,0,180.0*
21,1,0.05335,0.02284,0,0,180.0*
1,1,0.00571,-0.02667,0.00856*
1,1,0.00571,0.02667,0.00856*
1,1,0.00571,0.02667,-0.00856*
1,1,0.00571,-0.02667,-0.00856*
%
%ADD18ROUNDEDRECTD18*%
%ADD19R,0.04950X0.06700*%
%ADD20R,0.06299X0.01181*%
%ADD21R,0.04173X0.04173*%
G04:AMPARAMS|DCode=22|XSize=33.86mil|YSize=10.24mil|CornerRadius=1.28mil|HoleSize=0mil|Usage=FLASHONLY|Rotation=180.000|XOffset=0mil|YOffset=0mil|HoleType=Round|Shape=RoundedRectangle|*
%AMROUNDEDRECTD22*
21,1,0.03386,0.00768,0,0,180.0*
21,1,0.03130,0.01024,0,0,180.0*
1,1,0.00256,-0.01565,0.00384*
1,1,0.00256,0.01565,0.00384*
1,1,0.00256,0.01565,-0.00384*
1,1,0.00256,-0.01565,-0.00384*
%
%ADD22ROUNDEDRECTD22*%
G04:AMPARAMS|DCode=23|XSize=33.86mil|YSize=10.24mil|CornerRadius=1.28mil|HoleSize=0mil|Usage=FLASHONLY|Rotation=270.000|XOffset=0mil|YOffset=0mil|HoleType=Round|Shape=RoundedRectangle|*
%AMROUNDEDRECTD23*
21,1,0.03386,0.00768,0,0,270.0*
21,1,0.03130,0.01024,0,0,270.0*
1,1,0.00256,-0.00384,-0.01565*
1,1,0.00256,-0.00384,0.01565*
1,1,0.00256,0.00384,0.01565*
1,1,0.00256,0.00384,-0.01565*
%
%ADD23ROUNDEDRECTD23*%
%ADD24O,0.07087X0.01181*%
G04:AMPARAMS|DCode=25|XSize=78.74mil|YSize=196.85mil|CornerRadius=19.68mil|HoleSize=0mil|Usage=FLASHONLY|Rotation=0.000|XOffset=0mil|YOffset=0mil|HoleType=Round|Shape=RoundedRectangle|*
%AMROUNDEDRECTD25*
21,1,0.07874,0.15748,0,0,0.0*
21,1,0.03937,0.19685,0,0,0.0*
1,1,0.03937,0.01968,-0.07874*
1,1,0.03937,-0.01968,-0.07874*
1,1,0.03937,-0.01968,0.07874*
1,1,0.03937,0.01968,0.07874*
%
%ADD25ROUNDEDRECTD25*%
%ADD26R,0.05158X0.02559*%
%ADD27O,0.01181X0.07087*%
%ADD28R,0.01800X0.03950*%
G36*
X-26551Y21114D02*
X-29386D01*
Y23949D01*
X-26551D01*
Y21114D01*
D02*
G37*
G36*
Y25051D02*
X-29386D01*
Y27886D01*
X-26551D01*
Y25051D01*
D02*
G37*
G36*
X-22614Y21114D02*
X-25449D01*
Y23949D01*
X-22614D01*
Y21114D01*
D02*
G37*
G36*
Y25051D02*
X-25449D01*
Y27886D01*
X-22614D01*
Y25051D01*
D02*
G37*
G36*
X31114Y25949D02*
X33949D01*
Y23114D01*
X31114D01*
Y25949D01*
D02*
G37*
G36*
Y29886D02*
X33949D01*
Y27051D01*
X31114D01*
Y29886D01*
D02*
G37*
G36*
X35051Y25949D02*
X37886D01*
Y23114D01*
X35051D01*
Y25949D01*
D02*
G37*
G36*
Y29886D02*
X37886D01*
Y27051D01*
X35051D01*
Y29886D01*
D02*
G37*
D16*
X-36354Y-57000D02*
D03*
X-30646D02*
D03*
X39500Y-14000D02*
D03*
X45209D02*
D03*
X39646Y-7500D02*
D03*
X45354D02*
D03*
X-5146Y-64500D02*
D03*
X-10854D02*
D03*
X33854Y-14000D02*
D03*
X28146D02*
D03*
X16854Y-20000D02*
D03*
X11146D02*
D03*
X8354Y-64500D02*
D03*
X2646D02*
D03*
X8354Y-58500D02*
D03*
X2646D02*
D03*
X-69854Y3000D02*
D03*
X-64146D02*
D03*
X-69854Y9500D02*
D03*
X-64146D02*
D03*
X-36146Y-3000D02*
D03*
X-57354Y3000D02*
D03*
X-41854Y-3000D02*
D03*
X-51646Y3000D02*
D03*
X-41854D02*
D03*
X-51646Y9500D02*
D03*
X-64146Y22500D02*
D03*
Y16000D02*
D03*
X-36146Y3000D02*
D03*
X-57354Y9500D02*
D03*
X-69854Y22500D02*
D03*
Y16000D02*
D03*
X-64146Y-3500D02*
D03*
X-69854D02*
D03*
X-64146Y35500D02*
D03*
X-69854D02*
D03*
X-64146Y29000D02*
D03*
X-69854D02*
D03*
D17*
X-30500Y-18646D02*
D03*
Y-24354D02*
D03*
X-49500Y39354D02*
D03*
Y33646D02*
D03*
X21000Y-36646D02*
D03*
Y-42354D02*
D03*
X-24500Y-7354D02*
D03*
Y-1646D02*
D03*
X15000Y-36646D02*
D03*
Y-42354D02*
D03*
X-18000Y-7354D02*
D03*
Y-1646D02*
D03*
D18*
X45150Y24000D02*
D03*
Y29000D02*
D03*
Y34000D02*
D03*
X23850D02*
D03*
Y29000D02*
D03*
Y24000D02*
D03*
Y19000D02*
D03*
X45150D02*
D03*
X-36650Y32000D02*
D03*
X-15350D02*
D03*
Y27000D02*
D03*
Y22000D02*
D03*
Y17000D02*
D03*
X-36650D02*
D03*
Y22000D02*
D03*
Y27000D02*
D03*
D19*
X-71625Y43500D02*
D03*
X-62375D02*
D03*
X-32375Y-10000D02*
D03*
X-41625D02*
D03*
D20*
X15500Y-65240D02*
D03*
Y-61500D02*
D03*
Y-57760D02*
D03*
D21*
X-53500Y-8500D02*
D03*
D22*
X-59150Y-11453D02*
D03*
Y-9484D02*
D03*
Y-7516D02*
D03*
Y-5547D02*
D03*
X-47850D02*
D03*
Y-7516D02*
D03*
Y-9484D02*
D03*
Y-11453D02*
D03*
D23*
X-50547Y-14150D02*
D03*
X-52516D02*
D03*
X-54484D02*
D03*
X-56453D02*
D03*
Y-2850D02*
D03*
X-54484D02*
D03*
X-52516D02*
D03*
X-50547D02*
D03*
D24*
X-29945Y-45921D02*
D03*
Y-43953D02*
D03*
Y-47890D02*
D03*
X1945Y-51827D02*
D03*
Y-49858D02*
D03*
Y-47890D02*
D03*
Y-45921D02*
D03*
Y-43953D02*
D03*
Y-41984D02*
D03*
Y-40016D02*
D03*
Y-38047D02*
D03*
Y-36079D02*
D03*
Y-34110D02*
D03*
Y-32142D02*
D03*
Y-30173D02*
D03*
X-29945D02*
D03*
Y-32142D02*
D03*
Y-34110D02*
D03*
Y-36079D02*
D03*
Y-38047D02*
D03*
Y-40016D02*
D03*
Y-41984D02*
D03*
Y-49858D02*
D03*
Y-51827D02*
D03*
D25*
X16500Y60000D02*
D03*
X5500D02*
D03*
X-5500D02*
D03*
X-16500D02*
D03*
D26*
X11201Y7500D02*
D03*
Y2500D02*
D03*
Y-2500D02*
D03*
Y-7500D02*
D03*
X-11201D02*
D03*
Y-2500D02*
D03*
Y2500D02*
D03*
Y7500D02*
D03*
D27*
X-3173Y-25055D02*
D03*
X-5142D02*
D03*
X-7110D02*
D03*
X-9079D02*
D03*
X-11047D02*
D03*
X-13016D02*
D03*
X-14984D02*
D03*
X-16953D02*
D03*
X-18921D02*
D03*
X-20890D02*
D03*
X-22858D02*
D03*
X-24827D02*
D03*
Y-56945D02*
D03*
X-22858D02*
D03*
X-20890D02*
D03*
X-18921D02*
D03*
X-16953D02*
D03*
X-14984D02*
D03*
X-13016D02*
D03*
X-11047D02*
D03*
X-9079D02*
D03*
X-7110D02*
D03*
X-5142D02*
D03*
X-3173D02*
D03*
D28*
X-58338Y16175D02*
D03*
X-55779D02*
D03*
X-53220D02*
D03*
X-50661D02*
D03*
Y26825D02*
D03*
X-53220D02*
D03*
X-55779D02*
D03*
X-58338D02*
D03*
M02*
