G04*
G04 #@! TF.GenerationSoftware,Altium Limited,Altium Designer,21.9.2 (33)*
G04*
G04 Layer_Color=32896*
%FSLAX25Y25*%
%MOIN*%
G70*
G04*
G04 #@! TF.SameCoordinates,DDE03FFC-3592-4A1C-B560-7E07A9873239*
G04*
G04*
G04 #@! TF.FilePolarity,Positive*
G04*
G01*
G75*
%ADD10C,0.00787*%
%ADD11C,0.00984*%
%ADD14C,0.00600*%
%ADD47C,0.01000*%
%ADD81C,0.00100*%
G36*
X-58200Y17600D02*
X-57700D01*
Y22400D01*
X-58200D01*
Y17600D01*
D02*
G37*
G36*
X-55800Y22400D02*
X-56300D01*
Y17600D01*
X-55800D01*
Y22400D01*
D02*
G37*
D10*
X-39370Y49146D02*
X-28642D01*
X28642D02*
X39370D01*
Y63811D01*
X-32185Y79854D02*
X32185D01*
X-39370Y49146D02*
Y63811D01*
X39370Y-63811D02*
Y-49146D01*
X-32185Y-79854D02*
X32185D01*
X-39370Y-63811D02*
Y-49146D01*
X-28642D01*
X28642D02*
X39370D01*
X57177Y-19205D02*
Y-17728D01*
Y-11232D02*
Y5205D01*
X41823D02*
X46055D01*
X52945D02*
X57177D01*
X41823Y-19205D02*
Y-2768D01*
Y3728D02*
Y5205D01*
Y-19205D02*
X46055D01*
X52945D02*
X57177D01*
D11*
X25098Y35071D02*
X24360Y35497D01*
Y34645D01*
X25098Y35071D01*
X-24114Y-35071D02*
X-24852Y-34645D01*
Y-35497D01*
X-24114Y-35071D01*
X50189Y-27177D02*
X49451Y-26751D01*
Y-27603D01*
X50189Y-27177D01*
D14*
X-63200Y20250D02*
X-63800D01*
X-63200D01*
X-59040Y46250D02*
X-57700D01*
X-69300Y24750D02*
X-67960D01*
X-59040D02*
X-57700D01*
Y46250D01*
X-69300D02*
X-67960D01*
X-69300Y24750D02*
Y46250D01*
X-56000Y24600D02*
X-54560D01*
X-45440D02*
X-44000D01*
Y46400D01*
X-56000D02*
X-54560D01*
X-56000Y24600D02*
Y46400D01*
X-52500Y22100D02*
X-47500D01*
X-50500D02*
X-50000Y19100D01*
X-51000Y22100D02*
X-50000Y19100D01*
X-51500Y22100D02*
X-50000Y19100D01*
X-52000Y22100D02*
X-50000Y19100D01*
X-52500Y22100D02*
X-50000Y19100D01*
X-49500Y22100D01*
X-50000Y19100D02*
X-49000Y22100D01*
X-50000Y19100D02*
X-48500Y22100D01*
X-50000Y19100D02*
X-48000Y22100D01*
X-50000Y19100D02*
X-47500Y22100D01*
X-52500Y19100D02*
X-47500D01*
X-50000Y18100D02*
Y23100D01*
X-45440Y46400D02*
X-44000D01*
X35460Y0D02*
X37600D01*
X24400Y-10453D02*
Y0D01*
X26540D01*
X37600Y-10453D02*
Y0D01*
X18960D02*
X21100D01*
X7900Y-10453D02*
Y0D01*
X10040D01*
X21100Y-10453D02*
Y0D01*
D47*
X64004Y-12126D02*
X72716D01*
X64004Y-27874D02*
X73244D01*
X80736Y-22842D02*
X80736Y-16980D01*
X64004Y-15492D02*
Y-12126D01*
Y-27874D02*
Y-24331D01*
D81*
X-56300Y17600D02*
X-55800D01*
X-56300Y22400D02*
X-55800D01*
X-56300Y17600D02*
Y22400D01*
X-55800Y17600D02*
Y22400D01*
X-58200Y17600D02*
Y22400D01*
X-57700Y17600D02*
Y22400D01*
X-58200D02*
X-57700D01*
X-58200Y17600D02*
X-57700D01*
M02*
