G04*
G04 #@! TF.GenerationSoftware,Altium Limited,Altium Designer,21.9.2 (33)*
G04*
G04 Layer_Physical_Order=2*
G04 Layer_Color=16711680*
%FSLAX25Y25*%
%MOIN*%
G70*
G04*
G04 #@! TF.SameCoordinates,DDE03FFC-3592-4A1C-B560-7E07A9873239*
G04*
G04*
G04 #@! TF.FilePolarity,Positive*
G04*
G01*
G75*
%ADD16R,0.03740X0.04134*%
%ADD47C,0.01000*%
%ADD49C,0.01968*%
%ADD51C,0.01575*%
%ADD52C,0.02362*%
%ADD53C,0.03937*%
%ADD54C,0.03150*%
%ADD55C,0.19685*%
%ADD56R,0.06102X0.02362*%
%ADD57R,0.07087X0.04724*%
%ADD58R,0.06300X0.08500*%
%ADD59R,0.05118X0.17717*%
%ADD60R,0.07087X0.15354*%
%ADD61R,0.06500X0.08600*%
G04:AMPARAMS|DCode=62|XSize=59.06mil|YSize=39.37mil|CornerRadius=9.84mil|HoleSize=0mil|Usage=FLASHONLY|Rotation=90.000|XOffset=0mil|YOffset=0mil|HoleType=Round|Shape=RoundedRectangle|*
%AMROUNDEDRECTD62*
21,1,0.05906,0.01968,0,0,90.0*
21,1,0.03937,0.03937,0,0,90.0*
1,1,0.01968,0.00984,0.01968*
1,1,0.01968,0.00984,-0.01968*
1,1,0.01968,-0.00984,-0.01968*
1,1,0.01968,-0.00984,0.01968*
%
%ADD62ROUNDEDRECTD62*%
%ADD63R,0.03937X0.04331*%
%ADD64R,0.03937X0.05709*%
%ADD65R,0.01575X0.03543*%
%ADD66R,0.04331X0.03937*%
%ADD67R,0.06299X0.05906*%
%ADD68R,0.04700X0.04700*%
%ADD69R,0.07087X0.07087*%
%ADD70R,0.09055X0.09055*%
%ADD71C,0.07874*%
%ADD72C,0.05906*%
%ADD73C,0.04724*%
G36*
X32087Y82217D02*
X32087D01*
Y77531D01*
X-20535D01*
X-21717Y77376D01*
X-22819Y76919D01*
X-23765Y76194D01*
X-23765Y76194D01*
X-51883Y48075D01*
X-54825D01*
Y47306D01*
X-55300D01*
X-55914Y47183D01*
X-56435Y46835D01*
X-56615Y46567D01*
X-57185D01*
X-57265Y46685D01*
X-57785Y47033D01*
X-58400Y47156D01*
X-58775D01*
Y47925D01*
X-68225D01*
Y47156D01*
X-68600D01*
X-69214Y47033D01*
X-69735Y46685D01*
X-70083Y46165D01*
X-70206Y45550D01*
Y25450D01*
X-70083Y24836D01*
X-69735Y24315D01*
X-69214Y23967D01*
X-68600Y23844D01*
X-66850D01*
X-66236Y23967D01*
X-65715Y24315D01*
X-65367Y24836D01*
X-65244Y25450D01*
Y31744D01*
X-61756D01*
Y25450D01*
X-61633Y24836D01*
X-61285Y24315D01*
X-60764Y23967D01*
X-60150Y23844D01*
X-58400D01*
X-57785Y23967D01*
X-57265Y24315D01*
X-57200Y24411D01*
X-56599Y24410D01*
X-56435Y24165D01*
X-55914Y23817D01*
X-55487Y23732D01*
X-55275Y23357D01*
X-55260Y23318D01*
X-55246Y23194D01*
X-55477Y22637D01*
X-55565Y21969D01*
Y18032D01*
X-55477Y17364D01*
X-55219Y16741D01*
X-54809Y16207D01*
X-54274Y15797D01*
X-53652Y15539D01*
X-52984Y15451D01*
X-51015D01*
X-50347Y15539D01*
X-49725Y15797D01*
X-49190Y16207D01*
X-48780Y16741D01*
X-48522Y17364D01*
X-48434Y18032D01*
Y21969D01*
X-48494Y22425D01*
X-48155Y22925D01*
X-45175D01*
Y23694D01*
X-44700D01*
X-44085Y23817D01*
X-43565Y24165D01*
X-43217Y24686D01*
X-43094Y25300D01*
Y43947D01*
X-18644Y68398D01*
X32087D01*
Y65560D01*
X31587Y65495D01*
X31568Y65564D01*
X31205Y66192D01*
X30692Y66705D01*
X30064Y67068D01*
X29363Y67256D01*
X28637D01*
X27936Y67068D01*
X27308Y66705D01*
X26795Y66192D01*
X26432Y65564D01*
X26333Y65193D01*
X26080Y64941D01*
X-14175D01*
X-14984Y64780D01*
X-15671Y64321D01*
X-23366Y56626D01*
X-28740D01*
Y37232D01*
X-29240Y37098D01*
X-29295Y37192D01*
X-29701Y37598D01*
Y39240D01*
X-36787D01*
Y31760D01*
X-29701D01*
Y33402D01*
X-29295Y33808D01*
X-28932Y34436D01*
X-28744Y35137D01*
Y35261D01*
X-28740Y35760D01*
X-20472Y35760D01*
Y53536D01*
X-19360Y54649D01*
X-18898Y54457D01*
Y35760D01*
X-10630D01*
Y56626D01*
X-12648D01*
Y58038D01*
X-12302Y58385D01*
X26312D01*
X26432Y57936D01*
X26500Y57818D01*
Y56626D01*
X20472D01*
Y35760D01*
X20240Y35356D01*
X5737Y20853D01*
X-14000D01*
X-15028Y20718D01*
X-15985Y20321D01*
X-16808Y19690D01*
X-17439Y18867D01*
X-17836Y17910D01*
X-17971Y16882D01*
X-17836Y15854D01*
X-17439Y14896D01*
X-16808Y14074D01*
X-15985Y13443D01*
X-15028Y13046D01*
X-14000Y12911D01*
X7382D01*
X8410Y13046D01*
X9367Y13443D01*
X10190Y14074D01*
X19798Y23682D01*
X20260Y23491D01*
Y18213D01*
X27740D01*
Y25299D01*
X26283D01*
X26056Y25692D01*
X25543Y26205D01*
X24914Y26568D01*
X24213Y26756D01*
X23579D01*
X23426Y26977D01*
X23353Y27238D01*
X27308Y31192D01*
X27939Y32015D01*
X28336Y32972D01*
X28471Y34000D01*
Y35760D01*
X28740D01*
Y40633D01*
X45504D01*
X69441Y16697D01*
Y-12913D01*
Y-27087D01*
Y-30585D01*
X68085Y-31941D01*
X53413D01*
X51974Y-32130D01*
X50634Y-32685D01*
X49482Y-33569D01*
X42418Y-40633D01*
X28740D01*
Y-35760D01*
X20472D01*
Y-56626D01*
X28740D01*
Y-51752D01*
X44721D01*
X46159Y-51563D01*
X47500Y-51007D01*
X48651Y-50124D01*
X55716Y-43059D01*
X70388D01*
X71826Y-42870D01*
X73167Y-42315D01*
X74319Y-41431D01*
X78931Y-36819D01*
X79815Y-35667D01*
X80370Y-34326D01*
X80559Y-32888D01*
Y-31024D01*
X82677D01*
Y-64823D01*
X64823Y-82677D01*
X-64823D01*
X-82677Y-64823D01*
Y64823D01*
X-64823Y82677D01*
X31992D01*
X32087Y82217D01*
D02*
G37*
G36*
X28728Y63351D02*
X28641Y63366D01*
X28553Y63370D01*
X28466Y63363D01*
X28378Y63346D01*
X28291Y63318D01*
X28203Y63278D01*
X28115Y63228D01*
X28027Y63167D01*
X27939Y63095D01*
X27850Y63012D01*
X27322Y63898D01*
X27405Y63984D01*
X27551Y64156D01*
X27614Y64242D01*
X27670Y64327D01*
X27718Y64412D01*
X27760Y64497D01*
X27796Y64581D01*
X27824Y64665D01*
X27845Y64749D01*
X28728Y63351D01*
D02*
G37*
G36*
X28001Y60444D02*
X28089Y60372D01*
X28178Y60309D01*
X28266Y60258D01*
X28355Y60216D01*
X28444Y60185D01*
X28532Y60164D01*
X28621Y60154D01*
X28710Y60154D01*
X28800Y60164D01*
X27832Y58823D01*
X27815Y58910D01*
X27791Y58998D01*
X27760Y59085D01*
X27721Y59172D01*
X27674Y59259D01*
X27621Y59346D01*
X27560Y59433D01*
X27492Y59519D01*
X27333Y59693D01*
X27913Y60527D01*
X28001Y60444D01*
D02*
G37*
G36*
X82677Y64823D02*
Y-8976D01*
X80559D01*
Y19000D01*
X80370Y20439D01*
X79815Y21780D01*
X78931Y22931D01*
X51738Y50124D01*
X50587Y51007D01*
X49246Y51563D01*
X47807Y51752D01*
X41771D01*
Y63713D01*
X42323D01*
Y82217D01*
X42323D01*
X42418Y82677D01*
X64823D01*
X82677Y64823D01*
D02*
G37*
%LPC*%
G36*
X-60101Y72441D02*
X-61899D01*
X-63674Y72160D01*
X-65383Y71605D01*
X-66984Y70789D01*
X-68438Y69732D01*
X-69709Y68462D01*
X-70765Y67008D01*
X-71581Y65406D01*
X-72136Y63697D01*
X-72417Y61922D01*
Y60125D01*
X-72136Y58350D01*
X-71581Y56641D01*
X-70765Y55040D01*
X-69709Y53586D01*
X-68438Y52315D01*
X-66984Y51259D01*
X-65383Y50443D01*
X-63674Y49887D01*
X-61899Y49606D01*
X-60101D01*
X-58326Y49887D01*
X-56617Y50443D01*
X-55016Y51259D01*
X-53562Y52315D01*
X-52291Y53586D01*
X-51235Y55040D01*
X-50419Y56641D01*
X-49864Y58350D01*
X-49583Y60125D01*
Y61922D01*
X-49864Y63697D01*
X-50419Y65406D01*
X-51235Y67008D01*
X-52291Y68462D01*
X-53562Y69732D01*
X-55016Y70789D01*
X-56617Y71605D01*
X-58326Y72160D01*
X-60101Y72441D01*
D02*
G37*
G36*
X53043Y12291D02*
X45957D01*
Y3433D01*
X47222D01*
X47295Y3308D01*
X47808Y2795D01*
X48436Y2432D01*
X49137Y2244D01*
X49863D01*
X50564Y2432D01*
X51192Y2795D01*
X51705Y3308D01*
X51778Y3433D01*
X53043D01*
Y12291D01*
D02*
G37*
G36*
X45169Y3827D02*
X40445D01*
Y-2866D01*
X45169D01*
Y3827D01*
D02*
G37*
G36*
X35724Y3028D02*
X26276D01*
Y-6028D01*
X35724D01*
Y3028D01*
D02*
G37*
G36*
X17363Y10256D02*
X16637D01*
X15936Y10068D01*
X15308Y9705D01*
X14795Y9192D01*
X14432Y8564D01*
X14244Y7863D01*
Y7137D01*
X14432Y6436D01*
X14795Y5808D01*
X14885Y5718D01*
Y3028D01*
X9776D01*
Y-6028D01*
X19224D01*
Y3028D01*
X19116D01*
Y5718D01*
X19205Y5808D01*
X19568Y6436D01*
X19756Y7137D01*
Y7863D01*
X19568Y8564D01*
X19205Y9192D01*
X18692Y9705D01*
X18064Y10068D01*
X17363Y10256D01*
D02*
G37*
G36*
X7500Y8500D02*
X-8000D01*
Y-6042D01*
X-8500Y-6176D01*
X-8743Y-5756D01*
X-9256Y-5243D01*
X-9884Y-4880D01*
X-10585Y-4692D01*
X-11311D01*
X-12011Y-4880D01*
X-12640Y-5243D01*
X-13153Y-5756D01*
X-13516Y-6384D01*
X-13704Y-7085D01*
Y-7811D01*
X-13679Y-7901D01*
X-13984Y-8298D01*
X-17711D01*
X-21384Y-4624D01*
Y1718D01*
X-21295Y1808D01*
X-20932Y2436D01*
X-20744Y3137D01*
Y3863D01*
X-20932Y4564D01*
X-21295Y5192D01*
X-21808Y5705D01*
X-22436Y6068D01*
X-23137Y6256D01*
X-23863D01*
X-24564Y6068D01*
X-25192Y5705D01*
X-25500Y5397D01*
X-25808Y5705D01*
X-26436Y6068D01*
X-27137Y6256D01*
X-27863D01*
X-28564Y6068D01*
X-29192Y5705D01*
X-29500Y5397D01*
X-29808Y5705D01*
X-30436Y6068D01*
X-31137Y6256D01*
X-31863D01*
X-32564Y6068D01*
X-33192Y5705D01*
X-33705Y5192D01*
X-34068Y4564D01*
X-34256Y3863D01*
Y3137D01*
X-34068Y2436D01*
X-33705Y1808D01*
X-33615Y1718D01*
Y-7500D01*
X-33454Y-8309D01*
X-32996Y-8996D01*
X-25756Y-16236D01*
Y-16363D01*
X-25568Y-17064D01*
X-25205Y-17692D01*
X-24692Y-18205D01*
X-24064Y-18568D01*
X-23363Y-18756D01*
X-22637D01*
X-21936Y-18568D01*
X-21308Y-18205D01*
X-20795Y-17692D01*
X-20432Y-17064D01*
X-20244Y-16363D01*
Y-16256D01*
X-19637D01*
X-18936Y-16068D01*
X-18308Y-15705D01*
X-17795Y-15192D01*
X-17432Y-14564D01*
X-17244Y-13863D01*
Y-13137D01*
X-17301Y-12925D01*
X-16996Y-12528D01*
X-11963D01*
X-4756Y-19735D01*
X-4289Y-20048D01*
X-4205Y-20192D01*
X-3692Y-20705D01*
X-3064Y-21068D01*
X-2363Y-21256D01*
X-1637D01*
X-936Y-21068D01*
X-308Y-20705D01*
X205Y-20192D01*
X568Y-19564D01*
X756Y-18863D01*
Y-18137D01*
X568Y-17436D01*
X205Y-16808D01*
X88Y-16691D01*
X295Y-16191D01*
X6638D01*
Y-18000D01*
X8568D01*
X8593Y-18021D01*
X8830Y-18500D01*
X8578Y-18936D01*
X8390Y-19637D01*
Y-20363D01*
X8578Y-21064D01*
X8940Y-21692D01*
X9454Y-22205D01*
X10082Y-22568D01*
X10783Y-22756D01*
X11508D01*
X12209Y-22568D01*
X12838Y-22205D01*
X13351Y-21692D01*
X13714Y-21064D01*
X13902Y-20363D01*
Y-19637D01*
X13714Y-18936D01*
X13462Y-18500D01*
X13698Y-18021D01*
X13723Y-18000D01*
X14487D01*
Y-10150D01*
X7500D01*
Y8500D01*
D02*
G37*
G36*
X30987Y-10150D02*
X23138D01*
Y-18000D01*
X30987D01*
Y-10150D01*
D02*
G37*
G36*
X58555Y-11134D02*
X53831D01*
Y-17827D01*
X58098D01*
Y-20787D01*
Y-24724D01*
X60520D01*
X60637Y-24756D01*
X61363D01*
X61480Y-24724D01*
X67350D01*
Y-20787D01*
Y-15276D01*
X61480D01*
X61363Y-15244D01*
X60637D01*
X60520Y-15276D01*
X58555D01*
Y-11134D01*
D02*
G37*
G36*
X53043Y-17433D02*
X45957D01*
Y-26291D01*
X53043D01*
Y-17433D01*
D02*
G37*
G36*
X-48701Y-14358D02*
X-61299D01*
Y-21642D01*
Y-27642D01*
X-54409D01*
Y-21642D01*
X-48701D01*
Y-14358D01*
D02*
G37*
G36*
X9055Y-35760D02*
X787D01*
Y-56626D01*
X9055D01*
Y-35760D01*
D02*
G37*
G36*
X-787D02*
X-9055D01*
Y-56626D01*
X-787D01*
Y-35760D01*
D02*
G37*
G36*
X61922Y-49583D02*
X60125D01*
X58350Y-49864D01*
X56641Y-50419D01*
X55040Y-51235D01*
X53586Y-52291D01*
X52315Y-53562D01*
X51259Y-55016D01*
X50443Y-56617D01*
X49887Y-58326D01*
X49606Y-60101D01*
Y-61899D01*
X49887Y-63674D01*
X50443Y-65383D01*
X51259Y-66984D01*
X52315Y-68438D01*
X53586Y-69709D01*
X55040Y-70765D01*
X56641Y-71581D01*
X58350Y-72136D01*
X60125Y-72417D01*
X61922D01*
X63697Y-72136D01*
X65406Y-71581D01*
X67008Y-70765D01*
X68462Y-69709D01*
X69732Y-68438D01*
X70789Y-66984D01*
X71605Y-65383D01*
X72160Y-63674D01*
X72441Y-61899D01*
Y-60101D01*
X72160Y-58326D01*
X71605Y-56617D01*
X70789Y-55016D01*
X69732Y-53562D01*
X68462Y-52291D01*
X67008Y-51235D01*
X65406Y-50419D01*
X63697Y-49864D01*
X61922Y-49583D01*
D02*
G37*
G36*
X-60101Y-49606D02*
X-61899D01*
X-63674Y-49887D01*
X-65383Y-50443D01*
X-66984Y-51259D01*
X-68438Y-52315D01*
X-69709Y-53586D01*
X-70765Y-55040D01*
X-71581Y-56641D01*
X-72136Y-58350D01*
X-72417Y-60125D01*
Y-61922D01*
X-72136Y-63697D01*
X-71581Y-65406D01*
X-70765Y-67008D01*
X-69709Y-68462D01*
X-68438Y-69732D01*
X-66984Y-70789D01*
X-65383Y-71605D01*
X-63674Y-72160D01*
X-61899Y-72441D01*
X-60101D01*
X-58326Y-72160D01*
X-56617Y-71605D01*
X-55016Y-70789D01*
X-53562Y-69732D01*
X-52291Y-68462D01*
X-51235Y-67008D01*
X-50419Y-65406D01*
X-49864Y-63697D01*
X-49583Y-61922D01*
Y-60125D01*
X-49864Y-58350D01*
X-50419Y-56641D01*
X-51235Y-55040D01*
X-52291Y-53586D01*
X-53562Y-52315D01*
X-55016Y-51259D01*
X-56617Y-50443D01*
X-58326Y-49887D01*
X-60101Y-49606D01*
D02*
G37*
G36*
X-10630Y-35760D02*
X-18898D01*
Y-56626D01*
X-17116D01*
Y-72718D01*
X-17205Y-72808D01*
X-17568Y-73436D01*
X-17756Y-74137D01*
Y-74863D01*
X-17568Y-75564D01*
X-17205Y-76192D01*
X-16692Y-76705D01*
X-16064Y-77068D01*
X-15363Y-77256D01*
X-14637D01*
X-13936Y-77068D01*
X-13308Y-76705D01*
X-12795Y-76192D01*
X-12432Y-75564D01*
X-12244Y-74863D01*
Y-74137D01*
X-12432Y-73436D01*
X-12795Y-72808D01*
X-12885Y-72718D01*
Y-56626D01*
X-10630D01*
Y-35760D01*
D02*
G37*
G36*
X-20472D02*
X-28740D01*
Y-56626D01*
X-26615D01*
Y-75718D01*
X-26705Y-75808D01*
X-27068Y-76436D01*
X-27256Y-77137D01*
Y-77863D01*
X-27068Y-78564D01*
X-26705Y-79192D01*
X-26192Y-79705D01*
X-25564Y-80068D01*
X-24863Y-80256D01*
X-24137D01*
X-23436Y-80068D01*
X-22808Y-79705D01*
X-22295Y-79192D01*
X-21932Y-78564D01*
X-21744Y-77863D01*
Y-77137D01*
X-21932Y-76436D01*
X-22295Y-75808D01*
X-22385Y-75718D01*
Y-56626D01*
X-20472D01*
Y-35760D01*
D02*
G37*
%LPD*%
G36*
X17765Y6589D02*
X17709Y6517D01*
X17660Y6438D01*
X17618Y6353D01*
X17582Y6263D01*
X17552Y6166D01*
X17529Y6064D01*
X17513Y5956D01*
X17503Y5841D01*
X17500Y5721D01*
X16500D01*
X16497Y5841D01*
X16487Y5956D01*
X16471Y6064D01*
X16448Y6166D01*
X16418Y6263D01*
X16382Y6353D01*
X16340Y6438D01*
X16291Y6517D01*
X16235Y6589D01*
X16173Y6656D01*
X17827D01*
X17765Y6589D01*
D02*
G37*
G36*
X-22735Y2589D02*
X-22791Y2517D01*
X-22840Y2438D01*
X-22882Y2353D01*
X-22918Y2263D01*
X-22948Y2166D01*
X-22971Y2064D01*
X-22987Y1956D01*
X-22997Y1841D01*
X-23000Y1721D01*
X-24000D01*
X-24003Y1841D01*
X-24013Y1956D01*
X-24029Y2064D01*
X-24052Y2166D01*
X-24082Y2263D01*
X-24118Y2353D01*
X-24160Y2438D01*
X-24209Y2517D01*
X-24265Y2589D01*
X-24327Y2657D01*
X-22673D01*
X-22735Y2589D01*
D02*
G37*
G36*
X-26735D02*
X-26791Y2517D01*
X-26840Y2438D01*
X-26882Y2353D01*
X-26918Y2263D01*
X-26948Y2166D01*
X-26971Y2064D01*
X-26987Y1956D01*
X-26997Y1841D01*
X-27000Y1721D01*
X-28000D01*
X-28003Y1841D01*
X-28013Y1956D01*
X-28029Y2064D01*
X-28052Y2166D01*
X-28082Y2263D01*
X-28118Y2353D01*
X-28160Y2438D01*
X-28209Y2517D01*
X-28265Y2589D01*
X-28327Y2657D01*
X-26673D01*
X-26735Y2589D01*
D02*
G37*
G36*
X-30735D02*
X-30791Y2517D01*
X-30840Y2438D01*
X-30882Y2353D01*
X-30918Y2263D01*
X-30948Y2166D01*
X-30971Y2064D01*
X-30987Y1956D01*
X-30997Y1841D01*
X-31000Y1721D01*
X-32000D01*
X-32003Y1841D01*
X-32013Y1956D01*
X-32029Y2064D01*
X-32052Y2166D01*
X-32082Y2263D01*
X-32118Y2353D01*
X-32160Y2438D01*
X-32209Y2517D01*
X-32265Y2589D01*
X-32327Y2657D01*
X-30673D01*
X-30735Y2589D01*
D02*
G37*
G36*
X-20817Y-11971D02*
X-20729Y-12045D01*
X-20641Y-12110D01*
X-20553Y-12166D01*
X-20464Y-12214D01*
X-20374Y-12252D01*
X-20284Y-12282D01*
X-20194Y-12303D01*
X-20103Y-12315D01*
X-20012Y-12319D01*
X-21181Y-13488D01*
X-21184Y-13397D01*
X-21197Y-13306D01*
X-21218Y-13216D01*
X-21248Y-13126D01*
X-21286Y-13036D01*
X-21334Y-12947D01*
X-21390Y-12859D01*
X-21455Y-12771D01*
X-21529Y-12683D01*
X-21611Y-12596D01*
X-20904Y-11889D01*
X-20817Y-11971D01*
D02*
G37*
G36*
X-23817Y-14471D02*
X-23729Y-14545D01*
X-23641Y-14610D01*
X-23553Y-14666D01*
X-23464Y-14714D01*
X-23374Y-14752D01*
X-23284Y-14782D01*
X-23194Y-14803D01*
X-23103Y-14816D01*
X-23012Y-14819D01*
X-24181Y-15988D01*
X-24184Y-15897D01*
X-24197Y-15806D01*
X-24218Y-15716D01*
X-24248Y-15626D01*
X-24286Y-15536D01*
X-24334Y-15447D01*
X-24390Y-15359D01*
X-24455Y-15271D01*
X-24529Y-15183D01*
X-24611Y-15096D01*
X-23904Y-14389D01*
X-23817Y-14471D01*
D02*
G37*
G36*
X11649Y-18341D02*
X11659Y-18455D01*
X11675Y-18564D01*
X11698Y-18666D01*
X11727Y-18763D01*
X11763Y-18853D01*
X11806Y-18938D01*
X11855Y-19017D01*
X11910Y-19090D01*
X11972Y-19157D01*
X10319D01*
X10381Y-19090D01*
X10436Y-19017D01*
X10486Y-18938D01*
X10528Y-18853D01*
X10564Y-18763D01*
X10593Y-18666D01*
X10616Y-18564D01*
X10633Y-18455D01*
X10642Y-18341D01*
X10646Y-18221D01*
X11646D01*
X11649Y-18341D01*
D02*
G37*
G36*
X-14497Y-72841D02*
X-14487Y-72956D01*
X-14471Y-73064D01*
X-14448Y-73166D01*
X-14418Y-73263D01*
X-14382Y-73353D01*
X-14340Y-73438D01*
X-14291Y-73517D01*
X-14235Y-73589D01*
X-14173Y-73656D01*
X-15827D01*
X-15765Y-73589D01*
X-15709Y-73517D01*
X-15660Y-73438D01*
X-15618Y-73353D01*
X-15582Y-73263D01*
X-15552Y-73166D01*
X-15529Y-73064D01*
X-15513Y-72956D01*
X-15503Y-72841D01*
X-15500Y-72721D01*
X-14500D01*
X-14497Y-72841D01*
D02*
G37*
G36*
X-23997Y-75841D02*
X-23987Y-75955D01*
X-23971Y-76064D01*
X-23948Y-76166D01*
X-23918Y-76263D01*
X-23882Y-76353D01*
X-23840Y-76438D01*
X-23791Y-76517D01*
X-23735Y-76590D01*
X-23673Y-76657D01*
X-25327D01*
X-25265Y-76590D01*
X-25209Y-76517D01*
X-25160Y-76438D01*
X-25118Y-76353D01*
X-25082Y-76263D01*
X-25052Y-76166D01*
X-25029Y-76064D01*
X-25013Y-75955D01*
X-25003Y-75841D01*
X-25000Y-75721D01*
X-24000D01*
X-23997Y-75841D01*
D02*
G37*
%LPC*%
G36*
X61922Y72417D02*
X60125D01*
X58350Y72136D01*
X56641Y71581D01*
X55040Y70765D01*
X53586Y69709D01*
X52315Y68438D01*
X51259Y66984D01*
X50443Y65383D01*
X49887Y63674D01*
X49606Y61899D01*
Y60101D01*
X49887Y58326D01*
X50443Y56617D01*
X51259Y55016D01*
X52315Y53562D01*
X53586Y52291D01*
X55040Y51235D01*
X56641Y50419D01*
X58350Y49864D01*
X60125Y49583D01*
X61922D01*
X63697Y49864D01*
X65406Y50419D01*
X67008Y51235D01*
X68462Y52291D01*
X69732Y53562D01*
X70789Y55016D01*
X71605Y56617D01*
X72160Y58326D01*
X72441Y60101D01*
Y61899D01*
X72160Y63674D01*
X71605Y65383D01*
X70789Y66984D01*
X69732Y68438D01*
X68462Y69709D01*
X67008Y70765D01*
X65406Y71581D01*
X63697Y72136D01*
X61922Y72417D01*
D02*
G37*
%LPD*%
D16*
X-57854Y-24000D02*
D03*
X-52146D02*
D03*
X-57854Y-18000D02*
D03*
X-52146D02*
D03*
D47*
X-57854Y-24000D02*
Y-18000D01*
X-52000Y26800D02*
X-50000Y28800D01*
X-18587Y-10413D02*
X-11087D01*
X-2261Y-18239D02*
X-2000Y-18500D01*
X-3261Y-18239D02*
X-2261D01*
X-11087Y-10413D02*
X-3261Y-18239D01*
X-10948Y-7552D02*
X-4425Y-14075D01*
X-10948Y-7552D02*
Y-7448D01*
X-4425Y-14075D02*
X10563D01*
X11563D01*
X-23500Y-5500D02*
X-18587Y-10413D01*
X-23500Y-5500D02*
Y3500D01*
X-27500Y-6000D02*
X-20000Y-13500D01*
X-27500Y-6000D02*
Y3500D01*
X-31500Y-7500D02*
X-23000Y-16000D01*
X-31500Y-7500D02*
Y3500D01*
X15563Y-1200D02*
X17000Y237D01*
Y7500D01*
X11146Y-20000D02*
Y-14492D01*
X11563Y-14075D01*
X-15000Y-74500D02*
Y-46429D01*
X-24500Y-77500D02*
Y-46299D01*
X-14175Y62825D02*
X26956D01*
X-24606Y52492D02*
X-22547Y54551D01*
X-22449D01*
X-14175Y62825D01*
X-24606Y46193D02*
Y52492D01*
X28631Y64500D02*
X29000D01*
X26956Y62825D02*
X28631Y64500D01*
X35169Y75000D02*
X37205Y72965D01*
Y47488D02*
X38500Y46193D01*
X-14764Y58914D02*
X-13178Y60500D01*
X27233D01*
X28733Y59000D01*
X29000D01*
X-14764Y46193D02*
Y58914D01*
X-15000Y-46429D02*
X-14764Y-46193D01*
X-24606D02*
X-24500Y-46299D01*
D49*
X-52000Y20000D02*
Y26800D01*
D51*
X-51217Y-6216D02*
D03*
X-55783D02*
D03*
Y-10784D02*
D03*
X-51217D02*
D03*
X-53500Y-8500D02*
D03*
D52*
X-52146Y-18000D02*
D03*
X-30500Y-18646D02*
D03*
X-36354Y-57000D02*
D03*
X61000Y-22000D02*
D03*
Y-18000D02*
D03*
X-38500Y33500D02*
D03*
X-23500Y3500D02*
D03*
X-31500Y35500D02*
D03*
X-27500Y3500D02*
D03*
X-31500D02*
D03*
X-10948Y-7448D02*
D03*
X49500Y5000D02*
D03*
Y-21862D02*
D03*
X31000Y-1500D02*
D03*
X15000Y-42354D02*
D03*
X39500Y-14000D02*
D03*
X17000Y7500D02*
D03*
X28146Y-14000D02*
D03*
X11146Y-20000D02*
D03*
X33854Y-14000D02*
D03*
X16854Y-20000D02*
D03*
X8354Y-64500D02*
D03*
Y-58500D02*
D03*
X-36500Y-51370D02*
D03*
X-18000Y-1646D02*
D03*
X-23000Y-16000D02*
D03*
X-15000Y-74500D02*
D03*
X-24500Y-77500D02*
D03*
X-5134Y-62489D02*
D03*
X29000Y64500D02*
D03*
Y59000D02*
D03*
X23850Y24000D02*
D03*
X-55783Y-10784D02*
D03*
X-51217D02*
D03*
Y-6216D02*
D03*
X-53500Y-8500D02*
D03*
X-55783Y-6216D02*
D03*
X31500Y23500D02*
D03*
X34500D02*
D03*
X37500D02*
D03*
Y26500D02*
D03*
Y29500D02*
D03*
X34500D02*
D03*
X31500D02*
D03*
Y26500D02*
D03*
X-23000Y27500D02*
D03*
X-26000D02*
D03*
X-29000D02*
D03*
Y21500D02*
D03*
X-26000D02*
D03*
X-23000D02*
D03*
Y24500D02*
D03*
X-29000D02*
D03*
X-64146Y3000D02*
D03*
Y9500D02*
D03*
X-69854Y-3500D02*
D03*
X47000Y19000D02*
D03*
X43500D02*
D03*
X9500Y7500D02*
D03*
X12500D02*
D03*
X-2000Y-18500D02*
D03*
X-20000Y-13500D02*
D03*
X-22858Y-19541D02*
D03*
X34500Y26500D02*
D03*
X-26000Y24500D02*
D03*
X-51744Y9500D02*
D03*
X-69756Y16000D02*
D03*
X-57354Y3000D02*
D03*
D53*
X-49500Y28500D02*
D03*
D54*
X-52000Y14000D02*
D03*
X-14000Y16882D02*
D03*
X24500Y34000D02*
D03*
D55*
X-61000Y61024D02*
D03*
X61024Y-61000D02*
D03*
X-61000Y-61024D02*
D03*
X61024Y61000D02*
D03*
D56*
X62724Y-18032D02*
D03*
Y-21969D02*
D03*
D57*
X77980Y-12913D02*
D03*
Y-27087D02*
D03*
D58*
X-63500Y42100D02*
D03*
Y28900D02*
D03*
D59*
X-24606Y46193D02*
D03*
X-14764D02*
D03*
X24606D02*
D03*
X14764D02*
D03*
X4921D02*
D03*
X-4921D02*
D03*
X24606Y-46193D02*
D03*
X14764D02*
D03*
X4921D02*
D03*
X-4921D02*
D03*
X-14764D02*
D03*
X-24606D02*
D03*
D60*
X37205Y72965D02*
D03*
X-37205D02*
D03*
X37205Y-72965D02*
D03*
X-37205D02*
D03*
D61*
X-50000Y42200D02*
D03*
Y28800D02*
D03*
D62*
X-52000Y20000D02*
D03*
X-62000Y20000D02*
D03*
D63*
X-38756Y35500D02*
D03*
X-33244D02*
D03*
D64*
X49500Y-21862D02*
D03*
Y7862D02*
D03*
D65*
X56193Y-14480D02*
D03*
X42807Y480D02*
D03*
D66*
X24000Y21756D02*
D03*
Y16244D02*
D03*
D67*
X31000Y-1500D02*
D03*
X14500D02*
D03*
D68*
X34938Y-14075D02*
D03*
X27062D02*
D03*
X18438D02*
D03*
X10563D02*
D03*
D69*
X-53500Y-8500D02*
D03*
D70*
X-26000Y24500D02*
D03*
X34500Y26500D02*
D03*
D71*
X75000Y-27087D02*
Y-12913D01*
X38500Y46193D02*
X47807D01*
X75000Y-12913D02*
Y19000D01*
Y-32888D02*
Y-27087D01*
X47807Y46193D02*
X75000Y19000D01*
X70388Y-37500D02*
X75000Y-32888D01*
X53413Y-37500D02*
X70388D01*
X44721Y-46193D02*
X53413Y-37500D01*
X27807Y-46193D02*
X44721D01*
X27693Y46193D02*
X38500D01*
D72*
X-62478Y42000D02*
X-52000D01*
X-50000Y42200D02*
Y43500D01*
X-20535Y72965D01*
X37205D01*
Y47488D02*
Y72591D01*
D73*
X-14000Y16882D02*
X7382D01*
X24500Y34000D01*
Y46087D01*
M02*
