G04*
G04 #@! TF.GenerationSoftware,Altium Limited,Altium Designer,21.9.2 (33)*
G04*
G04 Layer_Color=16711935*
%FSLAX25Y25*%
%MOIN*%
G70*
G04*
G04 #@! TF.SameCoordinates,DDE03FFC-3592-4A1C-B560-7E07A9873239*
G04*
G04*
G04 #@! TF.FilePolarity,Positive*
G04*
G01*
G75*
%ADD10C,0.00787*%
G36*
X16241Y-58159D02*
X14271D01*
Y-58162D01*
X14276Y-58164D01*
X14280Y-58172D01*
X14288Y-58179D01*
X14310Y-58204D01*
X14337Y-58238D01*
X14369Y-58280D01*
X14406Y-58332D01*
X14445Y-58391D01*
X14485Y-58455D01*
Y-58457D01*
X14490Y-58462D01*
X14494Y-58472D01*
X14502Y-58484D01*
X14512Y-58501D01*
X14522Y-58518D01*
X14544Y-58563D01*
X14568Y-58612D01*
X14595Y-58666D01*
X14620Y-58723D01*
X14642Y-58777D01*
X14345D01*
X14342Y-58774D01*
X14340Y-58764D01*
X14332Y-58752D01*
X14322Y-58732D01*
X14310Y-58710D01*
X14295Y-58686D01*
X14280Y-58656D01*
X14261Y-58624D01*
X14219Y-58553D01*
X14167Y-58477D01*
X14111Y-58400D01*
X14049Y-58324D01*
X14047Y-58322D01*
X14042Y-58317D01*
X14032Y-58305D01*
X14020Y-58292D01*
X14003Y-58277D01*
X13985Y-58258D01*
X13963Y-58238D01*
X13941Y-58216D01*
X13889Y-58172D01*
X13833Y-58127D01*
X13771Y-58086D01*
X13742Y-58066D01*
X13710Y-58051D01*
Y-57849D01*
X16241D01*
Y-58159D01*
D02*
G37*
G36*
X15173Y-60194D02*
X16241D01*
Y-60528D01*
X15173D01*
X13720Y-61500D01*
Y-61094D01*
X14482Y-60600D01*
X14485Y-60597D01*
X14492Y-60592D01*
X14502Y-60585D01*
X14519Y-60575D01*
X14539Y-60563D01*
X14561Y-60548D01*
X14585Y-60533D01*
X14615Y-60514D01*
X14645Y-60496D01*
X14679Y-60474D01*
X14750Y-60432D01*
X14827Y-60386D01*
X14905Y-60341D01*
X14903Y-60339D01*
X14896Y-60336D01*
X14886Y-60329D01*
X14871Y-60322D01*
X14854Y-60309D01*
X14831Y-60297D01*
X14805Y-60280D01*
X14777Y-60263D01*
X14745Y-60245D01*
X14711Y-60223D01*
X14674Y-60201D01*
X14637Y-60176D01*
X14554Y-60122D01*
X14462Y-60066D01*
X13720Y-59576D01*
Y-59188D01*
X15173Y-60194D01*
D02*
G37*
D10*
X11957Y-68488D02*
Y-54512D01*
X19043D01*
Y-68488D02*
Y-54512D01*
X11957Y-68488D02*
X19043D01*
M02*
