G04*
G04 #@! TF.GenerationSoftware,Altium Limited,Altium Designer,21.9.2 (33)*
G04*
G04 Layer_Color=32896*
%FSLAX25Y25*%
%MOIN*%
G70*
G04*
G04 #@! TF.SameCoordinates,DDE03FFC-3592-4A1C-B560-7E07A9873239*
G04*
G04*
G04 #@! TF.FilePolarity,Positive*
G04*
G01*
G75*
%ADD10C,0.00787*%
G36*
X52073Y-375D02*
X52041Y-390D01*
X52012Y-410D01*
X51950Y-452D01*
X51894Y-496D01*
X51842Y-540D01*
X51820Y-562D01*
X51798Y-582D01*
X51780Y-602D01*
X51763Y-616D01*
X51751Y-629D01*
X51741Y-641D01*
X51736Y-646D01*
X51734Y-648D01*
X51672Y-725D01*
X51616Y-801D01*
X51564Y-877D01*
X51522Y-948D01*
X51502Y-981D01*
X51488Y-1010D01*
X51473Y-1035D01*
X51461Y-1057D01*
X51451Y-1076D01*
X51443Y-1089D01*
X51441Y-1099D01*
X51438Y-1101D01*
X51141D01*
X51163Y-1047D01*
X51187Y-990D01*
X51215Y-936D01*
X51239Y-887D01*
X51261Y-843D01*
X51271Y-826D01*
X51281Y-808D01*
X51288Y-796D01*
X51293Y-786D01*
X51298Y-781D01*
Y-779D01*
X51338Y-715D01*
X51377Y-656D01*
X51414Y-604D01*
X51446Y-562D01*
X51473Y-528D01*
X51495Y-503D01*
X51502Y-496D01*
X51507Y-489D01*
X51512Y-486D01*
Y-483D01*
X49542D01*
Y-174D01*
X52073D01*
Y-375D01*
D02*
G37*
G36*
X52063Y-1861D02*
X50442Y-2255D01*
X50329Y-2282D01*
X50277Y-2296D01*
X50226Y-2309D01*
X50176Y-2319D01*
X50132Y-2328D01*
X50090Y-2338D01*
X50051Y-2348D01*
X50017Y-2356D01*
X49985Y-2363D01*
X49957Y-2368D01*
X49935Y-2373D01*
X49918Y-2378D01*
X49903Y-2380D01*
X49896Y-2383D01*
X49894D01*
X50051Y-2410D01*
X50208Y-2439D01*
X50287Y-2456D01*
X50361Y-2471D01*
X50430Y-2488D01*
X50496Y-2503D01*
X50558Y-2520D01*
X50614Y-2533D01*
X50664Y-2545D01*
X50705Y-2557D01*
X50740Y-2567D01*
X50764Y-2575D01*
X50774Y-2577D01*
X50782D01*
X50784Y-2579D01*
X50787D01*
X52063Y-2941D01*
Y-3342D01*
X50358Y-3822D01*
X50344Y-3827D01*
X50322Y-3832D01*
X50292Y-3839D01*
X50260Y-3846D01*
X50223Y-3856D01*
X50184Y-3866D01*
X50103Y-3886D01*
X50063Y-3896D01*
X50024Y-3905D01*
X49990Y-3913D01*
X49957Y-3923D01*
X49931Y-3928D01*
X49911Y-3932D01*
X49898Y-3937D01*
X49894D01*
X49990Y-3955D01*
X50083Y-3972D01*
X50169Y-3989D01*
X50211Y-3999D01*
X50248Y-4006D01*
X50282Y-4014D01*
X50314Y-4021D01*
X50341Y-4028D01*
X50366Y-4033D01*
X50386Y-4038D01*
X50398Y-4041D01*
X50408Y-4043D01*
X50410D01*
X52063Y-4427D01*
Y-4769D01*
X49542Y-4102D01*
Y-3758D01*
X51463Y-3226D01*
X51510Y-3214D01*
X51559Y-3199D01*
X51611Y-3187D01*
X51655Y-3175D01*
X51697Y-3165D01*
X51714Y-3160D01*
X51729Y-3158D01*
X51741Y-3155D01*
X51751Y-3153D01*
X51756Y-3150D01*
X51758D01*
X51746Y-3148D01*
X51731Y-3143D01*
X51711Y-3138D01*
X51689Y-3133D01*
X51640Y-3118D01*
X51591Y-3106D01*
X51542Y-3091D01*
X51520Y-3086D01*
X51502Y-3079D01*
X51485Y-3076D01*
X51473Y-3071D01*
X51465Y-3069D01*
X51463D01*
X49542Y-2540D01*
Y-2215D01*
X52063Y-1524D01*
Y-1861D01*
D02*
G37*
G36*
X50327Y-5000D02*
X50395Y-5012D01*
X50457Y-5030D01*
X50509Y-5047D01*
X50531Y-5057D01*
X50553Y-5066D01*
X50570Y-5076D01*
X50585Y-5084D01*
X50597Y-5091D01*
X50604Y-5096D01*
X50609Y-5099D01*
X50612Y-5101D01*
X50641Y-5123D01*
X50669Y-5145D01*
X50718Y-5197D01*
X50762Y-5251D01*
X50799Y-5303D01*
X50828Y-5352D01*
X50841Y-5372D01*
X50850Y-5389D01*
X50858Y-5404D01*
X50863Y-5416D01*
X50868Y-5423D01*
Y-5426D01*
X50880Y-5458D01*
X50895Y-5495D01*
X50907Y-5534D01*
X50922Y-5578D01*
X50949Y-5669D01*
X50973Y-5763D01*
X50986Y-5807D01*
X50996Y-5849D01*
X51006Y-5888D01*
X51013Y-5920D01*
X51018Y-5947D01*
X51023Y-5969D01*
X51028Y-5982D01*
Y-5987D01*
X51045Y-6058D01*
X51062Y-6124D01*
X51079Y-6183D01*
X51096Y-6235D01*
X51111Y-6282D01*
X51126Y-6324D01*
X51141Y-6358D01*
X51153Y-6390D01*
X51165Y-6415D01*
X51178Y-6437D01*
X51187Y-6454D01*
X51195Y-6466D01*
X51200Y-6476D01*
X51205Y-6483D01*
X51210Y-6486D01*
Y-6488D01*
X51244Y-6520D01*
X51281Y-6545D01*
X51318Y-6560D01*
X51355Y-6572D01*
X51384Y-6579D01*
X51411Y-6582D01*
X51421Y-6584D01*
X51429D01*
X51431D01*
X51433D01*
X51463Y-6582D01*
X51490Y-6579D01*
X51539Y-6562D01*
X51586Y-6540D01*
X51625Y-6515D01*
X51655Y-6491D01*
X51679Y-6469D01*
X51694Y-6452D01*
X51699Y-6449D01*
Y-6447D01*
X51719Y-6419D01*
X51736Y-6387D01*
X51751Y-6356D01*
X51766Y-6319D01*
X51785Y-6247D01*
X51798Y-6174D01*
X51802Y-6142D01*
X51807Y-6110D01*
X51810Y-6080D01*
Y-6055D01*
X51812Y-6036D01*
Y-6006D01*
X51810Y-5955D01*
X51807Y-5903D01*
X51800Y-5859D01*
X51793Y-5814D01*
X51783Y-5775D01*
X51773Y-5741D01*
X51763Y-5709D01*
X51751Y-5679D01*
X51739Y-5652D01*
X51729Y-5630D01*
X51719Y-5610D01*
X51709Y-5595D01*
X51702Y-5583D01*
X51694Y-5576D01*
X51692Y-5571D01*
X51689Y-5568D01*
X51665Y-5541D01*
X51638Y-5517D01*
X51611Y-5497D01*
X51581Y-5477D01*
X51522Y-5445D01*
X51463Y-5423D01*
X51436Y-5416D01*
X51411Y-5408D01*
X51389Y-5401D01*
X51370Y-5399D01*
X51352Y-5394D01*
X51340D01*
X51333Y-5391D01*
X51330D01*
X51355Y-5071D01*
X51397Y-5074D01*
X51436Y-5079D01*
X51510Y-5096D01*
X51579Y-5116D01*
X51608Y-5125D01*
X51635Y-5138D01*
X51662Y-5150D01*
X51684Y-5160D01*
X51704Y-5170D01*
X51721Y-5180D01*
X51734Y-5187D01*
X51744Y-5192D01*
X51748Y-5194D01*
X51751Y-5197D01*
X51812Y-5244D01*
X51867Y-5298D01*
X51911Y-5352D01*
X51950Y-5406D01*
X51980Y-5453D01*
X51990Y-5472D01*
X51999Y-5492D01*
X52007Y-5507D01*
X52012Y-5517D01*
X52017Y-5524D01*
Y-5526D01*
X52046Y-5610D01*
X52068Y-5694D01*
X52085Y-5777D01*
X52090Y-5817D01*
X52095Y-5854D01*
X52100Y-5888D01*
X52103Y-5920D01*
X52105Y-5950D01*
Y-5974D01*
X52108Y-5994D01*
Y-6021D01*
X52105Y-6115D01*
X52095Y-6201D01*
X52088Y-6240D01*
X52081Y-6279D01*
X52073Y-6314D01*
X52066Y-6348D01*
X52056Y-6378D01*
X52048Y-6405D01*
X52041Y-6427D01*
X52036Y-6447D01*
X52029Y-6461D01*
X52026Y-6474D01*
X52021Y-6481D01*
Y-6483D01*
X51987Y-6557D01*
X51945Y-6619D01*
X51903Y-6673D01*
X51862Y-6717D01*
X51825Y-6754D01*
X51810Y-6766D01*
X51795Y-6779D01*
X51785Y-6786D01*
X51775Y-6793D01*
X51771Y-6796D01*
X51768Y-6798D01*
X51736Y-6818D01*
X51704Y-6833D01*
X51643Y-6860D01*
X51581Y-6880D01*
X51527Y-6892D01*
X51502Y-6897D01*
X51480Y-6902D01*
X51461Y-6904D01*
X51443D01*
X51431Y-6907D01*
X51419D01*
X51414D01*
X51411D01*
X51347Y-6902D01*
X51288Y-6892D01*
X51234Y-6880D01*
X51187Y-6862D01*
X51151Y-6845D01*
X51133Y-6838D01*
X51121Y-6833D01*
X51111Y-6825D01*
X51104Y-6823D01*
X51099Y-6818D01*
X51096D01*
X51047Y-6781D01*
X51000Y-6739D01*
X50961Y-6695D01*
X50927Y-6651D01*
X50897Y-6611D01*
X50887Y-6594D01*
X50878Y-6579D01*
X50870Y-6567D01*
X50865Y-6557D01*
X50860Y-6552D01*
Y-6550D01*
X50846Y-6520D01*
X50833Y-6488D01*
X50819Y-6454D01*
X50804Y-6415D01*
X50779Y-6333D01*
X50755Y-6255D01*
X50742Y-6215D01*
X50732Y-6181D01*
X50725Y-6146D01*
X50718Y-6119D01*
X50710Y-6095D01*
X50708Y-6078D01*
X50703Y-6068D01*
Y-6063D01*
X50688Y-6001D01*
X50673Y-5945D01*
X50661Y-5893D01*
X50649Y-5846D01*
X50639Y-5804D01*
X50629Y-5768D01*
X50619Y-5736D01*
X50612Y-5709D01*
X50604Y-5684D01*
X50597Y-5664D01*
X50592Y-5649D01*
X50587Y-5637D01*
X50585Y-5627D01*
X50582Y-5620D01*
X50580Y-5615D01*
X50558Y-5559D01*
X50533Y-5512D01*
X50509Y-5472D01*
X50484Y-5440D01*
X50464Y-5416D01*
X50447Y-5399D01*
X50437Y-5389D01*
X50432Y-5386D01*
X50398Y-5364D01*
X50363Y-5347D01*
X50329Y-5335D01*
X50297Y-5325D01*
X50267Y-5320D01*
X50245Y-5317D01*
X50231D01*
X50228D01*
X50226D01*
X50181Y-5320D01*
X50142Y-5327D01*
X50105Y-5340D01*
X50073Y-5352D01*
X50046Y-5367D01*
X50026Y-5376D01*
X50014Y-5386D01*
X50009Y-5389D01*
X49975Y-5418D01*
X49943Y-5453D01*
X49918Y-5490D01*
X49896Y-5524D01*
X49876Y-5556D01*
X49864Y-5583D01*
X49859Y-5593D01*
X49857Y-5600D01*
X49854Y-5605D01*
Y-5608D01*
X49834Y-5664D01*
X49822Y-5721D01*
X49812Y-5777D01*
X49805Y-5829D01*
X49800Y-5873D01*
Y-5893D01*
X49798Y-5910D01*
Y-5942D01*
X49800Y-6021D01*
X49810Y-6095D01*
X49822Y-6161D01*
X49827Y-6191D01*
X49834Y-6218D01*
X49842Y-6242D01*
X49849Y-6265D01*
X49854Y-6284D01*
X49859Y-6301D01*
X49864Y-6314D01*
X49869Y-6324D01*
X49871Y-6329D01*
Y-6331D01*
X49901Y-6390D01*
X49935Y-6442D01*
X49967Y-6486D01*
X49999Y-6520D01*
X50026Y-6547D01*
X50049Y-6567D01*
X50063Y-6577D01*
X50066Y-6582D01*
X50068D01*
X50117Y-6609D01*
X50169Y-6631D01*
X50221Y-6651D01*
X50270Y-6663D01*
X50314Y-6673D01*
X50331Y-6678D01*
X50349Y-6680D01*
X50363Y-6683D01*
X50373Y-6685D01*
X50378D01*
X50381D01*
X50354Y-7000D01*
X50307Y-6998D01*
X50262Y-6993D01*
X50176Y-6978D01*
X50135Y-6966D01*
X50098Y-6956D01*
X50063Y-6944D01*
X50031Y-6931D01*
X50002Y-6919D01*
X49975Y-6907D01*
X49953Y-6894D01*
X49933Y-6884D01*
X49918Y-6877D01*
X49908Y-6870D01*
X49901Y-6867D01*
X49898Y-6865D01*
X49830Y-6811D01*
X49768Y-6752D01*
X49716Y-6690D01*
X49675Y-6634D01*
X49655Y-6606D01*
X49640Y-6582D01*
X49628Y-6557D01*
X49618Y-6538D01*
X49608Y-6523D01*
X49603Y-6510D01*
X49601Y-6503D01*
X49598Y-6501D01*
X49581Y-6456D01*
X49566Y-6410D01*
X49542Y-6314D01*
X49525Y-6218D01*
X49517Y-6171D01*
X49512Y-6127D01*
X49507Y-6085D01*
X49505Y-6048D01*
X49502Y-6014D01*
Y-5984D01*
X49500Y-5959D01*
Y-5928D01*
X49505Y-5829D01*
X49515Y-5738D01*
X49522Y-5696D01*
X49532Y-5654D01*
X49539Y-5618D01*
X49549Y-5583D01*
X49559Y-5554D01*
X49566Y-5524D01*
X49576Y-5502D01*
X49584Y-5480D01*
X49589Y-5465D01*
X49593Y-5453D01*
X49598Y-5445D01*
Y-5443D01*
X49638Y-5367D01*
X49682Y-5300D01*
X49707Y-5271D01*
X49729Y-5244D01*
X49751Y-5219D01*
X49773Y-5194D01*
X49793Y-5175D01*
X49812Y-5158D01*
X49830Y-5145D01*
X49844Y-5133D01*
X49857Y-5123D01*
X49867Y-5116D01*
X49871Y-5113D01*
X49874Y-5111D01*
X49908Y-5091D01*
X49940Y-5071D01*
X50007Y-5044D01*
X50071Y-5022D01*
X50130Y-5010D01*
X50157Y-5005D01*
X50179Y-5000D01*
X50201Y-4998D01*
X50218D01*
X50233Y-4995D01*
X50243D01*
X50250D01*
X50253D01*
X50290D01*
X50327Y-5000D01*
D02*
G37*
D10*
X-41142Y36941D02*
X41142D01*
Y81035D01*
X-41142D02*
X41142D01*
X-41142Y36941D02*
Y81035D01*
X41142Y-81035D02*
Y-36941D01*
X-41142Y-81035D02*
X41142D01*
X-41142D02*
Y-36941D01*
X41142D01*
X57571Y-25110D02*
Y11110D01*
X41429D02*
X57571D01*
X41429Y-25110D02*
Y11110D01*
Y-25110D02*
X57571D01*
M02*
